<svg width="48" height="48" viewBox="0 0 48 48" fill="none" xmlns="http://www.w3.org/2000/svg">
<path d="M12 33.345V45C12.0002 45.2476 12.0617 45.4912 12.179 45.7093C12.2962 45.9273 12.4657 46.1129 12.6721 46.2496C12.8786 46.3862 13.1156 46.4697 13.3622 46.4924C13.6087 46.5152 13.857 46.4765 14.085 46.38L24 42.135L33.915 46.38C34.1 46.4588 34.2989 46.4996 34.5 46.5C34.7941 46.4977 35.0809 46.409 35.325 46.245C35.5313 46.1091 35.7009 45.9243 35.8187 45.7071C35.9364 45.49 35.9987 45.247 36 45V33.345C32.5789 36.0359 28.3526 37.4989 24 37.4989C19.6474 37.4989 15.4211 36.0359 12 33.345Z" fill="#00CCCC"/>
<path d="M24 34.5C27.2634 34.5 30.4535 33.5323 33.1669 31.7193C35.8803 29.9062 37.9952 27.3293 39.244 24.3143C40.4929 21.2993 40.8196 17.9817 40.183 14.781C39.5463 11.5803 37.9748 8.64031 35.6673 6.33275C33.3597 4.02518 30.4197 2.45371 27.219 1.81705C24.0183 1.18039 20.7007 1.50715 17.6857 2.756C14.6707 4.00484 12.0938 6.11969 10.2808 8.8331C8.46771 11.5465 7.5 14.7366 7.5 18C7.5 22.3761 9.23839 26.5729 12.3327 29.6673C15.4271 32.7616 19.6239 34.5 24 34.5ZM24 7.50001C26.0767 7.50001 28.1068 8.11582 29.8335 9.26958C31.5602 10.4233 32.906 12.0632 33.7007 13.9818C34.4955 15.9005 34.7034 18.0117 34.2982 20.0485C33.8931 22.0853 32.8931 23.9562 31.4246 25.4246C29.9562 26.8931 28.0853 27.8931 26.0485 28.2983C24.0117 28.7034 21.9004 28.4955 19.9818 27.7007C18.0632 26.906 16.4233 25.5602 15.2696 23.8335C14.1158 22.1068 13.5 20.0767 13.5 18C13.5 15.2152 14.6062 12.5445 16.5754 10.5754C18.5445 8.60625 21.2152 7.50001 24 7.50001Z" fill="#00CCCC"/>
<path d="M24 25.5C28.1421 25.5 31.5 22.1421 31.5 18C31.5 13.8579 28.1421 10.5 24 10.5C19.8579 10.5 16.5 13.8579 16.5 18C16.5 22.1421 19.8579 25.5 24 25.5Z" fill="#00CCCC"/>
</svg>
