<svg width="32" height="32" viewBox="0 0 32 32" fill="none" xmlns="http://www.w3.org/2000/svg">
<path d="M29.1251 10.0781H2.87509L3.31259 10.5156V8.79682L3.09591 9.17457L5.66613 7.88657L10.9747 5.22632L15.4186 2.99942L16.1915 2.61207H15.7498L18.3187 3.89364L23.6329 6.54476L28.1038 8.77517L28.9043 9.17454L28.6876 8.79679V10.5155C28.6876 10.754 28.8866 10.953 29.1251 10.953C29.3636 10.953 29.5626 10.754 29.5626 10.5155V8.79679C29.5626 8.65063 29.4812 8.48651 29.3459 8.41904L26.777 7.13748L21.4628 4.48635L16.992 2.25595L16.1943 1.85798C15.9773 1.74973 15.8124 1.8252 15.6278 1.91773L15.1625 2.15092L10.9141 4.27989L5.54878 6.96857L2.66959 8.41138L2.65428 8.41907C2.51906 8.48682 2.43759 8.65045 2.43759 8.79682V10.5156C2.43759 10.7541 2.63659 10.9531 2.87509 10.9531H29.1251C29.3636 10.9531 29.5626 10.7541 29.5626 10.5156C29.5626 10.2771 29.3636 10.0781 29.1251 10.0781ZM29.6407 29.3281H2.35941L2.79691 29.7656V27.0995L2.35941 27.537H29.6407L29.2032 27.0995V29.7656C29.2032 30.0041 29.4022 30.2031 29.6407 30.2031C29.8792 30.2031 30.0782 30.0041 30.0782 29.7656V27.0995C30.0782 26.861 29.8792 26.662 29.6407 26.662H2.35938C2.12088 26.662 1.92188 26.861 1.92188 27.0995V29.7656C1.92188 30.0041 2.12088 30.2031 2.35938 30.2031H29.6407C29.8792 30.2031 30.0782 30.0041 30.0782 29.7656C30.0782 29.5271 29.8792 29.3281 29.6407 29.3281ZM7.56259 24.7343H4.18759L4.62509 25.1718L4.70453 21.9632L4.85338 15.9501C4.88144 14.8157 4.90953 13.6813 4.93763 12.5468L4.50013 12.9843H7.25013L6.81263 12.5468L6.89206 15.7554L7.04091 21.7685L7.12503 25.1668L7.12516 25.1718C7.13106 25.4102 7.31972 25.6093 7.56266 25.6093C7.79669 25.6093 8.00606 25.4103 8.00016 25.1718L7.92072 21.9632L7.77188 15.9501C7.74381 14.8157 7.71572 13.6812 7.68763 12.5468C7.68172 12.3084 7.49306 12.1093 7.25013 12.1093H4.50013C4.25719 12.1093 4.06853 12.3084 4.06263 12.5468L3.98319 15.7554L3.83434 21.7685L3.75022 25.1668C3.75019 25.1684 3.75015 25.1701 3.75009 25.1718C3.74419 25.4103 3.95356 25.6093 4.18759 25.6093H7.56259C7.80109 25.6093 8.00009 25.4103 8.00009 25.1718C8.00009 24.9333 7.80109 24.7343 7.56259 24.7343ZM27.8126 24.7343H24.4376L24.8751 25.1718L24.9545 21.9632L25.1034 15.9501C25.1314 14.8174 25.1594 13.6846 25.1875 12.5518L25.1876 12.5468L24.7501 12.9843H27.5001L27.0626 12.5468L27.142 15.7554L27.2909 21.7685L27.375 25.1668L27.3751 25.1718C27.381 25.4102 27.5697 25.6093 27.8126 25.6093C28.0466 25.6093 28.256 25.4103 28.2501 25.1718L28.1707 21.9632L28.0218 15.9501C27.9938 14.8173 27.9658 13.6846 27.9377 12.5518L27.9376 12.5468C27.9317 12.3084 27.743 12.1093 27.5001 12.1093H24.7501C24.5072 12.1093 24.3185 12.3084 24.3126 12.5468L24.2332 15.7554L24.0843 21.7685L24.0002 25.1668L24.0001 25.1718C23.9942 25.4103 24.2036 25.6093 24.4376 25.6093L27.8126 25.6093C28.0511 25.6093 28.2501 25.4103 28.2501 25.1718C28.2501 24.9333 28.0511 24.7343 27.8126 24.7343Z" fill="#00B8B8"/>
<path d="M17.0389 6.91714C17.0383 6.96039 17.0364 7.00362 17.0333 7.04676C17.0234 7.18348 17.0498 6.9653 17.0246 7.09839C17.0091 7.18017 16.9832 7.25961 16.954 7.33742C16.9855 7.2533 16.9338 7.37473 16.9301 7.38208C16.9116 7.41845 16.8902 7.45317 16.8688 7.48783C16.865 7.49389 16.7876 7.60183 16.8427 7.53123C16.8095 7.57383 16.7722 7.61314 16.7346 7.6518C16.7063 7.68083 16.6758 7.70748 16.6453 7.73411C16.547 7.81983 16.7118 7.68914 16.6046 7.7637C16.5376 7.81033 16.4651 7.84845 16.3914 7.88333C16.4728 7.8448 16.3501 7.89648 16.3425 7.89908C16.303 7.91258 16.2626 7.92267 16.2222 7.93276C16.2144 7.9347 16.0791 7.95836 16.1721 7.9462C16.115 7.95367 16.0574 7.95533 15.9999 7.95614C15.9567 7.95676 15.9134 7.95364 15.8703 7.95051C15.7336 7.94061 15.9517 7.96701 15.8187 7.94176C15.7369 7.92623 15.6575 7.90033 15.5797 7.87123C15.6638 7.9027 15.5423 7.85101 15.535 7.84726C15.4986 7.8288 15.4639 7.80736 15.4292 7.78598C15.4232 7.78223 15.3152 7.7048 15.3858 7.75989C15.3432 7.72664 15.3039 7.68945 15.2653 7.6518C15.2362 7.62355 15.2096 7.59298 15.183 7.56248C15.0973 7.4642 15.228 7.62898 15.1534 7.52183C15.1067 7.45476 15.0687 7.38226 15.0338 7.30861C15.0723 7.39005 15.0206 7.26726 15.018 7.25964C15.0045 7.2202 14.9944 7.17973 14.9843 7.13936C14.9824 7.13164 14.9587 6.9963 14.9709 7.0893C14.9634 7.03223 14.9618 6.97458 14.961 6.91711C14.9603 6.87383 14.9635 6.83058 14.9666 6.78745C14.9765 6.65073 14.9501 6.86892 14.9753 6.73586C14.9909 6.65405 15.0167 6.57464 15.0459 6.49683C15.0144 6.58095 15.0661 6.45951 15.0698 6.45217C15.0883 6.4158 15.1097 6.38108 15.1311 6.34642C15.1349 6.34036 15.2123 6.23242 15.1572 6.30301C15.1904 6.26042 15.2277 6.22111 15.2653 6.18245C15.2935 6.15342 15.3241 6.12676 15.3546 6.10017C15.4529 6.01445 15.2881 6.14514 15.3952 6.07058C15.4623 6.02392 15.5348 5.98583 15.6085 5.95095C15.527 5.98948 15.6498 5.9378 15.6574 5.9352C15.6968 5.9217 15.7373 5.91161 15.7777 5.90151C15.7854 5.89958 15.9208 5.87592 15.8278 5.88808C15.8849 5.88061 15.9425 5.87895 16 5.87814C16.0432 5.87751 16.0865 5.88064 16.1296 5.88376C16.2663 5.89367 16.0482 5.86726 16.1812 5.89251C16.263 5.90805 16.3424 5.93392 16.4202 5.96305C16.3361 5.93158 16.4575 5.98326 16.4649 5.98701C16.5012 6.00545 16.536 6.02689 16.5707 6.0483C16.5767 6.05205 16.6847 6.12948 16.6141 6.07439C16.6567 6.10761 16.696 6.14483 16.7346 6.18245C16.7637 6.2107 16.7903 6.24126 16.8169 6.27176C16.9027 6.37005 16.772 6.20523 16.8465 6.31242C16.8932 6.37948 16.9312 6.45198 16.9661 6.52564C16.9276 6.4442 16.9793 6.56698 16.9819 6.57461C16.9954 6.61401 17.0055 6.65448 17.0156 6.69489C17.0175 6.70261 17.0412 6.83795 17.029 6.74495C17.0365 6.80201 17.0381 6.85967 17.0389 6.91714C17.0424 7.15558 17.2353 7.35464 17.4764 7.35464C17.7123 7.35464 17.9174 7.15564 17.9139 6.91714C17.9017 6.07511 17.3669 5.36251 16.5751 5.09145C15.7689 4.81548 14.9082 5.1767 14.421 5.83748C13.9207 6.5162 14.0117 7.47505 14.5135 8.11805C15.006 8.74914 15.9048 8.99486 16.6528 8.71501C17.4069 8.43286 17.9023 7.72142 17.9139 6.9172C17.9173 6.6787 17.7123 6.4797 17.4764 6.4797C17.2353 6.47964 17.0424 6.6787 17.0389 6.91714ZM18.7142 16.0482C18.7134 16.2 18.703 16.351 18.6847 16.5018C18.6972 16.3981 18.6797 16.528 18.6776 16.5409C18.6713 16.5802 18.664 16.6193 18.6566 16.6584C18.6391 16.7513 18.6175 16.8432 18.5945 16.9348C18.5539 17.0958 18.5032 17.2542 18.4472 17.4105C18.3737 17.6156 18.3547 17.6546 18.259 17.851C18.1845 18.0038 18.1012 18.1522 18.0125 18.2971C17.9684 18.3692 17.9217 18.4396 17.8741 18.5093C17.8504 18.544 17.8259 18.578 17.8013 18.612C17.785 18.6346 17.7684 18.657 17.7516 18.6792C17.7778 18.6458 17.7751 18.6492 17.7434 18.6892C17.6419 18.8176 17.5318 18.9389 17.416 19.0545C17.3595 19.111 17.3004 19.1647 17.2404 19.2174C17.2108 19.2434 17.1803 19.2683 17.1499 19.2933C17.1103 19.3246 17.1091 19.3258 17.1461 19.2968C17.1254 19.3123 17.1046 19.3275 17.0836 19.3425C16.9606 19.4312 16.8295 19.5081 16.6937 19.5755C16.6812 19.5817 16.5679 19.6323 16.6631 19.5921C16.6292 19.6065 16.5947 19.6191 16.5601 19.6318C16.4801 19.6611 16.3979 19.6837 16.3151 19.7033C16.2797 19.7117 16.2439 19.7182 16.2081 19.7246C16.088 19.7463 16.3017 19.7155 16.1802 19.7282C16.1073 19.7359 16.0339 19.7373 15.9607 19.7366C15.9241 19.7363 15.8875 19.7338 15.851 19.7314C15.8333 19.7302 15.7122 19.7147 15.8226 19.7305C15.7386 19.7185 15.6558 19.6988 15.574 19.6764C15.5033 19.657 15.4343 19.6323 15.366 19.606C15.2514 19.5619 15.4468 19.643 15.3347 19.5915C15.3008 19.576 15.2677 19.5589 15.2345 19.5418C15.1673 19.5073 15.1025 19.4683 15.0385 19.4282C15.006 19.4079 14.9744 19.3862 14.9428 19.3646C14.9296 19.3556 14.8026 19.2608 14.8756 19.3177C14.7499 19.2198 14.6333 19.1108 14.522 18.9972C14.4648 18.9389 14.4104 18.878 14.3568 18.8164C14.3297 18.7853 14.3036 18.7534 14.2774 18.7215C14.2599 18.7 14.2427 18.6785 14.2257 18.6567C14.2517 18.6903 14.2492 18.6867 14.2183 18.6458C14.0069 18.3632 13.8304 18.0551 13.6809 17.7359C13.6629 17.6974 13.6458 17.6585 13.6287 17.6197C13.6638 17.6995 13.6092 17.572 13.6076 17.5679C13.5762 17.4899 13.5474 17.4108 13.5197 17.3314C13.4606 17.1626 13.4122 16.9902 13.3715 16.8161C13.3532 16.7379 13.338 16.6591 13.3238 16.58C13.3169 16.5411 13.311 16.5021 13.3051 16.463C13.3206 16.5656 13.3027 16.4382 13.3012 16.4248C13.2824 16.2562 13.2775 16.0865 13.2832 15.9171C13.2862 15.8308 13.2944 15.7448 13.3043 15.6591C13.2936 15.7518 13.3129 15.6137 13.3141 15.6068C13.3213 15.5651 13.3301 15.5237 13.3389 15.4824C13.3767 15.3054 13.4333 15.1329 13.5009 14.9654C13.4671 15.0492 13.5208 14.9249 13.5236 14.919C13.541 14.8817 13.5598 14.8451 13.5787 14.8085C13.6162 14.7357 13.658 14.6651 13.7011 14.5954C13.744 14.5259 13.791 14.459 13.8392 14.393C13.918 14.2851 13.7869 14.4568 13.8711 14.3532C13.9054 14.311 13.9415 14.2705 13.9779 14.2302C14.0871 14.1092 14.2076 13.999 14.3339 13.8963C14.2648 13.9525 14.3698 13.8698 14.3752 13.866C14.4083 13.8421 14.4418 13.8188 14.4759 13.7963C14.5551 13.7429 14.6377 13.6947 14.7215 13.6488C14.9806 13.5067 15.2796 13.408 15.64 13.3513C15.5475 13.3658 15.687 13.3467 15.6937 13.346C15.7367 13.3416 15.7798 13.3389 15.823 13.3363C15.9102 13.331 15.9977 13.331 16.0851 13.3327C16.1717 13.3345 16.258 13.3415 16.3441 13.3504C16.4837 13.3647 16.2592 13.3362 16.397 13.3579C16.4528 13.3667 16.5082 13.3781 16.5633 13.3899C16.7268 13.4247 16.8864 13.4759 17.042 13.5364C17.1683 13.5854 16.9662 13.5016 17.0894 13.5571C17.127 13.574 17.1638 13.5924 17.2007 13.6107C17.2741 13.6473 17.3453 13.6882 17.4156 13.7304C17.4857 13.7725 17.5532 13.8186 17.6198 13.866C17.625 13.8697 17.7309 13.9517 17.661 13.8963C17.6929 13.9216 17.7239 13.9481 17.7548 13.9746C17.8888 14.0894 18.0107 14.2178 18.1238 14.3531C18.2093 14.4557 18.0755 14.2862 18.1557 14.393C18.1802 14.4256 18.2035 14.4592 18.2267 14.4928C18.2733 14.56 18.3159 14.63 18.3571 14.7006C18.3984 14.7716 18.4356 14.845 18.4713 14.9189C18.4741 14.9247 18.529 15.0487 18.494 14.9653C18.51 15.0035 18.5245 15.0423 18.539 15.0811C18.5976 15.2382 18.6403 15.4008 18.673 15.5651C18.6814 15.6067 18.688 15.6487 18.6946 15.6907C18.68 15.5982 18.6991 15.7377 18.6998 15.7444C18.7102 15.8453 18.7135 15.9468 18.7142 16.0482C18.7159 16.2866 18.912 16.4857 19.1517 16.4857C19.389 16.4857 19.5909 16.2867 19.5892 16.0482C19.5787 14.4982 18.5793 13.1369 17.1187 12.6355C16.4042 12.3903 15.5912 12.4007 14.8762 12.6355C14.1477 12.8748 13.5411 13.3422 13.0836 13.9514C12.6354 14.5481 12.4106 15.3065 12.4056 16.0482C12.4007 16.7721 12.6136 17.4844 12.9076 18.1388C13.4612 19.3708 14.6087 20.6527 16.0709 20.6105C17.1465 20.5795 18.0141 19.821 18.6056 18.9854C19.1997 18.1462 19.5834 17.081 19.5892 16.0482C19.5906 15.8097 19.3892 15.6107 19.1517 15.6107C18.9122 15.6107 18.7156 15.8097 18.7142 16.0482ZM21.8851 24.5669V27.0992L22.3226 26.6617H9.67725L10.1147 27.0992V24.7842C10.1147 24.2915 10.1411 23.9606 10.33 23.48C10.2971 23.5637 10.3486 23.4385 10.3513 23.4325C10.3683 23.395 10.3868 23.3581 10.4052 23.3213C10.442 23.2478 10.483 23.1765 10.5252 23.1061C10.5674 23.0359 10.6134 22.9682 10.6607 22.9014C10.6643 22.8963 10.7459 22.7897 10.6908 22.8597C10.7245 22.8169 10.76 22.7757 10.7957 22.7346C11.0452 22.4482 11.2191 22.3132 11.5258 22.1344C11.6326 22.0721 11.7439 22.0181 11.8571 21.9685C11.7794 22.0025 11.9312 21.942 11.9456 21.9368C12.011 21.913 12.0776 21.8927 12.1443 21.8732C12.2661 21.8377 12.3903 21.8119 12.5153 21.791C12.568 21.7831 12.5715 21.7824 12.526 21.7888C12.5688 21.7834 12.6117 21.7797 12.6546 21.776C12.7269 21.7698 12.7995 21.7674 12.872 21.7659C13.1387 21.7606 13.4059 21.7656 13.6727 21.7656C13.5696 21.7229 13.4664 21.6802 13.3633 21.6375L15.7002 24.5528C15.8379 24.7246 16.1815 24.7257 16.3189 24.5528L18.6366 21.6375C18.5334 21.6802 18.4303 21.7229 18.3272 21.7656C18.5941 21.7656 18.861 21.7641 19.1279 21.7659C19.186 21.7663 19.2441 21.7694 19.3021 21.7729C19.3309 21.7748 19.3596 21.7771 19.3883 21.7797C19.3947 21.7803 19.5351 21.7975 19.4424 21.7845C19.5821 21.8041 19.7198 21.8356 19.8556 21.8732C19.9093 21.8881 19.9622 21.9055 20.0151 21.9231C20.0413 21.9321 20.0675 21.9414 20.0935 21.951C20.0992 21.9531 20.2261 22.0038 20.1429 21.9686C20.2693 22.022 20.3911 22.086 20.5096 22.1551C20.9228 22.3959 21.2504 22.7324 21.4958 23.1413C21.5593 23.2472 21.6147 23.3578 21.6657 23.4702C21.6864 23.5174 21.6878 23.5206 21.67 23.48C21.6857 23.5184 21.6998 23.5575 21.714 23.5965C21.7378 23.662 21.7581 23.7285 21.7776 23.7953C21.8171 23.9307 21.8448 24.0692 21.8662 24.2085C21.8602 24.1628 21.8604 24.1665 21.8668 24.2197C21.8717 24.2626 21.8748 24.3057 21.8779 24.3487C21.8832 24.4213 21.8847 24.4941 21.8851 24.5669C21.8867 24.8053 22.0829 25.0044 22.3226 25.0044C22.5599 25.0044 22.7617 24.8054 22.7601 24.5669C22.7498 23.0117 21.7718 21.654 20.3261 21.1073C19.7685 20.8965 19.1857 20.8906 18.5995 20.8906C18.4017 20.8906 18.1464 20.857 18.0075 21.0318L17.8221 21.265L15.7002 23.9341H16.3189L14.9565 22.2345L14.1551 21.2347L13.9873 21.0254C13.8444 20.8472 13.5436 20.8906 13.3402 20.8906C12.7431 20.8906 12.1608 20.9154 11.5964 21.1371C10.884 21.4171 10.2923 21.8974 9.85834 22.5268C9.45068 23.1181 9.23975 23.8532 9.23975 24.5689V27.0993C9.23975 27.3378 9.43875 27.5368 9.67725 27.5368H22.3226C22.5611 27.5368 22.7601 27.3378 22.7601 27.0993V24.5669C22.7601 24.3284 22.5611 24.1294 22.3226 24.1294C22.0841 24.1294 21.8851 24.3284 21.8851 24.5669Z" fill="#00B8B8"/>
</svg>
