<svg width="21" height="20" viewBox="0 0 21 20" fill="none" xmlns="http://www.w3.org/2000/svg">
<g clip-path="url(#clip0_51_807)">
<path d="M16.5 1.93548V0H15.1667V1.93548H5.83333V0H4.5V1.93548H0.5V20H20.5V10.9677V1.93548H16.5ZM1.83333 3.22581H4.5V5.16129H5.83333V3.22581H15.1667V5.16129H16.5V3.22581H19.1667V8.3871H1.83333V3.22581ZM19.1667 18.7097H1.83333V9.67742H19.1667V18.7097Z" fill="#1D2E2E" fill-opacity="0.8"/>
<path d="M9.46853 18V12.4457L10.259 13.2632L10.7473 12.7585L9.12366 11.0815L7.5 12.7585L7.98834 13.2632L8.77878 12.4457V18H9.46853Z" fill="#1D2E2E" fill-opacity="0.8"/>
<path d="M12.0261 11V16.5543L11.2357 15.7368L10.7473 16.2415L12.371 17.9185L13.9946 16.2415L13.5063 15.7368L12.7158 16.5543V11H12.0261Z" fill="#1D2E2E" fill-opacity="0.8"/>
</g>
<defs>
<clipPath id="clip0_51_807">
<rect width="20" height="20" fill="white" transform="translate(0.5)"/>
</clipPath>
</defs>
</svg>
