<svg width="48" height="48" viewBox="0 0 48 48" fill="none" xmlns="http://www.w3.org/2000/svg">
<circle cx="24" cy="24" r="24" fill="#00CCCC"/>
<g clip-path="url(#clip0_66_636)">
<path d="M30.3 27C28.65 26.85 27.75 29.1 26.55 29.7C24.6 30.75 21 27 21 27C21 27 17.25 23.4 18.15 21.45C18.9 20.25 21.15 19.35 21 17.7C20.85 16.2 17.55 10.8 15.9 12.3C12.3 15.6 12 16.95 12 19.65C11.85 24.3 17.85 30.15 17.85 30.15C18.45 30.75 23.7 36.15 28.35 36C31.05 36 32.4 35.7 35.7 32.1C37.2 30.45 31.95 27.15 30.3 27Z" fill="white"/>
</g>
<defs>
<clipPath id="clip0_66_636">
<rect width="24" height="24" fill="white" transform="translate(12 12)"/>
</clipPath>
</defs>
</svg>
