<svg width="48" height="48" viewBox="0 0 48 48" fill="none" xmlns="http://www.w3.org/2000/svg">
<path d="M17.726 21.185L17.7093 21.2118L17.696 21.2405C17.3895 21.9045 17.5027 22.65 17.7464 23.3125C17.9937 23.985 18.4072 24.6599 18.832 25.2488C19.2595 25.8415 19.7139 26.368 20.0597 26.745C20.233 26.934 20.3802 27.0866 20.4845 27.1925C20.5367 27.2455 20.5783 27.2868 20.6072 27.3153L20.6407 27.3481L20.6464 27.3536L20.652 27.3594L20.685 27.393C20.7135 27.4219 20.755 27.4635 20.808 27.5157C20.9141 27.62 21.067 27.7668 21.2563 27.9392C21.6338 28.283 22.1614 28.7335 22.7557 29.1524C23.3458 29.5684 24.0243 29.9695 24.702 30.1954C25.3712 30.4185 26.1199 30.4962 26.7803 30.1439C27.1581 29.9533 27.486 29.6494 27.7723 29.3487C27.9189 29.1947 28.0636 29.0316 28.2032 28.8739L28.2177 28.8576C28.3541 28.7035 28.4862 28.5543 28.6207 28.4111C29.1998 27.7947 29.6876 27.4464 30.2547 27.498C30.5671 27.5264 31.1332 27.7226 31.8242 28.0738C32.4977 28.4162 33.2336 28.8769 33.8716 29.3801C34.5179 29.8898 35.0258 30.4138 35.2857 30.874C35.4142 31.1015 35.4646 31.2831 35.4664 31.4198C35.4679 31.5414 35.4325 31.6507 35.3307 31.7629C33.6909 33.5517 32.5812 34.4677 31.5826 34.9497C30.6014 35.4234 29.6842 35.5 28.35 35.5H28.3419L28.3339 35.5003C26.1834 35.5696 23.8247 34.3443 21.8719 32.9494C20.0357 31.6378 18.6465 30.2416 18.2563 29.8494C18.236 29.829 18.2184 29.8113 18.2036 29.7965L18.2036 29.7964L18.1991 29.7921L18.1991 29.792L18.1991 29.792L18.1985 29.7915L18.1959 29.7889L18.1842 29.7774L18.1365 29.7299C18.0943 29.6876 18.0316 29.6243 17.9516 29.5417C17.7915 29.3764 17.5618 29.134 17.2861 28.8284C16.7343 28.2166 16.0011 27.3541 15.2736 26.3503C14.5451 25.3452 13.8295 24.2082 13.3067 23.0471C12.782 21.8818 12.4656 20.7235 12.4997 19.6661L12.5 19.6581V19.65C12.5 18.3159 12.5766 17.3986 13.0503 16.4174C13.5323 15.4189 14.4483 14.3091 16.237 12.6694C16.3471 12.5695 16.4533 12.5363 16.5726 12.5397C16.7082 12.5435 16.8901 12.5971 17.119 12.7314C17.5815 13.0025 18.1069 13.5251 18.6178 14.182C19.1221 14.8304 19.5838 15.5725 19.9271 16.2409C20.2798 16.9278 20.4741 17.4731 20.5023 17.7476C20.5525 18.3114 20.2064 18.7992 19.5756 19.3743C19.4238 19.5127 19.2637 19.6492 19.0979 19.7895C19.0791 19.8054 19.0603 19.8214 19.0413 19.8374C18.8952 19.9609 18.7448 20.0881 18.6008 20.216C18.2797 20.5011 17.9533 20.8214 17.726 21.185Z" stroke="#1D2E2E"/>
<circle cx="24" cy="24" r="23.5" stroke="#1D2E2E"/>
</svg>
