<svg width="21" height="22" viewBox="0 0 21 22" fill="none" xmlns="http://www.w3.org/2000/svg">
<path d="M20.19 20.19L1.81001 1.81L0.390015 3.22L2.00001 4.83V18C2.00001 19.1 2.90001 20 4.00001 20H17.17L18.78 21.61L20.19 20.19ZM4.00001 18V6.83L15.17 18H4.00001ZM16 7V4H18V15.17L20 17.17V4C20 2.9 19.1 2 18 2H13.82C13.4 0.84 12.3 0 11 0C9.70001 0 8.60001 0.84 8.18002 2H4.83001L9.83001 7H16ZM11 2C11.55 2 12 2.45 12 3C12 3.55 11.55 4 11 4C10.45 4 10 3.55 10 3C10 2.45 10.45 2 11 2Z" fill="#1D2E2E" fill-opacity="0.8"/>
</svg>
