<svg width="32" height="33" viewBox="0 0 32 33" fill="none" xmlns="http://www.w3.org/2000/svg">
<path d="M28.1232 26.1009L3.07106 22.9641C2.34319 22.873 1.82706 22.2091 1.91819 21.4811L3.68881 7.33915C3.77994 6.61127 4.44387 6.09508 5.17181 6.18621L30.224 9.32296C30.9519 9.41408 31.468 10.0781 31.3769 10.806L29.6062 24.948C29.5151 25.6758 28.8511 26.192 28.1232 26.1009Z" fill="#002736"/>
<path d="M27.1974 27.7517H1.94969C1.21612 27.7517 0.621437 27.157 0.621437 26.4235V12.171C0.621437 11.4374 1.21612 10.8428 1.94969 10.8428H27.1974C27.931 10.8428 28.5257 11.4375 28.5257 12.171V26.4235C28.5257 27.157 27.931 27.7517 27.1974 27.7517Z" fill="url(#paint0_linear_1597_863)"/>
<path d="M10.7752 23.4951C11.5795 23.4951 11.5809 22.2451 10.7752 22.2451H3.28556C2.48125 22.2451 2.47994 23.4951 3.28556 23.4951H10.7752ZM12.9419 23.4951H14.4789C15.2832 23.4951 15.2846 22.2451 14.4789 22.2451H12.9419C12.1376 22.2451 12.1362 23.4951 12.9419 23.4951Z" fill="white"/>
<path d="M20.3304 25.4271C21.6198 25.4271 22.665 24.3818 22.665 23.0924C22.665 21.8031 21.6198 20.7578 20.3304 20.7578C19.041 20.7578 17.9958 21.8031 17.9958 23.0924C17.9958 24.3818 19.041 25.4271 20.3304 25.4271Z" fill="url(#paint1_linear_1597_863)"/>
<path d="M24.1012 25.4271C25.3906 25.4271 26.4358 24.3818 26.4358 23.0924C26.4358 21.8031 25.3906 20.7578 24.1012 20.7578C22.8118 20.7578 21.7666 21.8031 21.7666 23.0924C21.7666 24.3818 22.8118 25.4271 24.1012 25.4271Z" fill="#3F5EAB"/>
<path d="M0.621437 16.5397C1.54919 16.5397 28.3892 16.5785 28.4788 16.5397C28.4898 16.5349 28.5129 16.5397 28.5257 16.5397C28.5372 16.5397 28.5376 14.9772 28.5257 14.9772C27.598 14.9772 0.757937 14.9384 0.668437 14.9772C0.657312 14.982 0.634249 14.9772 0.621437 14.9772C0.609999 14.9772 0.609562 16.5397 0.621437 16.5397Z" fill="white"/>
<defs>
<linearGradient id="paint0_linear_1597_863" x1="3.75931" y1="30.1115" x2="25.3879" y2="8.48296" gradientUnits="userSpaceOnUse">
<stop stop-color="#00A3A3"/>
<stop offset="1" stop-color="#00CCCC"/>
</linearGradient>
<linearGradient id="paint1_linear_1597_863" x1="17.9958" y1="23.0924" x2="22.665" y2="23.0924" gradientUnits="userSpaceOnUse">
<stop stop-color="#B3B3B3"/>
<stop offset="0.016" stop-color="#B7B7B7"/>
<stop offset="0.152" stop-color="#D1D1D1"/>
<stop offset="0.302" stop-color="#E5E5E5"/>
<stop offset="0.47" stop-color="#F4F4F4"/>
<stop offset="0.672" stop-color="#FCFCFC"/>
<stop offset="1" stop-color="white"/>
</linearGradient>
</defs>
</svg>
