<svg width="110" height="110" viewBox="0 0 110 110" fill="none" xmlns="http://www.w3.org/2000/svg">
<path d="M54.8529 3.29989C48.0803 3.28751 41.3719 4.61304 35.113 7.20037C28.8541 9.78769 23.168 13.5859 18.381 18.3768C-1.7284 38.4861 -1.7284 71.1974 18.3879 91.3068C38.4972 111.409 71.2085 111.409 91.3178 91.3068C111.42 71.1974 111.42 38.4861 91.3178 18.3768C86.5336 13.586 80.8499 9.78775 74.5932 7.20037C68.3365 4.61299 61.6303 3.28744 54.8597 3.29989H54.8529ZM54.8529 10.1336C66.2791 10.1336 77.7054 14.4993 86.4504 23.2374C90.6066 27.3845 93.904 32.3106 96.1538 37.7337C98.4036 43.1568 99.5617 48.9705 99.5617 54.8418C99.5617 60.7131 98.4036 66.5267 96.1538 71.9498C93.904 77.373 90.6066 82.2991 86.4504 86.4461C82.3033 90.6023 77.3772 93.8997 71.954 96.1496C66.5309 98.3994 60.7173 99.5575 54.846 99.5575C48.9747 99.5575 43.161 98.3994 37.7379 96.1496C32.3148 93.8997 27.3887 90.6023 23.2416 86.4461C19.0854 82.2991 15.788 77.373 13.5382 71.9498C11.2883 66.5267 10.1303 60.7131 10.1303 54.8418C10.1303 48.9705 11.2883 43.1568 13.5382 37.7337C15.788 32.3106 19.0854 27.3845 23.2416 23.2374C27.3874 19.0781 32.3144 15.7792 37.7393 13.5304C43.1643 11.2816 48.9803 10.1272 54.8529 10.1336ZM75.2029 41.0849C74.5518 41.1461 73.9317 41.3918 73.4154 41.793L48.2941 60.6305L36.6547 48.998C36.3376 48.6697 35.9583 48.4078 35.5389 48.2277C35.1195 48.0475 34.6685 47.9527 34.212 47.9487C33.7556 47.9447 33.303 48.0317 32.8805 48.2046C32.4581 48.3774 32.0743 48.6326 31.7515 48.9554C31.4287 49.2782 31.1735 49.662 31.0007 50.0844C30.8278 50.5069 30.7408 50.9595 30.7448 51.416C30.7488 51.8724 30.8436 52.3235 31.0238 52.7428C31.2039 53.1622 31.4658 53.5415 31.7941 53.8586L45.5441 67.6086C46.1285 68.1933 46.904 68.5478 47.7286 68.6071C48.5531 68.6665 49.3714 68.4267 50.0335 67.9318L77.5335 47.3068C78.1162 46.882 78.5506 46.2848 78.7752 45.5996C78.9998 44.9144 79.0032 44.176 78.785 43.4887C78.5669 42.8014 78.1381 42.2002 77.5594 41.77C76.9807 41.3399 76.2813 41.1026 75.5603 41.0918C75.4436 41.0858 75.3265 41.0858 75.2097 41.0918L75.2029 41.0849Z" fill="#00CCCC"/>
</svg>
