<svg width="55" height="12" viewBox="0 0 55 12" fill="none" xmlns="http://www.w3.org/2000/svg">
<rect width="55" height="12" rx="4" fill="#C62424"/>
<path d="M7.47159 5.07386H6.58523C6.55114 4.88447 6.48769 4.7178 6.39489 4.57386C6.30208 4.42992 6.18845 4.30777 6.05398 4.20739C5.91951 4.10701 5.76894 4.03125 5.60227 3.98011C5.4375 3.92898 5.26231 3.90341 5.0767 3.90341C4.74148 3.90341 4.44129 3.98769 4.17614 4.15625C3.91288 4.32481 3.70455 4.57197 3.55114 4.89773C3.39962 5.22348 3.32386 5.62121 3.32386 6.09091C3.32386 6.56439 3.39962 6.96402 3.55114 7.28977C3.70455 7.61553 3.91383 7.86174 4.17898 8.02841C4.44413 8.19508 4.74242 8.27841 5.07386 8.27841C5.25758 8.27841 5.43182 8.25379 5.59659 8.20455C5.76326 8.15341 5.91383 8.0786 6.0483 7.98011C6.18277 7.88163 6.2964 7.76136 6.3892 7.61932C6.4839 7.47538 6.54924 7.31061 6.58523 7.125L7.47159 7.12784C7.42424 7.41383 7.33239 7.67708 7.19602 7.91761C7.06155 8.15625 6.88826 8.36269 6.67614 8.53693C6.46591 8.70928 6.22538 8.8428 5.95455 8.9375C5.68371 9.0322 5.38826 9.07955 5.06818 9.07955C4.56439 9.07955 4.11553 8.96023 3.72159 8.72159C3.32765 8.48106 3.01705 8.13731 2.78977 7.69034C2.56439 7.24337 2.4517 6.71023 2.4517 6.09091C2.4517 5.4697 2.56534 4.93655 2.79261 4.49148C3.01989 4.04451 3.33049 3.7017 3.72443 3.46307C4.11837 3.22254 4.56629 3.10227 5.06818 3.10227C5.37689 3.10227 5.66477 3.14678 5.93182 3.2358C6.20076 3.32292 6.44223 3.4517 6.65625 3.62216C6.87027 3.79072 7.04735 3.99716 7.1875 4.24148C7.32765 4.4839 7.42235 4.76136 7.47159 5.07386ZM10.2919 9.08807C9.88281 9.08807 9.5258 8.99432 9.22088 8.80682C8.91596 8.61932 8.67921 8.35701 8.51065 8.01989C8.34209 7.68277 8.25781 7.28883 8.25781 6.83807C8.25781 6.38542 8.34209 5.98958 8.51065 5.65057C8.67921 5.31155 8.91596 5.0483 9.22088 4.8608C9.5258 4.6733 9.88281 4.57955 10.2919 4.57955C10.701 4.57955 11.058 4.6733 11.3629 4.8608C11.6679 5.0483 11.9046 5.31155 12.0732 5.65057C12.2417 5.98958 12.326 6.38542 12.326 6.83807C12.326 7.28883 12.2417 7.68277 12.0732 8.01989C11.9046 8.35701 11.6679 8.61932 11.3629 8.80682C11.058 8.99432 10.701 9.08807 10.2919 9.08807ZM10.2947 8.375C10.5599 8.375 10.7796 8.30492 10.9538 8.16477C11.1281 8.02462 11.2569 7.83807 11.3402 7.60511C11.4254 7.37216 11.468 7.11553 11.468 6.83523C11.468 6.55682 11.4254 6.30114 11.3402 6.06818C11.2569 5.83333 11.1281 5.64489 10.9538 5.50284C10.7796 5.3608 10.5599 5.28977 10.2947 5.28977C10.0277 5.28977 9.80611 5.3608 9.62997 5.50284C9.45573 5.64489 9.32599 5.83333 9.24077 6.06818C9.15743 6.30114 9.11577 6.55682 9.11577 6.83523C9.11577 7.11553 9.15743 7.37216 9.24077 7.60511C9.32599 7.83807 9.45573 8.02462 9.62997 8.16477C9.80611 8.30492 10.0277 8.375 10.2947 8.375ZM13.2741 9V4.63636H14.0895V5.34659H14.1435C14.2344 5.10606 14.383 4.91856 14.5895 4.78409C14.7959 4.64773 15.0431 4.57955 15.331 4.57955C15.6226 4.57955 15.867 4.64773 16.0639 4.78409C16.2628 4.92045 16.4096 5.10795 16.5043 5.34659H16.5497C16.6539 5.11364 16.8196 4.92803 17.0469 4.78977C17.2741 4.64962 17.545 4.57955 17.8594 4.57955C18.2552 4.57955 18.5781 4.7036 18.8281 4.9517C19.08 5.19981 19.206 5.57386 19.206 6.07386V9H18.3565V6.15341C18.3565 5.85795 18.276 5.64394 18.1151 5.51136C17.9541 5.37879 17.7618 5.3125 17.5384 5.3125C17.2618 5.3125 17.0469 5.39773 16.8935 5.56818C16.7401 5.73674 16.6634 5.9536 16.6634 6.21875V9H15.8168V6.09943C15.8168 5.86269 15.7429 5.67235 15.5952 5.52841C15.4474 5.38447 15.2552 5.3125 15.0185 5.3125C14.8575 5.3125 14.7088 5.35511 14.5724 5.44034C14.438 5.52367 14.3291 5.64015 14.2457 5.78977C14.1643 5.93939 14.1236 6.11269 14.1236 6.30966V9H13.2741ZM20.3445 9V4.63636H21.1939V9H20.3445ZM20.7734 3.96307C20.6257 3.96307 20.4988 3.91383 20.3928 3.81534C20.2886 3.71496 20.2365 3.59564 20.2365 3.45739C20.2365 3.31723 20.2886 3.19792 20.3928 3.09943C20.4988 2.99905 20.6257 2.94886 20.7734 2.94886C20.9212 2.94886 21.0471 2.99905 21.1513 3.09943C21.2573 3.19792 21.3104 3.31723 21.3104 3.45739C21.3104 3.59564 21.2573 3.71496 21.1513 3.81534C21.0471 3.91383 20.9212 3.96307 20.7734 3.96307ZM23.1861 6.40909V9H22.3366V4.63636H23.152V5.34659H23.206C23.3063 5.11553 23.4635 4.92992 23.6776 4.78977C23.8935 4.64962 24.1652 4.57955 24.4929 4.57955C24.7902 4.57955 25.0507 4.64205 25.2741 4.76705C25.4976 4.89015 25.6709 5.07386 25.794 5.31818C25.9171 5.5625 25.9787 5.86458 25.9787 6.22443V9H25.1293V6.3267C25.1293 6.01042 25.0469 5.76326 24.8821 5.58523C24.7173 5.4053 24.491 5.31534 24.2031 5.31534C24.0062 5.31534 23.831 5.35795 23.6776 5.44318C23.526 5.52841 23.4058 5.65341 23.3168 5.81818C23.2296 5.98106 23.1861 6.17803 23.1861 6.40909ZM28.9474 10.7273C28.6009 10.7273 28.3026 10.6818 28.0526 10.5909C27.8045 10.5 27.6018 10.3797 27.4446 10.2301C27.2874 10.0805 27.17 9.91667 27.0923 9.73864L27.8224 9.4375C27.8736 9.52083 27.9418 9.6089 28.027 9.7017C28.1141 9.7964 28.2315 9.87689 28.3793 9.94318C28.5289 10.0095 28.7211 10.0426 28.956 10.0426C29.2779 10.0426 29.544 9.96402 29.7543 9.80682C29.9645 9.65152 30.0696 9.40341 30.0696 9.0625V8.20455H30.0156C29.9645 8.29735 29.8906 8.40057 29.794 8.5142C29.6993 8.62784 29.5687 8.72633 29.402 8.80966C29.2353 8.89299 29.0185 8.93466 28.7514 8.93466C28.4067 8.93466 28.0961 8.85417 27.8196 8.69318C27.545 8.5303 27.3272 8.29072 27.1662 7.97443C27.0071 7.65625 26.9276 7.26515 26.9276 6.80114C26.9276 6.33712 27.0062 5.93939 27.1634 5.60795C27.3224 5.27652 27.5402 5.02273 27.8168 4.84659C28.0933 4.66856 28.4067 4.57955 28.7571 4.57955C29.0279 4.57955 29.2467 4.625 29.4134 4.71591C29.58 4.80492 29.7098 4.90909 29.8026 5.02841C29.8973 5.14773 29.9702 5.25284 30.0213 5.34375H30.0838V4.63636H30.9162V9.09659C30.9162 9.47159 30.8291 9.77936 30.6548 10.0199C30.4806 10.2604 30.2448 10.4384 29.9474 10.554C29.652 10.6695 29.3187 10.7273 28.9474 10.7273ZM28.9389 8.23011C29.1832 8.23011 29.3897 8.1733 29.5582 8.05966C29.7287 7.94413 29.8575 7.77936 29.9446 7.56534C30.0336 7.34943 30.0781 7.09091 30.0781 6.78977C30.0781 6.49621 30.0346 6.23769 29.9474 6.0142C29.8603 5.79072 29.7325 5.61648 29.5639 5.49148C29.3954 5.36458 29.187 5.30114 28.9389 5.30114C28.6832 5.30114 28.4702 5.36742 28.2997 5.5C28.1293 5.63068 28.0005 5.80871 27.9134 6.03409C27.8281 6.25947 27.7855 6.51136 27.7855 6.78977C27.7855 7.07576 27.8291 7.3267 27.9162 7.54261C28.0033 7.75852 28.1321 7.92708 28.3026 8.0483C28.4749 8.16951 28.687 8.23011 28.9389 8.23011ZM37.4425 5.7017L36.6726 5.83807C36.6404 5.73958 36.5893 5.64583 36.5192 5.55682C36.451 5.4678 36.3582 5.39489 36.2408 5.33807C36.1233 5.28125 35.9766 5.25284 35.8004 5.25284C35.5599 5.25284 35.3591 5.30682 35.1982 5.41477C35.0372 5.52083 34.9567 5.65814 34.9567 5.8267C34.9567 5.97254 35.0107 6.08996 35.1186 6.17898C35.2266 6.26799 35.4008 6.34091 35.6413 6.39773L36.3345 6.55682C36.736 6.64962 37.0353 6.79261 37.2322 6.9858C37.4292 7.17898 37.5277 7.42992 37.5277 7.73864C37.5277 8 37.4519 8.23295 37.3004 8.4375C37.1508 8.64015 36.9415 8.79924 36.6726 8.91477C36.4055 9.0303 36.0959 9.08807 35.7436 9.08807C35.255 9.08807 34.8563 8.9839 34.5476 8.77557C34.2389 8.56534 34.0495 8.26705 33.9794 7.88068L34.8004 7.75568C34.8516 7.9697 34.9567 8.13163 35.1158 8.24148C35.2749 8.34943 35.4822 8.40341 35.7379 8.40341C36.0163 8.40341 36.2389 8.34564 36.4055 8.23011C36.5722 8.11269 36.6555 7.9697 36.6555 7.80114C36.6555 7.66477 36.6044 7.55019 36.5021 7.45739C36.4018 7.36458 36.2474 7.29451 36.0391 7.24716L35.3004 7.08523C34.8932 6.99242 34.5921 6.8447 34.397 6.64205C34.2038 6.43939 34.1072 6.18277 34.1072 5.87216C34.1072 5.61458 34.1792 5.3892 34.3232 5.19602C34.4671 5.00284 34.666 4.85227 34.9197 4.74432C35.1735 4.63447 35.4643 4.57955 35.7919 4.57955C36.2635 4.57955 36.6347 4.68182 36.9055 4.88636C37.1764 5.08902 37.3554 5.3608 37.4425 5.7017ZM40.2997 9.08807C39.8906 9.08807 39.5336 8.99432 39.2287 8.80682C38.9238 8.61932 38.687 8.35701 38.5185 8.01989C38.3499 7.68277 38.2656 7.28883 38.2656 6.83807C38.2656 6.38542 38.3499 5.98958 38.5185 5.65057C38.687 5.31155 38.9238 5.0483 39.2287 4.8608C39.5336 4.6733 39.8906 4.57955 40.2997 4.57955C40.7088 4.57955 41.0658 4.6733 41.3707 4.8608C41.6757 5.0483 41.9124 5.31155 42.081 5.65057C42.2495 5.98958 42.3338 6.38542 42.3338 6.83807C42.3338 7.28883 42.2495 7.68277 42.081 8.01989C41.9124 8.35701 41.6757 8.61932 41.3707 8.80682C41.0658 8.99432 40.7088 9.08807 40.2997 9.08807ZM40.3026 8.375C40.5677 8.375 40.7874 8.30492 40.9616 8.16477C41.1359 8.02462 41.2647 7.83807 41.348 7.60511C41.4332 7.37216 41.4759 7.11553 41.4759 6.83523C41.4759 6.55682 41.4332 6.30114 41.348 6.06818C41.2647 5.83333 41.1359 5.64489 40.9616 5.50284C40.7874 5.3608 40.5677 5.28977 40.3026 5.28977C40.0355 5.28977 39.8139 5.3608 39.6378 5.50284C39.4635 5.64489 39.3338 5.83333 39.2486 6.06818C39.1652 6.30114 39.1236 6.55682 39.1236 6.83523C39.1236 7.11553 39.1652 7.37216 39.2486 7.60511C39.3338 7.83807 39.4635 8.02462 39.6378 8.16477C39.8139 8.30492 40.0355 8.375 40.3026 8.375ZM45.12 9.08807C44.7109 9.08807 44.3539 8.99432 44.049 8.80682C43.7441 8.61932 43.5073 8.35701 43.3388 8.01989C43.1702 7.68277 43.0859 7.28883 43.0859 6.83807C43.0859 6.38542 43.1702 5.98958 43.3388 5.65057C43.5073 5.31155 43.7441 5.0483 44.049 4.8608C44.3539 4.6733 44.7109 4.57955 45.12 4.57955C45.5291 4.57955 45.8861 4.6733 46.1911 4.8608C46.496 5.0483 46.7327 5.31155 46.9013 5.65057C47.0698 5.98958 47.1541 6.38542 47.1541 6.83807C47.1541 7.28883 47.0698 7.68277 46.9013 8.01989C46.7327 8.35701 46.496 8.61932 46.1911 8.80682C45.8861 8.99432 45.5291 9.08807 45.12 9.08807ZM45.1229 8.375C45.388 8.375 45.6077 8.30492 45.782 8.16477C45.9562 8.02462 46.085 7.83807 46.1683 7.60511C46.2536 7.37216 46.2962 7.11553 46.2962 6.83523C46.2962 6.55682 46.2536 6.30114 46.1683 6.06818C46.085 5.83333 45.9562 5.64489 45.782 5.50284C45.6077 5.3608 45.388 5.28977 45.1229 5.28977C44.8558 5.28977 44.6342 5.3608 44.4581 5.50284C44.2839 5.64489 44.1541 5.83333 44.0689 6.06818C43.9856 6.30114 43.9439 6.55682 43.9439 6.83523C43.9439 7.11553 43.9856 7.37216 44.0689 7.60511C44.1541 7.83807 44.2839 8.02462 44.4581 8.16477C44.6342 8.30492 44.8558 8.375 45.1229 8.375ZM48.9517 6.40909V9H48.1023V4.63636H48.9176V5.34659H48.9716C49.072 5.11553 49.2292 4.92992 49.4432 4.78977C49.6591 4.64962 49.9309 4.57955 50.2585 4.57955C50.5559 4.57955 50.8163 4.64205 51.0398 4.76705C51.2633 4.89015 51.4366 5.07386 51.5597 5.31818C51.6828 5.5625 51.7443 5.86458 51.7443 6.22443V9H50.8949V6.3267C50.8949 6.01042 50.8125 5.76326 50.6477 5.58523C50.483 5.4053 50.2566 5.31534 49.9688 5.31534C49.7718 5.31534 49.5966 5.35795 49.4432 5.44318C49.2917 5.52841 49.1714 5.65341 49.0824 5.81818C48.9953 5.98106 48.9517 6.17803 48.9517 6.40909Z" fill="white"/>
</svg>
