<svg width="151" height="151" viewBox="0 0 151 151" fill="none" xmlns="http://www.w3.org/2000/svg">
<path d="M35.735 108.142C42.2252 108.142 47.4865 102.88 47.4865 96.3902C47.4865 89.9 42.2252 84.6387 35.735 84.6387C29.2448 84.6387 23.9834 89.9 23.9834 96.3902C23.9834 102.88 29.2448 108.142 35.735 108.142Z" fill="#EBFFFF"/>
<path d="M115.465 108.142C121.956 108.142 127.217 102.88 127.217 96.3902C127.217 89.9 121.956 84.6387 115.465 84.6387C108.975 84.6387 103.714 89.9 103.714 96.3902C103.714 102.88 108.975 108.142 115.465 108.142Z" fill="#EBFFFF"/>
<path d="M141.277 137.48C134.504 119.316 134.75 119.491 115.367 119.491C110.609 119.491 107.035 119.48 104.246 119.738C99.4859 111.169 94.1362 111.275 75.5081 111.275C56.88 111.275 51.521 111.169 46.7585 119.738C43.9812 119.48 40.4069 119.491 35.6491 119.491C16.2546 119.491 16.5124 119.316 9.72726 137.48C8.36788 141.113 8.95382 141.945 12.821 141.945H58.4491H92.5402H138.185C142.051 141.945 142.637 141.101 141.277 137.48Z" fill="#EBFFFF"/>
<path d="M75.5001 101.386C84.3656 101.386 91.5524 94.1991 91.5524 85.3336C91.5524 76.4681 84.3656 69.2812 75.5001 69.2812C66.6346 69.2812 59.4478 76.4681 59.4478 85.3336C59.4478 94.1991 66.6346 101.386 75.5001 101.386Z" fill="#EBFFFF"/>
<path d="M35.7348 111.071C38.6385 111.071 41.4771 110.21 43.8914 108.597C46.3058 106.984 48.1875 104.691 49.2986 102.008C50.4098 99.3255 50.7005 96.3736 50.1339 93.5256C49.5673 90.6777 48.1689 88.0618 46.1156 86.0086C44.0623 83.9555 41.4462 82.5573 38.5983 81.9909C35.7503 81.4246 32.7984 81.7155 30.1157 82.8269C27.4331 83.9382 25.1403 85.8202 23.5272 88.2346C21.9142 90.6491 21.0533 93.4877 21.0536 96.3914C21.0579 100.284 22.6061 104.015 25.3585 106.767C28.1108 109.52 31.8426 111.067 35.7348 111.071ZM35.7348 87.5695C37.4796 87.5695 39.1852 88.0869 40.636 89.0563C42.0867 90.0257 43.2175 91.4034 43.8852 93.0154C44.5529 94.6274 44.7276 96.4012 44.3872 98.1125C44.0468 99.8237 43.2066 101.396 41.9728 102.629C40.7391 103.863 39.1672 104.703 37.4559 105.044C35.7446 105.384 33.9708 105.209 32.3588 104.542C30.7469 103.874 29.3691 102.743 28.3997 101.293C27.4303 99.8418 26.9129 98.1362 26.9129 96.3914C26.9154 94.0525 27.8457 91.81 29.4996 90.1561C31.1534 88.5023 33.3959 87.572 35.7348 87.5695ZM12.8165 144.874H58.4493H58.4774H92.511H92.5391H138.184C139.734 144.874 142.619 144.874 144.099 142.738C145.579 140.602 144.568 137.9 144.022 136.457L143.837 135.959C136.883 117.307 135.835 116.562 115.99 116.562H114.758C111.206 116.562 108.257 116.562 105.784 116.695C100.697 108.709 94.4001 108.35 76.3872 108.35H74.6235C56.6094 108.35 50.3071 108.71 45.2176 116.694C42.7485 116.563 39.7965 116.559 36.2528 116.562H35.0223C15.1801 116.562 14.129 117.307 7.17623 135.925L6.97935 136.453C6.4356 137.906 5.4231 140.611 6.90201 142.744C8.38092 144.877 11.2649 144.874 12.8165 144.874ZM114.758 122.421H115.918C124.318 122.414 128.989 122.421 131.387 124.083C133.784 125.745 135.404 130.1 138.351 138.005L138.54 138.51C138.609 138.695 138.668 138.861 138.719 139.008C138.562 139.008 138.386 139.015 138.188 139.015H114.704C114.552 137.572 114.194 136.159 113.641 134.817L113.377 134.114C111.628 129.427 110.17 125.596 108.78 122.46C110.539 122.422 112.524 122.421 114.758 122.421ZM53.0141 116.667C56.559 114.206 62.6704 114.198 74.7489 114.206H76.2629C88.3895 114.206 94.4434 114.206 97.9872 116.667C99.5258 117.841 100.776 119.35 101.643 121.079C101.659 121.11 101.675 121.139 101.693 121.17C103.507 124.432 105.304 129.24 107.887 136.159L108.152 136.868C108.411 137.531 108.625 138.21 108.793 138.901C108.086 138.989 107.375 139.028 106.663 139.018H44.3282C43.6199 139.03 42.9116 138.993 42.2083 138.908C42.3749 138.22 42.5879 137.544 42.8458 136.884L43.1106 136.174C45.7028 129.231 47.5051 124.412 49.3215 121.147L49.3426 121.107C50.2118 119.367 51.4677 117.848 53.0141 116.667ZM12.4672 138.505L12.6653 137.974C15.6114 130.085 17.2356 125.74 19.6274 124.08C22.0192 122.421 26.6305 122.427 35.0961 122.421H36.2563C38.4829 122.421 40.4751 122.421 42.2247 122.454C40.8325 125.593 39.3735 129.43 37.6227 134.12L37.3579 134.829C36.807 136.167 36.4499 137.576 36.2973 139.015H12.8165C12.6184 139.015 12.4426 139.015 12.2868 139.008C12.336 138.859 12.3969 138.691 12.4672 138.505ZM115.461 111.071C118.365 111.073 121.204 110.213 123.619 108.6C126.034 106.987 127.917 104.695 129.029 102.012C130.141 99.3297 130.433 96.3775 129.867 93.5292C129.301 90.6809 127.903 88.0644 125.85 86.0107C123.797 83.9569 121.181 82.5582 118.332 81.9914C115.484 81.4246 112.532 81.7151 109.849 82.8263C107.166 83.9375 104.873 85.8194 103.26 88.234C101.646 90.6486 100.785 93.4874 100.786 96.3914C100.79 100.283 102.338 104.013 105.089 106.765C107.84 109.517 111.57 111.066 115.461 111.071ZM115.461 87.5695C117.206 87.5693 118.912 88.0865 120.362 89.0557C121.813 90.0249 122.944 91.4026 123.612 93.0146C124.28 94.6266 124.455 96.4004 124.115 98.1118C123.774 99.8231 122.934 101.395 121.701 102.629C120.467 103.863 118.895 104.703 117.184 105.044C115.472 105.384 113.699 105.21 112.086 104.542C110.474 103.874 109.097 102.743 108.127 101.293C107.158 99.8419 106.64 98.1363 106.64 96.3914C106.643 94.0527 107.573 91.8104 109.226 90.1566C110.88 88.5027 113.122 87.5723 115.461 87.5695ZM75.5001 104.314C79.2548 104.314 82.9252 103.201 86.0472 101.115C89.1692 99.029 91.6025 96.064 93.0393 92.5951C94.4762 89.1262 94.8522 85.309 94.1197 81.6264C93.3871 77.9438 91.5791 74.5611 88.924 71.9061C86.269 69.2511 82.8863 67.443 79.2037 66.7105C75.5211 65.978 71.704 66.3539 68.2351 67.7908C64.7661 69.2277 61.8012 71.661 59.7151 74.7829C57.6291 77.9049 56.5157 81.5753 56.5157 85.3301C56.5206 90.3635 58.5224 95.1894 62.0816 98.7486C65.6407 102.308 70.4666 104.309 75.5001 104.314ZM75.5001 72.2109C78.0959 72.2109 80.6335 72.9807 82.7919 74.4229C84.9503 75.8651 86.6326 77.9149 87.626 80.3132C88.6194 82.7115 88.8793 85.3505 88.3729 87.8965C87.8664 90.4425 86.6164 92.7812 84.7808 94.6167C82.9453 96.4523 80.6066 97.7023 78.0606 98.2087C75.5146 98.7152 72.8756 98.4553 70.4773 97.4619C68.0791 96.4685 66.0292 94.7862 64.587 92.6278C63.1448 90.4694 62.3751 87.9318 62.3751 85.3359C62.3785 81.856 63.7624 78.5196 66.2231 76.0589C68.6837 73.5983 72.0201 72.2144 75.5001 72.2109Z" fill="#00CCCC"/>
<path d="M131.949 62.8789V71.4336C131.949 76.2324 131.962 77.7688 129.913 78.9828C129.164 79.3935 128.322 79.6018 127.468 79.5872C126.615 79.5727 125.78 79.3356 125.046 78.8996C122.388 77.4376 119.432 76.6035 116.402 76.4613C113.373 76.3191 110.351 76.8726 107.568 78.0793C105.693 78.9296 103.562 79.0248 101.619 78.345C99.6751 77.6652 98.0681 76.2627 97.1316 74.4289C95.1213 70.4196 92.0364 67.0479 88.2211 64.69C84.4059 62.3321 80.0104 61.0809 75.5254 61.0759C71.0403 61.0709 66.6421 62.3124 62.8216 64.6618C59.0011 67.0112 55.9087 70.3761 53.8895 74.3809C52.9489 76.1964 51.3503 77.5841 49.4205 78.2601C47.4908 78.936 45.3757 78.8491 43.5078 78.0172C40.7227 76.8353 37.7046 76.3047 34.6834 76.4657C31.6621 76.6268 28.7175 77.4752 26.0738 78.9465C25.344 79.3771 24.5163 79.6139 23.6691 79.6344C22.822 79.6549 21.9838 79.4584 21.234 79.0637C19.0379 77.8438 19.0508 76.3496 19.0508 71.4336V62.8789C19.0508 55.7656 19.0156 55.8242 25.7188 53.4805H25.7305C29.75 52.0742 29.4102 52.3906 30.9336 48.418C31.2383 47.6211 31.5664 46.8242 31.918 46.0508C33.6406 42.1719 33.6523 42.6406 31.8125 38.8203L31.8008 38.8086C28.7188 32.4102 28.707 32.4688 33.7344 27.4531L37.4492 23.7383C40.2617 20.9258 41.4805 19.6836 43.1328 19.6836C44.4219 19.6836 45.9922 20.4453 48.8047 21.8047C52.6367 23.6445 52.168 23.6445 56.0469 21.9102C56.832 21.5703 57.6172 21.2422 58.4141 20.9375C60.4062 20.1758 61.3203 19.8828 61.9063 19.2734C62.4922 18.6641 62.7734 17.75 63.4777 15.732C64.1586 13.7821 65.4287 12.0921 67.1123 10.8958C68.7959 9.6995 70.8097 9.05612 72.875 9.05469H78.3477C85.2383 9.05469 85.2031 9.08984 87.5234 15.7344C88.9297 19.7539 88.6133 19.4141 92.5859 20.9375C93.3828 21.2422 94.168 21.5703 94.9531 21.9102C96.0655 22.5608 97.2896 22.998 98.5625 23.1992C99.418 23.1992 100.25 22.7422 102.195 21.8047C108.594 18.7227 108.535 18.7109 113.551 23.7383L117.266 27.4531C120.078 30.2656 121.32 31.4844 121.32 33.1367C121.32 34.4258 120.559 35.9961 119.199 38.8086C117.359 42.6406 117.359 42.1719 119.094 46.0508C119.434 46.8359 119.762 47.6211 120.066 48.418C121.59 52.4023 121.25 52.0742 125.27 53.4805H125.281C131.984 55.8242 131.949 55.7656 131.949 62.8789Z" fill="#EBF9FF"/>
<path d="M19.9167 76.1012C20.6759 75.9367 21.3387 75.4773 21.7593 74.8242C22.1799 74.1711 22.3239 73.3776 22.1596 72.6184C21.9791 71.1292 21.9191 69.6278 21.9803 68.1289V62.7676C21.8682 61.2019 21.9619 59.6284 22.2593 58.0871C23.6086 57.3074 25.0524 56.7041 26.5553 56.2918C26.6034 56.2777 26.6503 56.2625 26.6971 56.2461L27.31 56.0328C31.3026 54.6477 31.9307 54.0406 33.419 50.1219L33.671 49.4633C33.9717 48.675 34.28 47.9328 34.5956 47.2367L34.878 46.6039C36.5854 42.7871 36.5714 41.9164 34.7421 38.1453L34.4526 37.5465C34.4268 37.4938 34.3999 37.441 34.3706 37.3906C33.5974 36.0446 33.0063 34.602 32.6128 33.1004C33.5148 31.773 34.5873 30.5697 35.8026 29.5215L39.6405 25.6953C41.0831 24.2516 42.719 22.6156 43.135 22.6156C44.6727 23.0433 46.1518 23.6589 47.5389 24.4484L48.1682 24.752C51.9358 26.5742 52.8065 26.5848 56.6397 24.8586L57.2128 24.602C57.9593 24.2785 58.7057 23.9656 59.4616 23.6762L60.1272 23.4242C61.5615 23.0307 62.8865 22.3135 64.0003 21.3277C64.9834 20.1654 65.6802 18.7887 66.0346 17.3082L66.2913 16.5711C66.7033 15.065 67.3071 13.618 68.0878 12.2656C69.6311 11.9662 71.2073 11.8724 72.7753 11.9867H78.3475C79.8766 11.8794 81.4132 11.9731 82.9178 12.2656C83.7016 13.6146 84.3052 15.0605 84.7132 16.5664L84.9745 17.3164C86.3596 21.309 86.9667 21.9371 90.8866 23.4254L91.5417 23.675C92.2999 23.9656 93.0464 24.2785 93.7589 24.5867L94.3542 24.8539C95.6473 25.5837 97.0852 26.0198 98.5659 26.1313C100.085 26.0138 101.555 25.5384 102.855 24.7438L103.572 24.3922C105.467 23.4781 107.416 22.5254 107.908 22.6145C109.232 23.5208 110.431 24.5959 111.476 25.8125L115.307 29.6434C116.75 31.0859 118.39 32.7266 118.39 33.1367C117.962 34.6742 117.347 36.1533 116.558 37.5406L116.255 38.1688C114.432 41.9363 114.421 42.8082 116.148 46.6426L116.405 47.2145C116.729 47.9598 117.04 48.7063 117.33 49.4645L117.575 50.109C119.064 54.0383 119.684 54.6465 123.659 56.0223L124.303 56.2461C124.348 56.2613 124.394 56.2766 124.441 56.2895C125.944 56.702 127.388 57.3058 128.738 58.0859C129.039 59.6643 129.133 61.2751 129.017 62.8777V68.1277C129.078 69.6266 129.018 71.128 128.838 72.6172C128.746 72.9967 128.731 73.3907 128.794 73.776C128.857 74.1613 128.997 74.5301 129.204 74.8608C129.411 75.1915 129.683 75.4775 130.002 75.7018C130.322 75.9261 130.683 76.0843 131.065 76.1671C131.446 76.2499 131.84 76.2556 132.224 76.1838C132.608 76.1121 132.973 75.9644 133.299 75.7494C133.625 75.5345 133.905 75.2565 134.122 74.9319C134.338 74.6074 134.488 74.2427 134.562 73.8594C134.857 71.9648 134.962 70.0455 134.875 68.1301V62.7676C134.875 54.5762 134.081 53.4547 126.373 50.7594L126.244 50.7148C126.198 50.6984 126.151 50.6832 126.103 50.6691L125.575 50.4863C124.965 50.2918 124.365 50.0657 123.779 49.809C123.505 49.23 123.262 48.637 123.05 48.0324L122.803 47.375C122.483 46.5383 122.139 45.7145 121.768 44.8578L121.491 44.2391C121.212 43.6592 120.963 43.0651 120.746 42.459C120.977 41.8668 121.238 41.2871 121.53 40.7223L121.853 40.0508C123.398 36.8551 124.25 35.0938 124.25 33.1367C124.25 30.2938 122.546 28.5898 119.453 25.4984L115.55 21.5938C109.762 15.7918 108.401 15.5609 100.923 19.1645L100.293 19.4703C99.7261 19.7625 99.1445 20.0257 98.5507 20.259C97.9408 20.0413 97.343 19.7909 96.76 19.509L96.1167 19.2207C95.2964 18.8633 94.469 18.5176 93.6346 18.2L92.9632 17.9445C92.3619 17.734 91.7724 17.4915 91.1971 17.218C90.9339 16.622 90.7034 16.0121 90.5069 15.391L90.2409 14.6316C87.5491 6.91953 86.437 6.125 78.3475 6.125H72.7624C64.5721 6.125 63.4495 6.92187 60.7565 14.6387L60.4952 15.391C60.2104 16.2113 59.9175 17.0609 59.8495 17.1934C59.2668 17.4823 58.6654 17.732 58.0495 17.941L57.3663 18.2012C56.5307 18.5211 55.7057 18.8645 54.8503 19.2359L54.2315 19.5137C53.6518 19.7924 53.0581 20.0407 52.4526 20.2578C51.8611 20.0267 51.2818 19.7655 50.7171 19.475L50.0432 19.1492C46.8475 17.6047 45.0874 16.7539 43.1292 16.7539C40.2874 16.7539 38.5835 18.4566 35.4921 21.5492L31.5885 25.4516C25.7854 31.2406 25.5534 32.6 29.1581 40.0801C29.1839 40.1328 29.2108 40.1867 29.2413 40.2395L29.4663 40.7082C29.7634 41.2753 30.0302 41.8577 30.2655 42.4531C30.0533 43.0515 29.8096 43.6383 29.5354 44.2109L29.2565 44.8344C28.905 45.616 28.5464 46.4691 28.2018 47.3668L27.9464 48.0371C27.7356 48.6388 27.4926 49.2287 27.2186 49.8043C26.6228 50.0669 26.0134 50.2973 25.3928 50.4945L24.9007 50.6656C24.8514 50.6797 24.8034 50.6961 24.7553 50.7125L24.6264 50.757C16.919 53.4524 16.1245 54.5738 16.1245 62.8766V68.1266C16.0372 70.0432 16.142 71.9637 16.4374 73.8594C16.6022 74.6176 17.0611 75.2795 17.7134 75.6998C18.3657 76.1201 19.1581 76.2645 19.9167 76.1012Z" fill="#002736"/>
<path d="M95.8997 61.8308C96.0349 62.596 96.4685 63.2762 97.1052 63.7216C97.7418 64.1671 98.5294 64.3414 99.2946 64.2062C100.06 64.071 100.74 63.6374 101.185 63.0007C101.631 62.364 101.805 61.5765 101.67 60.8113C100.572 54.6692 97.3487 49.1089 92.5643 45.1039C87.7798 41.0989 81.7392 38.9043 75.4997 38.9043C69.2602 38.9043 63.2195 41.0989 58.4351 45.1039C53.6507 49.1089 50.4273 54.6692 49.3294 60.8113C49.1942 61.5765 49.3685 62.364 49.814 63.0007C50.2594 63.6374 50.9396 64.071 51.7048 64.2062C52.47 64.3414 53.2575 64.1671 53.8942 63.7216C54.5309 63.2762 54.9645 62.596 55.0997 61.8308C55.957 57.0442 58.4702 52.7114 62.1995 49.5906C65.9289 46.4699 70.6369 44.7599 75.4997 44.7599C80.3625 44.7599 85.0705 46.4699 88.7998 49.5906C92.5292 52.7114 95.0424 57.0442 95.8997 61.8308Z" fill="#002736"/>
</svg>
