<svg width="32" height="32" viewBox="0 0 32 32" fill="none" xmlns="http://www.w3.org/2000/svg">
<path d="M7.51676 23.5884C8.13622 23.5884 8.74177 23.4047 9.25683 23.0605C9.77189 22.7164 10.1733 22.2272 10.4104 21.6549C10.6474 21.0826 10.7094 20.4528 10.5886 19.8453C10.4677 19.2377 10.1694 18.6796 9.73133 18.2416C9.29328 17.8036 8.73519 17.5053 8.12763 17.3845C7.52006 17.2637 6.89031 17.3258 6.31802 17.5629C5.74572 17.7999 5.25659 18.2014 4.91247 18.7165C4.56835 19.2316 4.38471 19.8372 4.38476 20.4566C4.38568 21.287 4.71597 22.0831 5.30314 22.6702C5.89031 23.2573 6.6864 23.5875 7.51676 23.5884ZM7.51676 18.5746C7.88898 18.5746 8.25285 18.685 8.56234 18.8918C8.87183 19.0986 9.11305 19.3925 9.2555 19.7364C9.39794 20.0803 9.43521 20.4587 9.36259 20.8238C9.28998 21.1889 9.11073 21.5242 8.84753 21.7874C8.58433 22.0506 8.24899 22.2298 7.88392 22.3025C7.51884 22.3751 7.14044 22.3378 6.79655 22.1954C6.45265 22.0529 6.15873 21.8117 5.95193 21.5022C5.74513 21.1927 5.63476 20.8289 5.63476 20.4566C5.63528 19.9577 5.83374 19.4793 6.18657 19.1264C6.53939 18.7736 7.01778 18.5752 7.51676 18.5746ZM2.62751 30.7996H12.3625H12.3685H19.629H19.635H29.3725C29.7033 30.7996 30.3188 30.7996 30.6345 30.3439C30.9503 29.8881 30.7345 29.3119 30.618 29.0039L30.5785 28.8976C29.095 24.9186 28.8715 24.7596 24.6378 24.7596H24.375C23.6173 24.7596 22.9883 24.7596 22.4605 24.7881C21.3753 23.0844 20.032 23.0079 16.1893 23.0079H15.813C11.97 23.0079 10.6255 23.0846 9.53976 24.7879C9.01301 24.7599 8.38326 24.7591 7.62726 24.7596H7.36476C3.13176 24.7596 2.90751 24.9186 1.42426 28.8904L1.38226 29.0031C1.26626 29.3131 1.05026 29.8901 1.36576 30.3451C1.68126 30.8001 2.29651 30.7996 2.62751 30.7996ZM24.375 26.0096H24.6225C26.4145 26.0081 27.411 26.0096 27.9225 26.3641C28.434 26.7186 28.7795 27.6479 29.4083 29.3341L29.4485 29.4419C29.4633 29.4814 29.4758 29.5169 29.4868 29.5481C29.4533 29.5481 29.4158 29.5496 29.3735 29.5496H24.3635C24.331 29.2418 24.2547 28.9403 24.1368 28.6541L24.0805 28.5041C23.7073 27.5041 23.3963 26.6869 23.0998 26.0179C23.475 26.0099 23.8985 26.0096 24.375 26.0096ZM11.203 24.7821C11.9593 24.2571 13.263 24.2554 15.8398 24.2571H16.1628C18.7498 24.2571 20.0413 24.2571 20.7973 24.7821C21.1255 25.0324 21.3923 25.3544 21.5773 25.7234C21.5805 25.7299 21.584 25.7361 21.5878 25.7426C21.9748 26.4386 22.3583 27.4644 22.9093 28.9404L22.9658 29.0916C23.021 29.233 23.0667 29.3779 23.1025 29.5254C22.9518 29.5441 22.7999 29.5525 22.648 29.5504H9.35001C9.1989 29.5528 9.0478 29.5449 8.89776 29.5269C8.93331 29.3801 8.97875 29.2358 9.03376 29.0951L9.09026 28.9436C9.64326 27.4624 10.0278 26.4344 10.4153 25.7379L10.4198 25.7294C10.6052 25.358 10.8731 25.034 11.203 24.7821ZM2.55301 29.4409L2.59526 29.3276C3.22376 27.6446 3.57026 26.7176 4.08051 26.3636C4.59076 26.0096 5.57451 26.0109 7.38051 26.0096H7.62801C8.10301 26.0096 8.52801 26.0096 8.90126 26.0166C8.60426 26.6864 8.29301 27.5049 7.91951 28.5054L7.86301 28.6566C7.74549 28.942 7.6693 29.2427 7.63676 29.5496H2.62751C2.58526 29.5496 2.54776 29.5496 2.51451 29.5481C2.52501 29.5164 2.53801 29.4806 2.55301 29.4409ZM24.525 23.5884C25.1445 23.5886 25.7502 23.4051 26.2654 23.0611C26.7806 22.7171 27.1823 22.228 27.4195 21.6557C27.6567 21.0835 27.7189 20.4537 27.5982 19.846C27.4775 19.2384 27.1793 18.6802 26.7413 18.2421C26.3033 17.8039 25.7452 17.5055 25.1376 17.3846C24.53 17.2637 23.9002 17.3257 23.3278 17.5627C22.7554 17.7998 22.2662 18.2013 21.9221 18.7164C21.5779 19.2315 21.3942 19.8371 21.3943 20.4566C21.3952 21.2867 21.7254 22.0826 22.3123 22.6697C22.8992 23.2567 23.6949 23.5871 24.525 23.5884ZM24.525 18.5746C24.8972 18.5746 25.2611 18.6849 25.5707 18.8917C25.8802 19.0984 26.1214 19.3924 26.2639 19.7362C26.4064 20.0801 26.4437 20.4585 26.3711 20.8236C26.2985 21.1887 26.1193 21.5241 25.8561 21.7873C25.5929 22.0505 25.2576 22.2298 24.8925 22.3024C24.5274 22.3751 24.149 22.3378 23.8051 22.1954C23.4612 22.053 23.1673 21.8117 22.9604 21.5022C22.7536 21.1927 22.6433 20.8289 22.6433 20.4566C22.6438 19.9577 22.8422 19.4793 23.195 19.1265C23.5478 18.7737 24.0261 18.5752 24.525 18.5746ZM16 22.1469C16.801 22.1469 17.584 21.9093 18.2501 21.4643C18.9161 21.0193 19.4352 20.3868 19.7417 19.6467C20.0483 18.9067 20.1285 18.0924 19.9722 17.3068C19.8159 16.5211 19.4302 15.7995 18.8638 15.2331C18.2974 14.6667 17.5757 14.281 16.7901 14.1247C16.0045 13.9684 15.1902 14.0486 14.4501 14.3552C13.7101 14.6617 13.0776 15.1808 12.6326 15.8468C12.1875 16.5128 11.95 17.2959 11.95 18.0969C11.9511 19.1707 12.3781 20.2002 13.1374 20.9595C13.8967 21.7188 14.9262 22.1458 16 22.1469ZM16 15.2981C16.5538 15.2981 17.0951 15.4623 17.5556 15.77C18.0161 16.0777 18.3749 16.515 18.5869 17.0266C18.7988 17.5382 18.8542 18.1012 18.7462 18.6444C18.6382 19.1875 18.3715 19.6864 17.9799 20.078C17.5883 20.4696 17.0894 20.7363 16.5463 20.8443C16.0031 20.9524 15.4401 20.8969 14.9285 20.685C14.4169 20.4731 13.9796 20.1142 13.6719 19.6537C13.3642 19.1933 13.2 18.6519 13.2 18.0981C13.2007 17.3557 13.496 16.644 14.0209 16.119C14.5459 15.5941 15.2576 15.2989 16 15.2981Z" fill="#1D2E2E"/>
<path d="M4.14225 16.1284C4.30422 16.0933 4.44562 15.9954 4.53535 15.856C4.62508 15.7167 4.6558 15.5474 4.62075 15.3854C4.58223 15.0677 4.56944 14.7475 4.5825 14.4277V13.2839C4.55857 12.9499 4.57858 12.6142 4.642 12.2854C4.92987 12.1191 5.23788 11.9904 5.5585 11.9024C5.56875 11.8994 5.57875 11.8962 5.58875 11.8927L5.7195 11.8472C6.57125 11.5517 6.70525 11.4222 7.02275 10.5862L7.0765 10.4457C7.14067 10.2775 7.20642 10.1192 7.27375 9.9707L7.334 9.8357C7.69825 9.02145 7.69525 8.8357 7.305 8.0312L7.24325 7.90345C7.23775 7.8922 7.232 7.88095 7.22575 7.8702C7.0608 7.58305 6.9347 7.27528 6.85075 6.95495C7.04319 6.67176 7.27198 6.41507 7.53125 6.19145L8.35 5.3752C8.65775 5.0672 9.00675 4.7182 9.0955 4.7182C9.42354 4.80943 9.73909 4.94076 10.035 5.1092L10.1693 5.17395C10.973 5.5627 11.1588 5.56495 11.9765 5.1967L12.0988 5.14195C12.258 5.07295 12.4173 5.0062 12.5785 4.94445L12.7205 4.8907C13.0265 4.80675 13.3092 4.65374 13.5468 4.44345C13.7565 4.19548 13.9051 3.90178 13.9808 3.58595L14.0355 3.4287C14.1234 3.10739 14.2522 2.79869 14.4188 2.5102C14.748 2.44632 15.0843 2.42631 15.4188 2.4507H16.6075C16.9337 2.4278 17.2615 2.4478 17.5825 2.5102C17.7497 2.79798 17.8785 3.10644 17.9655 3.4277L18.0213 3.5877C18.3168 4.43945 18.4463 4.57345 19.2825 4.89095L19.4223 4.9442C19.584 5.0062 19.7433 5.07295 19.8953 5.1387L20.0223 5.1957C20.2981 5.35138 20.6049 5.44441 20.9208 5.46819C21.2448 5.44315 21.5584 5.34171 21.8358 5.1722L21.9888 5.0972C22.393 4.9022 22.8088 4.69895 22.9138 4.71795C23.1961 4.91129 23.452 5.14065 23.675 5.4002L24.4923 6.21745C24.8 6.5252 25.15 6.8752 25.15 6.9627C25.0586 7.2907 24.9273 7.60623 24.759 7.90219L24.6945 8.0362C24.3055 8.83995 24.3033 9.02595 24.6715 9.84395L24.7265 9.96595C24.7955 10.1249 24.862 10.2842 24.9238 10.4459L24.976 10.5834C25.2938 11.4217 25.426 11.5514 26.274 11.8449L26.4113 11.8927C26.421 11.8959 26.4308 11.8992 26.4408 11.9019C26.7615 11.99 27.0696 12.1188 27.3575 12.2852C27.4217 12.6219 27.4417 12.9656 27.417 13.3074V14.4274C27.4301 14.7472 27.4173 15.0675 27.3788 15.3852C27.3592 15.4662 27.3561 15.5502 27.3695 15.6324C27.3829 15.7146 27.4126 15.7933 27.4569 15.8638C27.5011 15.9344 27.559 15.9954 27.6272 16.0432C27.6954 16.0911 27.7724 16.1248 27.8538 16.1425C27.9352 16.1602 28.0193 16.1614 28.1012 16.1461C28.183 16.1308 28.261 16.0993 28.3305 16.0534C28.4 16.0075 28.4597 15.9482 28.506 15.879C28.5522 15.8098 28.5842 15.732 28.6 15.6502C28.663 15.246 28.6853 14.8366 28.6668 14.4279V13.2839C28.6668 11.5364 28.4973 11.2972 26.853 10.7222L26.8255 10.7127C26.8155 10.7092 26.8055 10.7059 26.7953 10.7029L26.6828 10.6639C26.5526 10.6224 26.4247 10.5742 26.2995 10.5194C26.2411 10.3959 26.1892 10.2694 26.144 10.1404L26.0913 10.0002C26.023 9.8217 25.9498 9.64595 25.8705 9.4632L25.8115 9.3312C25.7519 9.2075 25.6988 9.08074 25.6525 8.95145C25.7017 8.82511 25.7576 8.70144 25.8198 8.58095L25.8888 8.4377C26.2183 7.75595 26.4 7.3802 26.4 6.9627C26.4 6.35619 26.0365 5.9927 25.3768 5.3332L24.544 4.5002C23.3093 3.26245 23.019 3.2132 21.4235 3.98195L21.2893 4.0472C21.1683 4.10952 21.0442 4.16568 20.9175 4.21545C20.7874 4.169 20.6599 4.11559 20.5355 4.05545L20.3983 3.99395C20.2233 3.9177 20.0468 3.84395 19.8688 3.7762L19.7255 3.7217C19.5972 3.67679 19.4715 3.62505 19.3488 3.5667C19.2926 3.43957 19.2434 3.30945 19.2015 3.17695L19.1448 3.01495C18.5705 1.3697 18.3333 1.2002 16.6075 1.2002H15.416C13.6688 1.2002 13.4293 1.3702 12.8548 3.01645L12.799 3.17695C12.7383 3.35195 12.6758 3.5332 12.6613 3.56145C12.5369 3.62308 12.4087 3.67636 12.2773 3.72095L12.1315 3.77645C11.9533 3.8447 11.7773 3.91795 11.5948 3.9972L11.4628 4.05645C11.3391 4.1159 11.2124 4.16889 11.0833 4.2152C10.9571 4.1659 10.8335 4.11016 10.713 4.0482L10.5693 3.9787C9.8875 3.6492 9.512 3.4677 9.09425 3.4677C8.488 3.4677 8.1245 3.83095 7.465 4.4907L6.63225 5.3232C5.39425 6.5582 5.34475 6.8482 6.11375 8.44395C6.11925 8.4552 6.125 8.4667 6.1315 8.47795L6.1795 8.57795C6.24289 8.69892 6.29981 8.82318 6.35 8.9502C6.30473 9.07785 6.25274 9.20303 6.19425 9.3252L6.13475 9.4582C6.05975 9.62495 5.98325 9.80695 5.90975 9.99845L5.85525 10.1414C5.81028 10.2698 5.75846 10.3956 5.7 10.5184C5.5729 10.5745 5.44288 10.6236 5.3105 10.6657L5.2055 10.7022C5.195 10.7052 5.18475 10.7087 5.1745 10.7122L5.147 10.7217C3.50275 11.2967 3.33325 11.5359 3.33325 13.3072V14.4272C3.31463 14.8361 3.337 15.2458 3.4 15.6502C3.43517 15.812 3.53307 15.9532 3.67222 16.0428C3.81138 16.1325 3.98042 16.1633 4.14225 16.1284Z" fill="#1D2E2E"/>
<path d="M20.352 13.0843C20.3808 13.2476 20.4734 13.3927 20.6092 13.4877C20.745 13.5828 20.913 13.6199 21.0763 13.5911C21.2395 13.5623 21.3846 13.4697 21.4796 13.3339C21.5747 13.1981 21.6118 13.0301 21.583 12.8668C21.3488 11.5565 20.6611 10.3703 19.6405 9.51594C18.6198 8.66154 17.3311 8.19336 16 8.19336C14.6689 8.19336 13.3802 8.66154 12.3596 9.51594C11.3389 10.3703 10.6512 11.5565 10.417 12.8668C10.3882 13.0301 10.4254 13.1981 10.5204 13.3339C10.6154 13.4697 10.7605 13.5623 10.9238 13.5911C11.087 13.6199 11.255 13.5828 11.3908 13.4877C11.5267 13.3927 11.6192 13.2476 11.648 13.0843C11.8309 12.0632 12.367 11.1389 13.1626 10.4731C13.9582 9.80735 14.9626 9.44255 16 9.44255C17.0374 9.44255 18.0418 9.80735 18.8374 10.4731C19.633 11.1389 20.1691 12.0632 20.352 13.0843Z" fill="#1D2E2E"/>
</svg>
