<svg width="17" height="19" viewBox="0 0 17 19" fill="none" xmlns="http://www.w3.org/2000/svg">
<path d="M11.7736 7.23419L11.8178 7.23479C11.9819 7.24835 12.1076 7.38456 12.1163 7.54851L12.1121 7.63993L11.9723 9.35159L11.8257 11.022C11.7947 11.3554 11.7669 11.6367 11.7429 11.8581C11.6596 12.6297 11.1587 13.1069 10.4037 13.121C9.22714 13.1427 8.09621 13.1425 6.99796 13.1187C6.26474 13.1034 5.77127 12.621 5.68944 11.8612L5.63289 11.3015L5.53406 10.2156L5.43282 9.02408L5.31707 7.59377C5.30269 7.41026 5.43609 7.24954 5.61504 7.23478C5.77908 7.22126 5.92444 7.33509 5.95861 7.4955L5.97191 7.62659L6.0806 8.96748L6.19928 10.3573C6.25251 10.959 6.29868 11.4459 6.33562 11.788C6.38226 12.2209 6.61025 12.4438 7.01147 12.4522C8.10113 12.4758 9.22363 12.476 10.3919 12.4544C10.8175 12.4464 11.0491 12.2258 11.0968 11.7846L11.1531 11.2279C11.1695 11.0563 11.1872 10.8668 11.2058 10.6611L11.3246 9.29418L11.4677 7.54027C11.4809 7.37205 11.6137 7.24311 11.7736 7.23419ZM5.04137 6.46546C4.86184 6.46546 4.71631 6.31622 4.71631 6.13212C4.71631 5.96336 4.8386 5.82389 4.99726 5.80181L5.04137 5.79877H6.45752C6.6258 5.79877 6.77313 5.68773 6.82583 5.52773L6.83872 5.47833L6.94877 4.91708C7.04569 4.54536 7.3604 4.28071 7.7292 4.25086L7.79894 4.24805H9.63359C10.0085 4.24805 10.3396 4.49084 10.467 4.866L10.4885 4.93786L10.5938 5.47819C10.6268 5.64748 10.7619 5.77391 10.9252 5.7955L10.975 5.79877H12.3912C12.5708 5.79877 12.7163 5.94801 12.7163 6.13212C12.7163 6.30088 12.594 6.44035 12.4354 6.46242L12.3912 6.46546H5.04137ZM9.63359 4.91474H7.79894C7.70773 4.91474 7.62666 4.96948 7.59298 5.03828L7.58156 5.06851L7.47622 5.60911C7.46333 5.67509 7.44466 5.73863 7.42081 5.79921L10.0118 5.79929C9.99689 5.7615 9.98402 5.72255 9.97331 5.68257L9.95629 5.60897L9.8557 5.08929C9.83219 4.99912 9.75957 4.93311 9.67196 4.91801L9.63359 4.91474Z" fill="#D31717"/>
<rect x="1.21631" y="0.748047" width="15" height="16.8824" rx="3.5" stroke="#D31717"/>
</svg>
