<svg width="17" height="16" viewBox="0 0 17 16" fill="none" xmlns="http://www.w3.org/2000/svg">
<path d="M8.5 1.5C4.91013 1.5 2 4.41016 2 8C2 11.5898 4.91013 14.5 8.5 14.5C12.0898 14.5 15 11.5898 15 8C15 4.41016 12.0898 1.5 8.5 1.5ZM7.82659 13.5312C6.59334 13.3835 5.45228 12.8315 4.56038 11.9396C3.50806 10.8873 2.92856 9.48819 2.92856 8C2.92856 6.66031 3.39844 5.393 4.25984 4.38566C4.28203 4.65181 4.33681 4.93716 4.32278 5.14113C4.27153 5.88472 4.19816 6.35009 4.63341 6.97744C4.80297 7.22178 4.84463 7.57206 4.92716 7.85488C5.00788 8.13156 5.33034 8.27669 5.55275 8.44716C6.00147 8.79119 6.43075 9.19106 6.90656 9.49384C7.22059 9.69369 7.41675 9.79309 7.32478 10.1763C7.25081 10.4845 7.23016 10.6743 7.07072 10.9489C7.02206 11.0327 7.25437 11.5713 7.33169 11.6487C7.566 11.8829 7.7985 12.0979 8.05391 12.3088C8.44988 12.636 8.01544 13.0611 7.82659 13.5312ZM12.4396 11.9396C11.6386 12.7406 10.6365 13.2673 9.54722 13.4734C9.70159 13.0916 9.97647 12.7524 10.2314 12.5558C10.4532 12.3847 10.731 12.0555 10.8468 11.7948C10.9626 11.5344 11.1159 11.3087 11.2711 11.0693C11.4919 10.7287 10.7268 10.215 10.4788 10.1074C9.92091 9.86516 9.50091 9.53831 9.00506 9.18941C8.65178 8.94084 7.93453 9.31922 7.53569 9.14513C6.98941 8.90659 6.53934 8.49212 6.0645 8.13453C5.5745 7.7655 5.59819 7.33528 5.59819 6.79087C5.982 6.80503 6.528 6.68466 6.78281 6.99331C6.86322 7.09072 7.13969 7.52588 7.32475 7.37125C7.47594 7.24491 7.21272 6.73847 7.16187 6.61941C7.00547 6.25331 7.51825 6.11053 7.78072 5.86228C8.12322 5.53841 8.85791 5.03047 8.79984 4.79831C8.74178 4.56616 8.06472 3.90841 7.66706 4.01103C7.60747 4.02641 7.08278 4.57656 6.98141 4.66288C6.98409 4.48331 6.98678 4.30378 6.98953 4.12422C6.99125 4.01084 6.77803 3.89447 6.78794 3.82134C6.81294 3.63653 7.32737 3.30113 7.45534 3.15394C7.36569 3.09791 7.05975 2.83512 6.96716 2.87369C6.74297 2.96713 6.48978 3.0315 6.26559 3.12491C6.26559 3.04716 6.25616 2.97412 6.24491 2.902C6.69638 2.70228 7.17261 2.56405 7.66084 2.491L8.10097 2.66788L8.41172 3.03666L8.72184 3.35644L8.99294 3.44378L9.42353 3.03769L9.3125 2.74778V2.48719C10.1641 2.61087 10.9683 2.92856 11.6726 3.41844C11.5466 3.42972 11.4081 3.44825 11.2519 3.46813C11.1873 3.43 11.1046 3.41269 11.0342 3.38616C11.2383 3.82497 11.4512 4.25772 11.6675 4.69072C11.8985 5.15325 12.411 5.64938 12.501 6.13763C12.6071 6.71313 12.5335 7.23588 12.5915 7.91297C12.6474 8.565 13.3266 9.30584 13.3266 9.30584C13.3266 9.30584 13.6403 9.41269 13.9011 9.37547C13.658 10.3374 13.1595 11.2197 12.4396 11.9396Z" fill="#1D2E2E"/>
</svg>
