<svg width="32" height="32" viewBox="0 0 32 32" fill="none" xmlns="http://www.w3.org/2000/svg">
<circle cx="16" cy="16" r="16" fill="#00CCCC"/>
<path d="M24.2666 7.73328C23.9885 7.45506 23.6582 7.23436 23.2947 7.08379C22.9312 6.93321 22.5416 6.85571 22.1482 6.85571C21.7547 6.85571 21.3651 6.93321 21.0016 7.08379C20.6382 7.23436 20.3079 7.45506 20.0297 7.73328L8.76341 18.9996C8.42817 19.3348 8.18436 19.7508 8.05712 20.208L6.87845 24.4175C6.85122 24.5151 6.85042 24.6181 6.87613 24.7161C6.90185 24.8141 6.95315 24.9035 7.02479 24.9751C7.09643 25.0468 7.18582 25.0981 7.28381 25.1238C7.38181 25.1495 7.48487 25.1487 7.58245 25.1215L11.7912 23.9428C12.2483 23.8149 12.6647 23.5714 13.0004 23.2358L24.2666 11.9695C24.8283 11.4077 25.1438 10.6458 25.1438 9.85138C25.1438 9.05697 24.8283 8.29509 24.2666 7.73328ZM20.8381 8.5409C21.1856 8.19344 21.657 7.99828 22.1484 7.99836C22.6399 7.99843 23.1112 8.19372 23.4586 8.54128C23.8061 8.88884 24.0013 9.3602 24.0012 9.85165C24.0011 10.3431 23.8058 10.8144 23.4583 11.1619L22.2849 12.3344L19.6647 9.71347L20.8381 8.5409ZM18.8571 10.5219L21.4781 13.1428L12.192 22.4281C11.9953 22.6249 11.7513 22.7676 11.4834 22.8426L8.25217 23.747L9.15655 20.5165C9.2317 20.2487 9.37443 20.0047 9.57103 19.808L18.8571 10.5219Z" fill="white"/>
</svg>
