<svg width="48" height="48" viewBox="0 0 48 48" fill="none" xmlns="http://www.w3.org/2000/svg">
<path d="M15.75 29.541V42.567C15.75 44.073 16.437 44.637 16.848 44.835C17.256 45.036 18.117 45.228 19.254 44.283L22.224 41.808C23.202 40.989 24.861 40.989 25.842 41.808L28.809 44.28C29.478 44.835 30.048 45 30.489 45C30.7419 45.0023 30.9917 44.9447 31.218 44.832C31.629 44.631 32.316 44.07 32.316 42.564V29.484C34.1612 28.1107 35.6593 26.3245 36.6903 24.2683C37.7212 22.2122 38.2564 19.9432 38.253 17.643C38.253 9.57 31.86 3 24.003 3C16.146 3 9.75 9.57 9.75 17.643C9.75 22.554 12.132 26.88 15.75 29.541ZM30.813 42.567C30.813 43.125 30.669 43.395 30.57 43.443C30.471 43.494 30.174 43.437 29.754 43.083L26.784 40.611C25.266 39.348 22.791 39.348 21.279 40.611L18.312 43.083C17.889 43.434 17.589 43.491 17.496 43.443C17.397 43.395 17.253 43.125 17.253 42.567V30.459C19.269 31.587 21.546 32.289 24 32.289C26.481 32.289 28.779 31.575 30.813 30.426V42.567ZM24 4.542C31.029 4.542 36.75 10.422 36.75 17.643C36.756 19.8214 36.2214 21.9673 35.1941 23.8883C34.1669 25.8093 32.6791 27.4454 30.864 28.65H30.813V28.68C28.7932 30.0211 26.4245 30.7408 24 30.75C16.971 30.75 11.25 24.87 11.25 17.646C11.25 10.425 16.971 4.542 24 4.542Z" fill="#1D2E2E"/>
<path d="M31.4454 14.3932L27.1446 13.552L25.0155 9.72183C24.8941 9.50307 24.7164 9.32078 24.5008 9.19385C24.2851 9.06693 24.0395 9 23.7893 9C23.5391 9 23.2934 9.06693 23.0778 9.19385C22.8622 9.32078 22.6845 9.50307 22.563 9.72183L20.4339 13.552L16.1334 14.3932C15.888 14.4413 15.6599 14.5541 15.4727 14.72C15.2855 14.8859 15.146 15.0987 15.0687 15.3366C14.9914 15.5745 14.9791 15.8287 15.033 16.0729C15.0869 16.3171 15.2051 16.5425 15.3754 16.7257L18.36 19.9337L17.8312 24.2847C17.8012 24.533 17.8381 24.7848 17.9381 25.0141C18.0381 25.2433 18.1976 25.4417 18.4 25.5886C18.6024 25.7356 18.8404 25.8258 19.0894 25.8499C19.3383 25.874 19.5892 25.8311 19.816 25.7257L23.7894 23.8788L27.7635 25.726C27.9904 25.8313 28.2412 25.8741 28.4902 25.85C28.7391 25.8258 28.977 25.7356 29.1794 25.5886C29.3817 25.4416 29.5411 25.2432 29.641 25.0139C29.7409 24.7847 29.7777 24.5329 29.7477 24.2846L29.2189 19.934L32.2039 16.7256C32.3742 16.5424 32.4925 16.3171 32.5464 16.0728C32.6004 15.8286 32.5881 15.5743 32.5108 15.3365C32.4334 15.0986 32.2939 14.8857 32.1067 14.7198C31.9195 14.554 31.6909 14.4412 31.4454 14.3932ZM28.0895 18.9457C27.9502 19.0952 27.8453 19.2734 27.7822 19.4677C27.719 19.6621 27.6992 19.8679 27.724 20.0707L28.2375 24.2924L24.3805 22.4994C24.1952 22.4133 23.9934 22.3686 23.789 22.3687C23.5847 22.3688 23.3828 22.4135 23.1976 22.4998L19.3414 24.2923L19.8541 20.0714C19.8793 19.8685 19.8597 19.6625 19.7967 19.468C19.7337 19.2735 19.6288 19.0952 19.4894 18.9456L16.5927 15.8322L20.7669 15.0154C20.9675 14.9763 21.1571 14.8938 21.3223 14.7737C21.4876 14.6535 21.6245 14.4987 21.7235 14.3199L23.7894 10.6033L25.8556 14.3203C25.9547 14.4989 26.0917 14.6537 26.2569 14.7738C26.4221 14.8939 26.6117 14.9763 26.8122 15.0154L30.9862 15.8321L28.0895 18.9457Z" fill="#1D2E2E"/>
</svg>
