<svg width="22" height="22" viewBox="0 0 22 22" fill="none" xmlns="http://www.w3.org/2000/svg">
<path d="M20.3 1.69991C19.987 1.38691 19.6155 1.13863 19.2066 0.96923C18.7976 0.799834 18.3593 0.712646 17.9167 0.712646C17.4741 0.712646 17.0358 0.799834 16.6269 0.96923C16.2179 1.13863 15.8464 1.38691 15.5334 1.69991L2.85885 14.3745C2.48171 14.7516 2.20743 15.2196 2.06428 15.7339L0.738283 20.4696C0.707647 20.5794 0.706746 20.6954 0.735674 20.8056C0.764603 20.9158 0.822319 21.0164 0.902911 21.097C0.983503 21.1776 1.08407 21.2353 1.19431 21.2642C1.30455 21.2932 1.4205 21.2923 1.53028 21.2616L6.26514 19.9356C6.77937 19.7917 7.24786 19.5178 7.62543 19.1402L20.3 6.46563C20.9319 5.8336 21.2868 4.97648 21.2868 4.08277C21.2868 3.18906 20.9319 2.33194 20.3 1.69991ZM16.4429 2.60849C16.8339 2.21759 17.3641 1.99804 17.917 1.99812C18.4699 1.9982 19.0001 2.21791 19.391 2.60891C19.7819 2.99992 20.0014 3.53019 20.0014 4.08307C20.0013 4.63596 19.7816 5.16617 19.3906 5.55706L18.0706 6.8762L15.1229 3.92763L16.4429 2.60849ZM14.2143 4.83706L17.1629 7.78563L6.716 18.2316C6.49473 18.4529 6.2202 18.6135 5.91886 18.6979L2.28371 19.7153L3.30114 16.0811C3.38569 15.7798 3.54625 15.5053 3.76743 15.2839L14.2143 4.83706Z" fill="#1D2E2E" fill-opacity="0.8"/>
</svg>
