<svg width="48" height="48" viewBox="0 0 48 48" fill="none" xmlns="http://www.w3.org/2000/svg">
<path d="M9.74983 21.7531V35.2511C9.74886 35.4268 9.8096 35.5973 9.92146 35.7328C11.9749 38.1969 15.4583 39.6976 18.4256 40.6548C21.3929 41.612 23.8846 41.9946 23.8846 41.9946C23.9616 42.0067 24.0401 42.0067 24.1171 41.9946C24.1171 41.9946 26.6088 41.612 29.5761 40.6548C32.5434 39.6976 36.0212 38.1969 38.0747 35.7328C38.1886 35.598 38.2513 35.4275 38.2519 35.2511V21.7531H36.7515V34.8691C35.0254 36.8369 31.8991 38.3287 29.1166 39.2263C26.3344 40.1238 24.1033 40.4671 24.0008 40.4831C23.8984 40.4671 21.6673 40.1238 18.8851 39.2263C16.1026 38.3287 12.9763 36.8369 11.2502 34.8691V21.7531H9.74983Z" fill="#1D2E2E"/>
<path d="M23.8957 6.00712C13.049 7.55665 2.51359 16.6815 2.51359 16.6815C2.15562 16.9885 2.16628 17.5457 2.53574 17.8387C2.53574 17.8387 13.0836 26.1989 23.8957 27.7435C23.9654 27.7534 24.0363 27.7534 24.106 27.7435C34.9181 26.1989 45.466 17.8387 45.466 17.8387C45.8354 17.5457 45.8461 16.9885 45.4881 16.6815C45.4881 16.6815 34.9527 7.55665 24.106 6.00712L24.0005 6.00012L23.8957 6.00712ZM24.0008 7.52413C33.4636 8.92426 42.4522 16.2173 43.6721 17.2241C42.4242 18.1694 33.4786 24.8352 24.0008 26.2321C14.5231 24.8352 5.57747 18.1694 4.32957 17.2241C5.54952 16.2173 14.5381 8.92426 24.0008 7.52413Z" fill="#1D2E2E"/>
<path d="M23.9676 14.9984C23.029 15.0058 22.9525 16.382 23.8846 16.4933L42.0001 19.3889V34.4981H43.5005V18.11L24.1171 15.0095C24.0678 15.0008 24.0177 14.9971 23.9676 14.9984Z" fill="#1D2E2E"/>
<path d="M41.2527 33.7506C41.079 33.7504 40.9107 33.8105 40.7765 33.9206C40.6422 34.0306 40.5502 34.1838 40.5163 34.3541L39.7633 38.1023C39.7416 38.2112 39.7443 38.3235 39.7713 38.4312C39.7982 38.5389 39.8487 38.6393 39.9192 38.7251C39.9896 38.8109 40.0782 38.88 40.1786 38.9274C40.279 38.9748 40.3887 38.9993 40.4997 38.9992H45.0009C45.1119 38.9994 45.2216 38.9748 45.322 38.9274C45.4223 38.88 45.511 38.8109 45.5814 38.7251C45.6519 38.6393 45.7024 38.5389 45.7293 38.4312C45.7563 38.3235 45.759 38.2112 45.7372 38.1023L44.9843 34.3541C44.9505 34.1848 44.8594 34.0322 44.7263 33.9223C44.5931 33.8124 44.4261 33.7517 44.2535 33.7506H41.2527ZM41.8672 35.251H43.6389L44.0874 37.4988H41.4188L41.8672 35.251Z" fill="#1D2E2E"/>
</svg>
