<svg width="48" height="48" viewBox="0 0 48 48" fill="none" xmlns="http://www.w3.org/2000/svg">
<path d="M15.7895 15H32.2105C33.2156 15 34.1794 15.3992 34.8901 16.1099C35.6008 16.8206 36 17.7844 36 18.7895V30.1579C36 31.1629 35.6008 32.1268 34.8901 32.8375C34.1794 33.5481 33.2156 33.9474 32.2105 33.9474H15.7895C14.7844 33.9474 13.8206 33.5481 13.1099 32.8375C12.3992 32.1268 12 31.1629 12 30.1579V18.7895C12 17.7844 12.3992 16.8206 13.1099 16.1099C13.8206 15.3992 14.7844 15 15.7895 15ZM15.7895 16.2632C15.1579 16.2632 14.6021 16.4779 14.1726 16.8568L24 23.2105L33.8274 16.8568C33.3979 16.4779 32.8421 16.2632 32.2105 16.2632H15.7895ZM24 24.7389L13.4274 17.88C13.3263 18.1579 13.2632 18.4737 13.2632 18.7895V30.1579C13.2632 30.8279 13.5293 31.4705 14.0031 31.9443C14.4769 32.418 15.1195 32.6842 15.7895 32.6842H32.2105C32.8805 32.6842 33.5231 32.418 33.9969 31.9443C34.4707 31.4705 34.7368 30.8279 34.7368 30.1579V18.7895C34.7368 18.4737 34.6737 18.1579 34.5726 17.88L24 24.7389Z" fill="#1D2E2E"/>
<circle cx="24" cy="24" r="23.5" stroke="#1D2E2E"/>
</svg>
