<svg width="48" height="48" viewBox="0 0 48 48" fill="none" xmlns="http://www.w3.org/2000/svg">
<path d="M30.5033 12.1776C29.3504 12.0556 28.1917 11.9963 27.0324 12.0002C23.1886 12.0002 20.8002 14.4476 20.8002 18.3886V21.0638H17.5714C17.256 21.0636 17.0001 21.3192 17 21.6346V26.0359C16.9998 26.3513 17.2554 26.6071 17.5708 26.6073H20.8002V35.4287C20.8 35.7442 21.0556 36 21.371 36.0002H25.9174C26.2328 36.0004 26.4886 35.7448 26.4888 35.4294V26.6073H29.7077C29.9948 26.6072 30.2374 26.3943 30.2746 26.1096L30.8427 21.7089C30.8835 21.3961 30.663 21.1094 30.3502 21.0686C30.3255 21.0654 30.3006 21.0638 30.2757 21.0638H26.4888V18.825C26.4888 17.7167 26.7121 17.2535 28.0982 17.2535L30.4286 17.2524C30.744 17.2525 30.9998 16.997 31 16.6816V12.7446C31.0001 12.4578 30.7877 12.2153 30.5033 12.1776ZM29.8571 16.1095L28.0982 16.1107C25.6317 16.1107 25.346 17.6598 25.346 18.825V21.6353C25.3458 21.9506 25.6014 22.2065 25.9168 22.2066H29.6261L29.2054 25.4645H25.9174C25.602 25.4643 25.3462 25.7198 25.346 26.0353V34.8573H21.9431V26.0359C21.9433 25.7205 21.6877 25.4647 21.3723 25.4645H18.1429V22.2066H21.3717C21.6871 22.2069 21.9429 21.9513 21.9431 21.6358V18.3886C21.9431 15.104 23.8459 13.143 27.0324 13.143C28.1853 13.143 29.2266 13.2055 29.8571 13.2602V16.1095Z" fill="#1D2E2E"/>
<circle cx="24" cy="24" r="23.5" stroke="#1D2E2E"/>
</svg>
