<svg width="32" height="32" viewBox="0 0 32 32" fill="none" xmlns="http://www.w3.org/2000/svg">
<path fill-rule="evenodd" clip-rule="evenodd" d="M20.486 3.00588C18.2293 3.07311 16.0656 3.91973 14.3625 5.40185C12.6594 6.88396 11.5222 8.91011 11.144 11.1359C10.98 11.1069 10.816 11.0759 10.65 11.0559C8.69204 10.8243 6.71555 11.2968 5.074 12.3889C3.45811 13.4636 2.26857 15.0693 1.71109 16.9281C1.15361 18.787 1.26323 20.7823 2.021 22.5689L1.01 27.3989C0.992228 27.4834 0.996646 27.5711 1.02283 27.6534C1.04901 27.7357 1.09607 27.8098 1.15941 27.8685C1.22275 27.9272 1.30022 27.9685 1.38427 27.9884C1.46832 28.0083 1.55608 28.006 1.639 27.9819L5.929 26.7439C7.65702 27.6164 9.63501 27.8597 11.5229 27.4319C13.4109 27.0041 15.0908 25.932 16.274 24.3999C16.8279 23.6781 17.259 22.8699 17.55 22.0079C18.7975 22.4478 20.1213 22.6295 21.4412 22.5422C22.761 22.4549 24.0494 22.1003 25.228 21.4999L30.362 22.9799C30.4449 23.0042 30.5327 23.0066 30.6168 22.9868C30.7008 22.9671 30.7784 22.9259 30.8418 22.8673C30.9053 22.8087 30.9525 22.7347 30.9788 22.6524C31.0051 22.5701 31.0097 22.4824 30.992 22.3979L29.78 16.6379C30.6808 14.5347 30.8163 12.1823 30.1631 9.98957C29.5098 7.7968 28.109 5.90219 26.204 4.63488C24.5141 3.51046 22.5158 2.94071 20.487 3.00488L20.486 3.00588ZM20.518 3.99988C22.3396 3.94366 24.1334 4.45643 25.65 5.46688C27.3854 6.61779 28.6554 8.34792 29.2333 10.3485C29.8112 12.349 29.6594 14.4899 28.805 16.3889C28.7587 16.4911 28.7481 16.6059 28.775 16.7149C28.7762 16.7226 28.7775 16.7302 28.779 16.7379L29.839 21.7909L25.391 20.5059C25.3716 20.5 25.3519 20.4954 25.332 20.4919C25.2784 20.4749 25.2222 20.4672 25.166 20.4689V20.4709C25.0873 20.4729 25.0102 20.4935 24.941 20.5309C23.8567 21.1113 22.6624 21.457 21.4357 21.5456C20.209 21.6341 18.9774 21.4635 17.821 21.0449C18.2563 18.9713 17.8855 16.8098 16.784 14.9999H26.491C26.6236 14.9999 26.7508 14.9472 26.8446 14.8534C26.9383 14.7597 26.991 14.6325 26.991 14.4999C26.991 14.3673 26.9383 14.2401 26.8446 14.1463C26.7508 14.0526 26.6236 13.9999 26.491 13.9999H16.068C15.97 13.8809 15.874 13.7599 15.768 13.6459C14.7729 12.5794 13.5143 11.794 12.119 11.3689C12.4453 9.35649 13.4619 7.52042 14.9943 6.17579C16.5266 4.83117 18.4803 4.06186 20.518 3.99988ZM15.457 7.99988C15.3913 8.00317 15.327 8.01935 15.2676 8.04751C15.2082 8.07567 15.1549 8.11526 15.1108 8.16401C15.0217 8.26246 14.9754 8.39227 14.982 8.52488C14.9886 8.65749 15.0477 8.78203 15.1461 8.87111C15.2446 8.96019 15.3744 9.00651 15.507 8.99988H26.488C26.6206 8.99988 26.7478 8.94721 26.8416 8.85344C26.9353 8.75967 26.988 8.63249 26.988 8.49988C26.988 8.36727 26.9353 8.2401 26.8416 8.14633C26.7478 8.05256 26.6206 7.99988 26.488 7.99988H15.508C15.491 7.99902 15.474 7.99902 15.457 7.99988ZM15.457 10.9999C15.3244 11.0065 15.1999 11.0656 15.1108 11.164C15.0217 11.2625 14.9754 11.3923 14.982 11.5249C14.9886 11.6575 15.0477 11.782 15.1461 11.8711C15.2446 11.9602 15.3744 12.0065 15.507 11.9999H26.488C26.6206 11.9999 26.7478 11.9472 26.8416 11.8534C26.9353 11.7597 26.988 11.6325 26.988 11.4999C26.988 11.3673 26.9353 11.2401 26.8416 11.1463C26.7478 11.0526 26.6206 10.9999 26.488 10.9999H15.508C15.491 10.999 15.474 10.999 15.457 10.9999ZM9.904 11.9999C10.8707 12.0294 11.822 12.2503 12.7027 12.6499C13.5835 13.0495 14.3762 13.6198 15.035 14.3279C16.2189 15.596 16.9136 17.2437 16.9951 18.9767C17.0767 20.7096 16.5397 22.4152 15.48 23.7889C14.4213 25.1634 12.9089 26.1172 11.2123 26.4802C9.51577 26.8432 7.74543 26.5918 6.217 25.7709C6.15677 25.7381 6.09044 25.7181 6.02214 25.7121C5.95385 25.7061 5.88504 25.7142 5.82 25.7359C5.80654 25.7387 5.79319 25.742 5.78 25.7459L2.16 26.7909L3.023 22.6639C3.02302 22.6619 3.02302 22.6599 3.023 22.6579C3.0549 22.546 3.04677 22.4264 3 22.3199C2.28758 20.7379 2.16063 18.9542 2.64184 17.2873C3.12305 15.6204 4.18108 14.1788 5.627 13.2199C6.89124 12.3786 8.38619 11.9522 9.904 11.9999ZM5.457 15.9999C5.3244 16.0065 5.19985 16.0655 5.11077 16.164C5.02169 16.2625 4.97537 16.3923 4.982 16.5249C4.98863 16.6575 5.04767 16.782 5.14613 16.8711C5.24459 16.9602 5.3744 17.0065 5.507 16.9999H14.492C14.6246 16.9999 14.7518 16.9472 14.8456 16.8534C14.9393 16.7597 14.992 16.6325 14.992 16.4999C14.992 16.3673 14.9393 16.2401 14.8456 16.1463C14.7518 16.0526 14.6246 15.9999 14.492 15.9999H5.508C5.49102 15.999 5.47399 15.999 5.457 15.9999ZM19.24 16.9999C19.1074 17.0066 18.9829 17.0658 18.8939 17.1644C18.8049 17.2629 18.7587 17.3928 18.7655 17.5254C18.7723 17.658 18.8314 17.7825 18.93 17.8715C19.0285 17.9605 19.1584 18.0066 19.291 17.9999H21.695C21.8276 17.9999 21.9548 17.9472 22.0486 17.8534C22.1423 17.7597 22.195 17.6325 22.195 17.4999C22.195 17.3673 22.1423 17.2401 22.0486 17.1463C21.9548 17.0526 21.8276 16.9999 21.695 16.9999H19.291C19.2743 16.999 19.2567 16.999 19.24 16.9999ZM5.457 18.9999C5.3244 19.0065 5.19985 19.0655 5.11077 19.164C5.02169 19.2625 4.97537 19.3923 4.982 19.5249C4.98863 19.6575 5.04767 19.782 5.14613 19.8711C5.24459 19.9602 5.3744 20.0065 5.507 19.9999H14.492C14.6246 19.9999 14.7518 19.9472 14.8456 19.8534C14.9393 19.7597 14.992 19.6325 14.992 19.4999C14.992 19.3673 14.9393 19.2401 14.8456 19.1463C14.7518 19.0526 14.6246 18.9999 14.492 18.9999H5.508C5.49102 18.999 5.47399 18.999 5.457 18.9999ZM5.449 21.9999C5.38334 22.0032 5.31898 22.0195 5.2596 22.0477C5.20022 22.0759 5.14698 22.1156 5.10292 22.1644C5.05886 22.2132 5.02484 22.2702 5.00281 22.3321C4.98077 22.394 4.97116 22.4597 4.9745 22.5254C4.97785 22.591 4.9941 22.6554 5.02232 22.7148C5.05054 22.7742 5.09019 22.8274 5.13898 22.8715C5.18778 22.9155 5.24478 22.9495 5.30672 22.9716C5.36867 22.9936 5.43434 23.0032 5.5 22.9999H9.5C9.63261 22.9999 9.75979 22.9472 9.85356 22.8534C9.94733 22.7597 10 22.6325 10 22.4999C10 22.3673 9.94733 22.2401 9.85356 22.1463C9.75979 22.0526 9.63261 21.9999 9.5 21.9999H5.5C5.48335 21.9991 5.46566 21.9991 5.449 21.9999Z" fill="url(#paint0_linear_2881_1544)"/>
<defs>
<linearGradient id="paint0_linear_2881_1544" x1="0.999004" y1="15.5019" x2="29" y2="15.5019" gradientUnits="userSpaceOnUse">
<stop stop-color="#00A5A5"/>
<stop offset="1" stop-color="#00CACA"/>
</linearGradient>
</defs>
</svg>
