<svg width="32" height="33" viewBox="0 0 32 33" fill="none" xmlns="http://www.w3.org/2000/svg">
<path fill-rule="evenodd" clip-rule="evenodd" d="M1 30.9639C1 31.5159 1.448 31.9639 2 31.9639H16C16.552 31.9639 17 31.5159 17 30.9639C17 27.1459 13.455 23.9639 9 23.9639C4.545 23.9639 1 27.1459 1 30.9639Z" fill="#00A3A3"/>
<path fill-rule="evenodd" clip-rule="evenodd" d="M8 24.0176C4.026 24.4516 1 27.4356 1 30.9636C1 31.5156 1.448 31.9636 2 31.9636H14C14.552 31.9636 15 31.5156 15 30.9636C15 27.4356 11.974 24.4516 8 24.0176Z" fill="#00CCCC"/>
<path d="M9 22.9639C11.2091 22.9639 13 21.173 13 18.9639C13 16.7547 11.2091 14.9639 9 14.9639C6.79086 14.9639 5 16.7547 5 18.9639C5 21.173 6.79086 22.9639 9 22.9639Z" fill="#FFB870"/>
<path fill-rule="evenodd" clip-rule="evenodd" d="M8 15.0898C6.276 15.5348 5 17.1018 5 18.9638C5 20.8258 6.276 22.3928 8 22.8378C9.724 22.3928 11 20.8258 11 18.9638C11 17.1018 9.724 15.5348 8 15.0898Z" fill="#FFD2A5"/>
<path fill-rule="evenodd" clip-rule="evenodd" d="M15.841 10.6599L15.019 14.7679C14.942 15.1559 15.1 15.5529 15.424 15.7809C15.747 16.0089 16.175 16.0249 16.514 15.8209L20.223 13.5959C21.085 13.8329 22.022 13.9639 23 13.9639C25.608 13.9639 27.913 13.0289 29.346 11.6319C30.399 10.6069 31 9.33187 31 7.96387C31 6.59587 30.399 5.32087 29.346 4.29587C27.913 2.89887 25.608 1.96387 23 1.96387C20.392 1.96387 18.087 2.89887 16.654 4.29587C15.601 5.32087 15 6.59587 15 7.96387C15 8.92687 15.298 9.84287 15.841 10.6599Z" fill="#5099F7"/>
<path fill-rule="evenodd" clip-rule="evenodd" d="M22 2.00977C19.808 2.21477 17.901 3.07977 16.654 4.29577C15.601 5.32077 15 6.59577 15 7.96377C15 8.92677 15.298 9.84277 15.841 10.6598L15.019 14.7678C14.972 15.0068 15.013 15.2488 15.128 15.4528L18.223 13.5958C18.705 13.7288 19.211 13.8278 19.734 13.8898L20.223 13.5958C20.786 13.7508 21.381 13.8608 21.999 13.9178C24.192 13.7138 26.099 12.8478 27.346 11.6318C28.399 10.6068 29 9.33177 29 7.96377C29 6.59577 28.399 5.32077 27.346 4.29577C26.099 3.07977 24.192 2.21477 22 2.00977Z" fill="#81B6F9"/>
<path fill-rule="evenodd" clip-rule="evenodd" d="M20 6.96387C19.448 6.96387 19 7.41187 19 7.96387C19 8.51587 19.448 8.96387 20 8.96387C20.552 8.96387 21 8.51587 21 7.96387C21 7.41187 20.552 6.96387 20 6.96387ZM23 6.96387C22.448 6.96387 22 7.41187 22 7.96387C22 8.51587 22.448 8.96387 23 8.96387C23.552 8.96387 24 8.51587 24 7.96387C24 7.41187 23.552 6.96387 23 6.96387ZM26 6.96387C25.448 6.96387 25 7.41187 25 7.96387C25 8.51587 25.448 8.96387 26 8.96387C26.552 8.96387 27 8.51587 27 7.96387C27 7.41187 26.552 6.96387 26 6.96387Z" fill="#B1D2FB"/>
</svg>
