<svg width="32" height="32" viewBox="0 0 32 32" fill="none" xmlns="http://www.w3.org/2000/svg">
<path fill-rule="evenodd" clip-rule="evenodd" d="M5.76663 15.8663C5.76663 10.141 10.4079 5.49967 16.1333 5.49967C21.8586 5.49967 26.5 10.141 26.5 15.8663C26.5 21.5917 21.8586 26.233 16.1333 26.233C14.5825 26.233 13.1133 25.893 11.7944 25.2843C11.4324 25.1172 11.0094 25.0726 10.6022 25.1922L5.36119 26.7314L7.07566 22.125C7.25096 21.654 7.19809 21.1473 6.97659 20.7314C6.20449 19.2815 5.76663 17.6263 5.76663 15.8663ZM16.1333 3.83301C9.48746 3.83301 4.09996 9.22051 4.09996 15.8663C4.09996 17.9061 4.60813 19.8296 5.50549 21.5147C5.51113 21.5253 5.51306 21.5343 5.51349 21.5397C5.51369 21.5421 5.51359 21.5436 5.51349 21.5442L3.79923 26.15C3.32056 27.436 4.51423 28.7172 5.83083 28.3305L11.0709 26.7916C11.0723 26.7914 11.0811 26.7907 11.096 26.7976C12.6294 27.5053 14.3364 27.8997 16.1333 27.8997C22.7791 27.8997 28.1666 22.5122 28.1666 15.8663C28.1666 9.22051 22.7791 3.83301 16.1333 3.83301ZM13 16.1663C13 16.8107 12.4777 17.333 11.8333 17.333C11.189 17.333 10.6667 16.8107 10.6667 16.1663C10.6667 15.522 11.189 14.9997 11.8333 14.9997C12.4777 14.9997 13 15.522 13 16.1663ZM17.1667 16.1663C17.1667 16.8107 16.6443 17.333 16 17.333C15.3557 17.333 14.8333 16.8107 14.8333 16.1663C14.8333 15.522 15.3557 14.9997 16 14.9997C16.6443 14.9997 17.1667 15.522 17.1667 16.1663ZM21.5 16.1663C21.5 16.8107 20.9777 17.333 20.3333 17.333C19.689 17.333 19.1667 16.8107 19.1667 16.1663C19.1667 15.522 19.689 14.9997 20.3333 14.9997C20.9777 14.9997 21.5 15.522 21.5 16.1663Z" fill="#1D2E2E"/>
</svg>
