<svg width="32" height="32" viewBox="0 0 32 32" fill="none" xmlns="http://www.w3.org/2000/svg">
<g clip-path="url(#clip0_2613_1562)">
<path d="M5.5 20.5C6.88071 20.5 8 19.8284 8 19C8 18.1716 6.88071 17.5 5.5 17.5C4.11929 17.5 3 18.1716 3 19C3 19.8284 4.11929 20.5 5.5 20.5Z" fill="#ECF0F1" stroke="#00CCCC" stroke-linecap="round" stroke-linejoin="round"/>
<path d="M8 19V22C8 22.83 6.88 23.5 5.5 23.5C4.12 23.5 3 22.83 3 22V19C3 19.83 4.12 20.5 5.5 20.5C6.88 20.5 8 19.83 8 19ZM15 19V22C15 22.83 13.88 23.5 12.5 23.5C11.12 23.5 10 22.83 10 22V19C10 19.83 11.12 20.5 12.5 20.5C13.88 20.5 15 19.83 15 19Z" stroke="#00CCCC" stroke-linecap="round" stroke-linejoin="round"/>
<path d="M12.5 17.5C13.8807 17.5 15 16.8284 15 16C15 15.1716 13.8807 14.5 12.5 14.5C11.1193 14.5 10 15.1716 10 16C10 16.8284 11.1193 17.5 12.5 17.5Z" fill="#ECF0F1" stroke="#00CCCC" stroke-linecap="round" stroke-linejoin="round"/>
<path d="M15 16V19C15 19.83 13.88 20.5 12.5 20.5C11.12 20.5 10 19.83 10 19V16C10 16.83 11.12 17.5 12.5 17.5C13.88 17.5 15 16.83 15 16ZM22 19V22C22 22.83 20.88 23.5 19.5 23.5C18.12 23.5 17 22.83 17 22V19C17 19.83 18.12 20.5 19.5 20.5C20.88 20.5 22 19.83 22 19Z" stroke="#00CCCC" stroke-linecap="round" stroke-linejoin="round"/>
<path d="M22 16V19C22 19.83 20.88 20.5 19.5 20.5C18.12 20.5 17 19.83 17 19V16C17 16.83 18.12 17.5 19.5 17.5C20.88 17.5 22 16.83 22 16Z" stroke="#00CCCC" stroke-linecap="round" stroke-linejoin="round"/>
<path d="M22 13V16C22 16.83 20.88 17.5 19.5 17.5C18.12 17.5 17 16.83 17 16V13C17 13.83 18.12 14.5 19.5 14.5C20.88 14.5 22 13.83 22 13Z" stroke="#00CCCC" stroke-linecap="round" stroke-linejoin="round"/>
<path d="M19.5 14.5C20.8807 14.5 22 13.8284 22 13C22 12.1716 20.8807 11.5 19.5 11.5C18.1193 11.5 17 12.1716 17 13C17 13.8284 18.1193 14.5 19.5 14.5Z" fill="#ECF0F1" stroke="#00CCCC" stroke-linecap="round" stroke-linejoin="round"/>
<path d="M29 19V22C29 22.83 27.88 23.5 26.5 23.5C25.12 23.5 24 22.83 24 22V19C24 19.83 25.12 20.5 26.5 20.5C27.88 20.5 29 19.83 29 19Z" stroke="#00CCCC" stroke-linecap="round" stroke-linejoin="round"/>
<path d="M29 16V19C29 19.83 27.88 20.5 26.5 20.5C25.12 20.5 24 19.83 24 19V16C24 16.83 25.12 17.5 26.5 17.5C27.88 17.5 29 16.83 29 16Z" stroke="#00CCCC" stroke-linecap="round" stroke-linejoin="round"/>
<path d="M29 13V16C29 16.83 27.88 17.5 26.5 17.5C25.12 17.5 24 16.83 24 16V13C24 13.83 25.12 14.5 26.5 14.5C27.88 14.5 29 13.83 29 13Z" stroke="#00CCCC" stroke-linecap="round" stroke-linejoin="round"/>
<path d="M29 10V13C29 13.83 27.88 14.5 26.5 14.5C25.12 14.5 24 13.83 24 13V10C24 10.83 25.12 11.5 26.5 11.5C27.88 11.5 29 10.83 29 10Z" stroke="#00CCCC" stroke-linecap="round" stroke-linejoin="round"/>
<path d="M26.5 11.5C27.8807 11.5 29 10.8284 29 10C29 9.17157 27.8807 8.5 26.5 8.5C25.1193 8.5 24 9.17157 24 10C24 10.8284 25.1193 11.5 26.5 11.5Z" fill="#ECF0F1" stroke="#00CCCC" stroke-linecap="round" stroke-linejoin="round"/>
<path d="M31 11V14.5M31 17.5V21M1 20V21.5" stroke="#00A3A3" stroke-linecap="round" stroke-linejoin="round"/>
</g>
<defs>
<clipPath id="clip0_2613_1562">
<rect width="32" height="32" fill="white"/>
</clipPath>
</defs>
</svg>
