<svg width="32" height="33" viewBox="0 0 32 33" fill="none" xmlns="http://www.w3.org/2000/svg">
<g clip-path="url(#clip0_383_414)">
<path d="M5.5 21.4639C6.88071 21.4639 8 20.7923 8 19.9639C8 19.1354 6.88071 18.4639 5.5 18.4639C4.11929 18.4639 3 19.1354 3 19.9639C3 20.7923 4.11929 21.4639 5.5 21.4639Z" fill="#ECF0F1" stroke="#434A54" stroke-linecap="round" stroke-linejoin="round"/>
<path d="M8 19.9639V22.9639C8 23.7939 6.88 24.4639 5.5 24.4639C4.12 24.4639 3 23.7939 3 22.9639V19.9639C3 20.7939 4.12 21.4639 5.5 21.4639C6.88 21.4639 8 20.7939 8 19.9639ZM15 19.9639V22.9639C15 23.7939 13.88 24.4639 12.5 24.4639C11.12 24.4639 10 23.7939 10 22.9639V19.9639C10 20.7939 11.12 21.4639 12.5 21.4639C13.88 21.4639 15 20.7939 15 19.9639Z" fill="#00CCCC" stroke="#434A54" stroke-linecap="round" stroke-linejoin="round"/>
<path d="M12.5 18.4639C13.8807 18.4639 15 17.7923 15 16.9639C15 16.1354 13.8807 15.4639 12.5 15.4639C11.1193 15.4639 10 16.1354 10 16.9639C10 17.7923 11.1193 18.4639 12.5 18.4639Z" fill="#ECF0F1" stroke="#434A54" stroke-linecap="round" stroke-linejoin="round"/>
<path d="M15 16.9639V19.9639C15 20.7939 13.88 21.4639 12.5 21.4639C11.12 21.4639 10 20.7939 10 19.9639V16.9639C10 17.7939 11.12 18.4639 12.5 18.4639C13.88 18.4639 15 17.7939 15 16.9639ZM22 19.9639V22.9639C22 23.7939 20.88 24.4639 19.5 24.4639C18.12 24.4639 17 23.7939 17 22.9639V19.9639C17 20.7939 18.12 21.4639 19.5 21.4639C20.88 21.4639 22 20.7939 22 19.9639Z" fill="#00CCCC" stroke="#434A54" stroke-linecap="round" stroke-linejoin="round"/>
<path d="M22 16.9639V19.9639C22 20.7939 20.88 21.4639 19.5 21.4639C18.12 21.4639 17 20.7939 17 19.9639V16.9639C17 17.7939 18.12 18.4639 19.5 18.4639C20.88 18.4639 22 17.7939 22 16.9639Z" fill="#00CCCC" stroke="#434A54" stroke-linecap="round" stroke-linejoin="round"/>
<path d="M22 13.9639V16.9639C22 17.7939 20.88 18.4639 19.5 18.4639C18.12 18.4639 17 17.7939 17 16.9639V13.9639C17 14.7939 18.12 15.4639 19.5 15.4639C20.88 15.4639 22 14.7939 22 13.9639Z" fill="#00CCCC" stroke="#434A54" stroke-linecap="round" stroke-linejoin="round"/>
<path d="M19.5 15.4639C20.8807 15.4639 22 14.7923 22 13.9639C22 13.1354 20.8807 12.4639 19.5 12.4639C18.1193 12.4639 17 13.1354 17 13.9639C17 14.7923 18.1193 15.4639 19.5 15.4639Z" fill="#ECF0F1" stroke="#434A54" stroke-linecap="round" stroke-linejoin="round"/>
<path d="M29 19.9639V22.9639C29 23.7939 27.88 24.4639 26.5 24.4639C25.12 24.4639 24 23.7939 24 22.9639V19.9639C24 20.7939 25.12 21.4639 26.5 21.4639C27.88 21.4639 29 20.7939 29 19.9639Z" fill="#00CCCC" stroke="#434A54" stroke-linecap="round" stroke-linejoin="round"/>
<path d="M29 16.9639V19.9639C29 20.7939 27.88 21.4639 26.5 21.4639C25.12 21.4639 24 20.7939 24 19.9639V16.9639C24 17.7939 25.12 18.4639 26.5 18.4639C27.88 18.4639 29 17.7939 29 16.9639Z" fill="#00CCCC" stroke="#434A54" stroke-linecap="round" stroke-linejoin="round"/>
<path d="M29 13.9639V16.9639C29 17.7939 27.88 18.4639 26.5 18.4639C25.12 18.4639 24 17.7939 24 16.9639V13.9639C24 14.7939 25.12 15.4639 26.5 15.4639C27.88 15.4639 29 14.7939 29 13.9639Z" fill="#00CCCC" stroke="#434A54" stroke-linecap="round" stroke-linejoin="round"/>
<path d="M29 10.9639V13.9639C29 14.7939 27.88 15.4639 26.5 15.4639C25.12 15.4639 24 14.7939 24 13.9639V10.9639C24 11.7939 25.12 12.4639 26.5 12.4639C27.88 12.4639 29 11.7939 29 10.9639Z" fill="#00CCCC" stroke="#434A54" stroke-linecap="round" stroke-linejoin="round"/>
<path d="M26.5 12.4639C27.8807 12.4639 29 11.7923 29 10.9639C29 10.1354 27.8807 9.46387 26.5 9.46387C25.1193 9.46387 24 10.1354 24 10.9639C24 11.7923 25.1193 12.4639 26.5 12.4639Z" fill="#ECF0F1" stroke="#434A54" stroke-linecap="round" stroke-linejoin="round"/>
<path d="M31 11.9639V15.4639M31 18.4639V21.9639M1 20.9639V22.4639" stroke="#434A54" stroke-linecap="round" stroke-linejoin="round"/>
</g>
<defs>
<clipPath id="clip0_383_414">
<rect width="32" height="32" fill="white" transform="translate(0 0.963867)"/>
</clipPath>
</defs>
</svg>
