<svg width="48" height="48" viewBox="0 0 48 48" fill="none" xmlns="http://www.w3.org/2000/svg">
<path d="M35.07 17.5569C35.3713 16.6841 35.4811 15.7566 35.3919 14.8375C35.3027 13.9185 35.0166 13.0294 34.5531 12.2308C34.5126 12.1607 34.4544 12.1025 34.3843 12.062C34.3143 12.0215 34.2348 12.0001 34.1538 12C33.111 11.9971 32.083 12.2476 31.1584 12.73C30.2338 13.2124 29.4403 13.9122 28.8462 14.7693H25.6154C25.0212 13.9122 24.2277 13.2124 23.3031 12.73C22.3785 12.2476 21.3506 11.9971 20.3077 12C20.2268 12.0001 20.1473 12.0215 20.0772 12.062C20.0071 12.1025 19.9489 12.1607 19.9085 12.2308C19.4449 13.0294 19.1589 13.9185 19.0697 14.8375C18.9805 15.7566 19.0902 16.6841 19.3915 17.5569C18.7935 18.5225 18.4718 19.6336 18.4615 20.7693V21.6923C18.4634 23.2831 19.0961 24.8081 20.2209 25.933C21.3457 27.0578 22.8708 27.6905 24.4615 27.6923H24.6242C24.1416 28.0813 23.7522 28.5733 23.4844 29.1324C23.2167 29.6914 23.0774 30.3033 23.0769 30.9231V32.3077H19.8462C18.9893 32.3077 18.1675 31.9673 17.5617 31.3614C16.9558 30.7556 16.6154 29.9338 16.6154 29.077C16.6154 27.9753 16.1777 26.9187 15.3988 26.1397C14.6198 25.3607 13.5632 24.9231 12.4615 24.9231C12.3391 24.9231 12.2217 24.9717 12.1352 25.0583C12.0486 25.1448 12 25.2622 12 25.3846C12 25.507 12.0486 25.6244 12.1352 25.711C12.2217 25.7976 12.3391 25.8462 12.4615 25.8462C13.3184 25.8462 14.1402 26.1866 14.746 26.7924C15.3519 27.3983 15.6923 28.2201 15.6923 29.077C15.6923 30.1786 16.1299 31.2352 16.9089 32.0142C17.6879 32.7932 18.7445 33.2308 19.8462 33.2308H23.0769V35.5385C23.0769 35.6609 23.1255 35.7783 23.2121 35.8648C23.2987 35.9514 23.4161 36 23.5385 36C23.6609 36 23.7783 35.9514 23.8648 35.8648C23.9514 35.7783 24 35.6609 24 35.5385V30.9231C24 30.0662 24.3404 29.2445 24.9463 28.6386C25.5522 28.0327 26.3739 27.6923 27.2308 27.6923C28.0876 27.6923 28.9094 28.0327 29.5153 28.6386C30.1212 29.2445 30.4615 30.0662 30.4615 30.9231V35.5385C30.4615 35.6609 30.5102 35.7783 30.5967 35.8648C30.6833 35.9514 30.8007 36 30.9231 36C31.0455 36 31.1629 35.9514 31.2494 35.8648C31.336 35.7783 31.3846 35.6609 31.3846 35.5385V30.9231C31.3841 30.3033 31.2449 29.6914 30.9771 29.1324C30.7094 28.5733 30.3199 28.0813 29.8373 27.6923H30C31.5907 27.6905 33.1158 27.0578 34.2406 25.933C35.3654 24.8081 35.9982 23.2831 36 21.6923V20.7693C35.9897 19.6336 35.668 18.5225 35.07 17.5569ZM35.0769 21.6923C35.0754 23.0383 34.54 24.3288 33.5882 25.2806C32.6365 26.2324 31.346 26.7677 30 26.7693H24.4615C23.1155 26.7677 21.8251 26.2324 20.8733 25.2806C19.9215 24.3288 19.3861 23.0383 19.3846 21.6923V20.7693C19.3966 19.746 19.7056 18.7482 20.2742 17.8973C20.3211 17.8347 20.3514 17.7612 20.3621 17.6837C20.3728 17.6062 20.3636 17.5272 20.3354 17.4543C20.0533 16.7259 19.929 15.946 19.9708 15.1661C20.0125 14.3862 20.2194 13.624 20.5777 12.93C21.4616 12.971 22.3227 13.2242 23.0883 13.668C23.8538 14.1118 24.5013 14.7333 24.9762 15.48C25.018 15.5452 25.0755 15.5988 25.1434 15.6359C25.2114 15.673 25.2876 15.6924 25.365 15.6923H29.0965C29.174 15.6924 29.2502 15.673 29.3181 15.6359C29.3861 15.5988 29.4436 15.5452 29.4854 15.48C29.9602 14.7333 30.6077 14.1118 31.3733 13.668C32.1388 13.2242 32.9999 12.971 33.8838 12.93C34.2421 13.624 34.449 14.3862 34.4908 15.1661C34.5326 15.946 34.4083 16.7259 34.1262 17.4543C34.0982 17.5271 34.0891 17.6058 34.0998 17.6831C34.1105 17.7604 34.1406 17.8337 34.1873 17.8962C34.7556 18.7476 35.0646 19.7457 35.0769 20.7693V21.6923Z" fill="#1D2E2E"/>
<circle cx="24" cy="24" r="23.5" stroke="#1D2E2E"/>
</svg>
