<svg width="48" height="48" viewBox="0 0 48 48" fill="none" xmlns="http://www.w3.org/2000/svg">
<circle cx="24" cy="24" r="24" fill="#00CCCC"/>
<rect width="24" height="24" transform="translate(12 12)" fill="#00CCCC"/>
<path d="M24 14C22.6868 14 21.3864 14.2587 20.1732 14.7612C18.9599 15.2638 17.8575 16.0003 16.9289 16.9289C15.0536 18.8043 14 21.3478 14 24C14 28.42 16.87 32.17 20.84 33.5C21.34 33.58 21.5 33.27 21.5 33V31.31C18.73 31.91 18.14 29.97 18.14 29.97C17.68 28.81 17.03 28.5 17.03 28.5C16.12 27.88 17.1 27.9 17.1 27.9C18.1 27.97 18.63 28.93 18.63 28.93C19.5 30.45 20.97 30 21.54 29.76C21.63 29.11 21.89 28.67 22.17 28.42C19.95 28.17 17.62 27.31 17.62 23.5C17.62 22.39 18 21.5 18.65 20.79C18.55 20.54 18.2 19.5 18.75 18.15C18.75 18.15 19.59 17.88 21.5 19.17C22.29 18.95 23.15 18.84 24 18.84C24.85 18.84 25.71 18.95 26.5 19.17C28.41 17.88 29.25 18.15 29.25 18.15C29.8 19.5 29.45 20.54 29.35 20.79C30 21.5 30.38 22.39 30.38 23.5C30.38 27.32 28.04 28.16 25.81 28.41C26.17 28.72 26.5 29.33 26.5 30.26V33C26.5 33.27 26.66 33.59 27.17 33.5C31.14 32.16 34 28.42 34 24C34 22.6868 33.7413 21.3864 33.2388 20.1732C32.7362 18.9599 31.9997 17.8575 31.0711 16.9289C30.1425 16.0003 29.0401 15.2638 27.8268 14.7612C26.6136 14.2587 25.3132 14 24 14Z" fill="white"/>
</svg>
