<svg width="48" height="48" viewBox="0 0 48 48" fill="none" xmlns="http://www.w3.org/2000/svg">
<path d="M24 18.72C22.9557 18.72 21.9349 19.0297 21.0666 19.6098C20.1983 20.19 19.5215 21.0146 19.1219 21.9794C18.7223 22.9442 18.6177 24.0059 18.8215 25.0301C19.0252 26.0543 19.5281 26.9951 20.2665 27.7335C21.0049 28.4719 21.9457 28.9748 22.9699 29.1785C23.9941 29.3823 25.0558 29.2777 26.0206 28.8781C26.9854 28.4785 27.81 27.8017 28.3902 26.9334C28.9703 26.0651 29.28 25.0443 29.28 24C29.2784 22.6001 28.7216 21.2581 27.7318 20.2682C26.7419 19.2784 25.3999 18.7216 24 18.72ZM24 28.32C23.1456 28.32 22.3104 28.0666 21.5999 27.5919C20.8895 27.1173 20.3358 26.4426 20.0088 25.6532C19.6819 24.8638 19.5963 23.9952 19.763 23.1572C19.9297 22.3192 20.3411 21.5495 20.9453 20.9453C21.5495 20.3411 22.3192 19.9297 23.1572 19.763C23.9952 19.5963 24.8638 19.6819 25.6532 20.0088C26.4426 20.3358 27.1173 20.8895 27.5919 21.5999C28.0666 22.3104 28.32 23.1456 28.32 24C28.32 25.1457 27.8649 26.2445 27.0547 27.0547C26.2445 27.8649 25.1457 28.32 24 28.32ZM29.76 12H18.24C16.5856 12.0019 14.9996 12.6599 13.8298 13.8298C12.6599 14.9996 12.0019 16.5856 12 18.24V29.76C12.0019 31.4144 12.6599 33.0004 13.8298 34.1702C14.9996 35.3401 16.5856 35.9981 18.24 36H29.76C31.4144 35.9981 33.0004 35.3401 34.1702 34.1702C35.3401 33.0004 35.9981 31.4144 36 29.76V18.24C35.9981 16.5856 35.3401 14.9996 34.1702 13.8298C33.0004 12.6599 31.4144 12.0019 29.76 12ZM35.04 29.76C35.0384 31.1599 34.4816 32.5019 33.4918 33.4918C32.5019 34.4816 31.1599 35.0384 29.76 35.04H18.24C16.8401 35.0384 15.4981 34.4816 14.5082 33.4918C13.5184 32.5019 12.9616 31.1599 12.96 29.76V18.24C12.9616 16.8401 13.5184 15.4981 14.5082 14.5082C15.4981 13.5184 16.8401 12.9616 18.24 12.96H29.76C31.1599 12.9616 32.5019 13.5184 33.4918 14.5082C34.4816 15.4981 35.0384 16.8401 35.04 18.24V29.76ZM31.2 17.76C31.2 17.9499 31.1437 18.1355 31.0382 18.2933C30.9327 18.4512 30.7828 18.5743 30.6074 18.6469C30.432 18.7196 30.2389 18.7386 30.0527 18.7016C29.8665 18.6645 29.6954 18.5731 29.5612 18.4388C29.4269 18.3046 29.3355 18.1335 29.2984 17.9473C29.2614 17.7611 29.2804 17.568 29.3531 17.3926C29.4257 17.2172 29.5488 17.0673 29.7067 16.9618C29.8645 16.8563 30.0501 16.8 30.24 16.8C30.4946 16.8 30.7388 16.9011 30.9188 17.0812C31.0989 17.2612 31.2 17.5054 31.2 17.76Z" fill="#1D2E2E"/>
<circle cx="24" cy="24" r="23.5" stroke="#1D2E2E"/>
</svg>
