<svg width="48" height="48" viewBox="0 0 48 48" fill="none" xmlns="http://www.w3.org/2000/svg">
<circle cx="24" cy="24" r="24" fill="#00CCCC"/>
<rect width="24" height="24" transform="translate(12 12)" fill="#00CCCC"/>
<path d="M25.0276 14.001C25.7573 13.9982 26.4871 14.0055 27.2166 14.023L27.4106 14.03C27.6346 14.038 27.8556 14.048 28.1226 14.06C29.1866 14.11 29.9126 14.278 30.5496 14.525C31.2096 14.779 31.7656 15.123 32.3216 15.679C32.83 16.1786 33.2234 16.7829 33.4746 17.45C33.7216 18.087 33.8896 18.814 33.9396 19.878C33.9516 20.144 33.9616 20.366 33.9696 20.59L33.9756 20.784C33.9934 21.5132 34.001 22.2426 33.9986 22.972L33.9996 23.718V25.028C34.0021 25.7577 33.9944 26.4875 33.9766 27.217L33.9706 27.411C33.9626 27.635 33.9526 27.856 33.9406 28.123C33.8906 29.187 33.7206 29.913 33.4746 30.55C33.2242 31.2177 32.8307 31.8226 32.3216 32.322C31.8216 32.8303 31.2169 33.2237 30.5496 33.475C29.9126 33.722 29.1866 33.89 28.1226 33.94C27.8556 33.952 27.6346 33.962 27.4106 33.97L27.2166 33.976C26.4871 33.9938 25.7573 34.0014 25.0276 33.999L24.2816 34H22.9726C22.2429 34.0025 21.5131 33.9948 20.7836 33.977L20.5896 33.971C20.3522 33.9624 20.1149 33.9524 19.8776 33.941C18.8136 33.891 18.0876 33.721 17.4496 33.475C16.7823 33.2243 16.1778 32.8308 15.6786 32.322C15.1696 31.8223 14.7758 31.2175 14.5246 30.55C14.2776 29.913 14.1096 29.187 14.0596 28.123C14.0485 27.8857 14.0385 27.6484 14.0296 27.411L14.0246 27.217C14.0062 26.4875 13.9978 25.7577 13.9996 25.028V22.972C13.9968 22.2426 14.0041 21.5132 14.0216 20.784L14.0286 20.59C14.0366 20.366 14.0466 20.144 14.0586 19.878C14.1086 18.813 14.2766 18.088 14.5236 17.45C14.775 16.7826 15.1696 16.1784 15.6796 15.68C16.1785 15.1707 16.7826 14.7766 17.4496 14.525C18.0876 14.278 18.8126 14.11 19.8776 14.06L20.5896 14.03L20.7836 14.025C21.5128 14.0066 22.2422 13.9982 22.9716 14L25.0276 14.001ZM23.9996 19.001C23.3371 18.9916 22.6794 19.114 22.0646 19.3611C21.4498 19.6081 20.8902 19.9749 20.4184 20.44C19.9466 20.9052 19.572 21.4595 19.3163 22.0707C19.0606 22.682 18.9289 23.3379 18.9289 24.0005C18.9289 24.663 19.0606 25.319 19.3163 25.9302C19.572 26.5414 19.9466 27.0958 20.4184 27.5609C20.8902 28.0261 21.4498 28.3929 22.0646 28.6399C22.6794 28.887 23.3371 29.0094 23.9996 29C25.3257 29 26.5975 28.4732 27.5351 27.5355C28.4728 26.5978 28.9996 25.3261 28.9996 24C28.9996 22.6739 28.4728 21.4021 27.5351 20.4645C26.5975 19.5268 25.3257 19.001 23.9996 19.001ZM23.9996 21.001C24.3981 20.9936 24.7941 21.0658 25.1644 21.2132C25.5347 21.3606 25.8719 21.5803 26.1564 21.8595C26.4408 22.1387 26.6668 22.4718 26.821 22.8393C26.9753 23.2068 27.0548 23.6014 27.0549 24C27.0549 24.3986 26.9756 24.7931 26.8214 25.1607C26.6673 25.5283 26.4414 25.8614 26.1571 26.1407C25.8727 26.42 25.5356 26.6399 25.1653 26.7874C24.7951 26.9349 24.3991 27.0072 24.0006 27C23.205 27 22.4419 26.6839 21.8793 26.1213C21.3167 25.5587 21.0006 24.7956 21.0006 24C21.0006 23.2043 21.3167 22.4413 21.8793 21.8787C22.4419 21.3161 23.205 21 24.0006 21L23.9996 21.001ZM29.2496 17.501C28.927 17.5139 28.6219 17.6511 28.3982 17.884C28.1745 18.1168 28.0496 18.4271 28.0496 18.75C28.0496 19.0729 28.1745 19.3832 28.3982 19.616C28.6219 19.8488 28.927 19.9861 29.2496 19.999C29.5811 19.999 29.8991 19.8673 30.1335 19.6329C30.3679 19.3984 30.4996 19.0805 30.4996 18.749C30.4996 18.4175 30.3679 18.0995 30.1335 17.8651C29.8991 17.6307 29.5811 17.499 29.2496 17.499V17.501Z" fill="white"/>
</svg>
