<svg width="33" height="33" viewBox="0 0 33 33" fill="none" xmlns="http://www.w3.org/2000/svg">
<g clip-path="url(#clip0_406_382)">
<path d="M30.025 23.7986C29.895 23.7986 29.79 23.6936 29.79 23.5636V22.7336H26.985V23.5636C26.985 23.6936 26.88 23.7986 26.75 23.7986C26.62 23.7986 26.515 23.6936 26.515 23.5636V22.5036C26.515 22.3736 26.62 22.2686 26.75 22.2686H30.025C30.155 22.2686 30.26 22.3736 30.26 22.5036V23.5636C30.26 23.6936 30.155 23.7986 30.025 23.7986Z" fill="#E1E3E8"/>
<path d="M31.8 29.2789H24.975C24.585 29.2789 24.275 28.9639 24.275 28.5789V23.9939C24.275 23.6039 24.59 23.2939 24.975 23.2939H31.8C32.19 23.2939 32.5 23.6089 32.5 23.9939V28.5789C32.5 28.9639 32.185 29.2789 31.8 29.2789Z" fill="#EA9847"/>
<path d="M31.185 26.5491H25.585C24.86 26.5491 24.27 25.9591 24.27 25.2341V24.0641C24.27 23.6341 24.62 23.2891 25.045 23.2891H31.72C32.15 23.2891 32.495 23.6391 32.495 24.0641V25.2341C32.5 25.9641 31.91 26.5491 31.185 26.5491Z" fill="#FAA951"/>
<path d="M26.19 27.2042C25.945 27.2042 25.745 27.0042 25.745 26.7592V26.2692C25.745 26.0242 25.945 25.8242 26.19 25.8242C26.435 25.8242 26.635 26.0242 26.635 26.2692V26.7592C26.635 27.0042 26.435 27.2042 26.19 27.2042ZM30.58 27.2042C30.335 27.2042 30.135 27.0042 30.135 26.7592V26.2692C30.135 26.0242 30.335 25.8242 30.58 25.8242C30.825 25.8242 31.025 26.0242 31.025 26.2692V26.7592C31.025 27.0042 30.825 27.2042 30.58 27.2042Z" fill="#E1E3E8"/>
<path d="M29.02 22.8886H27.755C27.535 22.8886 27.36 22.7086 27.36 22.4936C27.36 22.2736 27.54 22.0986 27.755 22.0986H29.02C29.24 22.0986 29.415 22.2786 29.415 22.4936C29.415 22.7136 29.24 22.8886 29.02 22.8886Z" fill="#C2CBD6"/>
<path d="M18.405 23.4591V24.9941H11.065C8.11 24.9941 5.715 22.5991 5.715 19.6441C5.715 19.3841 5.735 19.1291 5.77 18.8741C6.14 21.4641 8.37 23.4541 11.065 23.4541H18.405V23.4591ZM18.405 7.28906V8.82406H11.305C5.595 8.82406 0.92 13.2541 0.53 18.8591C0.51 18.6091 0.5 18.3541 0.5 18.0941C0.5 12.1291 5.335 7.28906 11.305 7.28906H18.405Z" fill="#00A3A3"/>
<path d="M7.28 14.3241C6.31 15.2941 5.715 16.6291 5.715 18.1041C5.715 18.3641 5.735 18.6191 5.77 18.8741C5.735 19.1241 5.715 19.3791 5.715 19.6441C5.715 22.5991 8.11 24.9941 11.065 24.9941H18.405V28.8991H11.305C8.32 28.8991 5.62 27.6891 3.665 25.7341C1.88 23.9491 0.714999 21.5391 0.529999 18.8641C0.924999 13.2541 5.6 8.8291 11.305 8.8291H18.405V12.7641H11.065C9.585 12.7591 8.25 13.3591 7.28 14.3241Z" fill="#00CCCC"/>
<path d="M22.11 7.28906H18.405V8.82406H22.11V7.28906Z" fill="#A6B1BF"/>
<path d="M22.11 8.82324H18.405V12.7582H22.11V8.82324Z" fill="#C2CBD6"/>
<path d="M22.11 23.459H18.405V24.994H22.11V23.459Z" fill="#A6B1BF"/>
<path d="M22.11 24.9941H18.405V28.8991H22.11V24.9941Z" fill="#C2CBD6"/>
<path d="M19.515 11.7738V9.80383H19.79L20.42 10.7988C20.565 11.0288 20.68 11.2388 20.775 11.4388L20.78 11.4338C20.755 11.1688 20.75 10.9338 20.75 10.6238V9.79883H20.99V11.7688H20.735L20.11 10.7688C19.975 10.5488 19.84 10.3238 19.74 10.1138L19.73 10.1188C19.745 10.3688 19.75 10.6038 19.75 10.9288V11.7688H19.515V11.7738ZM19.595 27.7838C19.735 27.8688 19.945 27.9438 20.16 27.9438C20.48 27.9438 20.67 27.7738 20.67 27.5288C20.67 27.2988 20.54 27.1688 20.21 27.0438C19.81 26.9038 19.565 26.6988 19.565 26.3538C19.565 25.9738 19.88 25.6888 20.355 25.6888C20.605 25.6888 20.785 25.7488 20.895 25.8088L20.81 26.0638C20.73 26.0188 20.565 25.9488 20.345 25.9488C20.01 25.9488 19.885 26.1488 19.885 26.3138C19.885 26.5438 20.035 26.6538 20.37 26.7838C20.785 26.9438 20.995 27.1438 20.995 27.4988C20.995 27.8738 20.715 28.2038 20.14 28.2038C19.905 28.2038 19.65 28.1338 19.515 28.0488L19.595 27.7838Z" fill="#ECF0F1"/>
<path d="M31.035 13.784H24.56C24.29 13.784 24.075 13.564 24.085 13.294L24.12 11.924C24.15 10.784 25.085 9.87402 26.23 9.87402H29.355C30.455 9.87402 31.37 10.719 31.455 11.809L31.515 13.289C31.525 13.559 31.31 13.784 31.035 13.784Z" fill="#8A8BC4"/>
<path d="M28.815 8.52832H26.875V10.1433H28.815V8.52832Z" fill="#F6B88C"/>
<path d="M28.815 8.53344V10.8784L26.875 10.8734V8.52344L28.815 8.53344Z" fill="#EAB794"/>
<path d="M29.04 9.87324L27.84 12.4832L26.645 9.87324L26.875 9.69824L27.845 10.1882L28.815 9.69824L29.04 9.87324Z" fill="#EBEFF2"/>
<path d="M29.725 7.60871C29.725 7.84371 29.55 8.03871 29.335 8.03871C29.12 8.03871 28.945 7.84871 28.945 7.60871C28.945 7.37371 29.12 7.17871 29.335 7.17871C29.55 7.17871 29.725 7.36871 29.725 7.60871Z" fill="#F7C19B"/>
<path d="M26.35 8.03871C26.5654 8.03871 26.74 7.84619 26.74 7.60871C26.74 7.37123 26.5654 7.17871 26.35 7.17871C26.1346 7.17871 25.96 7.37123 25.96 7.60871C25.96 7.84619 26.1346 8.03871 26.35 8.03871Z" fill="#F7C19B"/>
<path d="M27.835 9.51828C26.915 9.51828 26.265 8.43328 26.265 7.72828L26.28 7.14828C26.3 6.29328 26.995 5.61328 27.85 5.61328C28.73 5.61328 29.44 6.33828 29.42 7.21828L29.41 7.73328C29.405 8.43328 28.65 9.51828 27.835 9.51828Z" fill="#F7C19B"/>
<path d="M26.26 7.72866C26.26 7.72866 25.23 5.03366 26.575 5.16366C26.575 5.16366 26.705 5.04866 26.925 4.91866C28.375 4.05866 30.185 5.45366 29.68 7.05866C29.675 7.07366 29.67 7.08866 29.665 7.10366L29.65 6.64866C29.65 6.64866 29.55 7.20366 29.405 7.68366C29.405 7.68366 29.46 6.98866 29.16 6.66866C29.16 6.66866 28.965 6.44866 28.545 6.36866C28.545 6.36866 28.64 6.59866 28.9 6.70866C28.225 6.79366 27.635 6.71366 27.22 6.31366C27.22 6.31366 27.23 6.46866 27.415 6.66866C27.415 6.66866 26.81 6.54366 26.615 6.36866C26.42 6.49866 26.35 7.24366 26.26 7.72866Z" fill="#37424C"/>
<path d="M28.17 12.1237L27.845 12.5837L27.515 12.1237L27.75 10.4287H27.94L28.17 12.1237Z" fill="#E44D3C"/>
<path d="M27.8413 10.1894L27.562 10.4688L27.8414 10.748L28.1206 10.4687L27.8413 10.1894Z" fill="#E44D3C"/>
<path d="M27.845 13.779L26.82 11.544L26.965 11.044H26.57L26.34 9.87402H26.65L27.84 12.284L29.045 9.87402H29.35L29.145 11.049H28.75L28.895 11.544L27.845 13.779Z" fill="#7F82B5"/>
</g>
<defs>
<clipPath id="clip0_406_382">
<rect width="32" height="32" fill="white" transform="translate(0.5 0.963867)"/>
</clipPath>
</defs>
</svg>
