<svg width="48" height="48" viewBox="0 0 48 48" fill="none" xmlns="http://www.w3.org/2000/svg">
<path d="M17.7755 20.2384C17.7752 20.2384 17.7757 20.2384 17.7755 20.2384H13.0715C12.7469 20.2382 12.4838 20.5011 12.4835 20.8256C12.4835 20.8254 12.4835 20.8259 12.4835 20.8256V34.9362C12.4833 35.2607 12.7463 35.5239 13.0707 35.5241C13.0705 35.5241 13.071 35.5241 13.0707 35.5241H17.7747C18.0993 35.5243 18.3624 35.2613 18.3627 34.9368C18.3627 34.9366 18.3627 34.937 18.3627 34.9368V20.8263C18.3629 20.5018 18.0999 20.2386 17.7755 20.2384ZM17.1868 34.3482H13.6594V21.4142H17.1868V34.3482ZM30.1209 20.2384C28.8453 20.2384 27.6054 20.6594 26.5934 21.436V20.8263C26.5936 20.5018 26.3307 20.2386 26.0062 20.2384C26.0059 20.2384 26.0064 20.2384 26.0062 20.2384H21.3022C20.9777 20.2382 20.7145 20.5011 20.7143 20.8256C20.7143 20.8254 20.7143 20.8259 20.7143 20.8256V34.9362C20.7141 35.2607 20.977 35.5239 21.3016 35.5241C21.3014 35.5241 21.3018 35.5241 21.3016 35.5241H26.0055C26.33 35.5243 26.5932 35.2613 26.5934 34.9368C26.5934 34.9366 26.5934 34.937 26.5934 34.9368V28.4691C26.5934 27.495 27.3831 26.7054 28.3572 26.7054C29.3312 26.7054 30.1209 27.495 30.1209 28.4691V34.9362C30.1207 35.2607 30.3836 35.5239 30.7082 35.5241C30.7079 35.5241 30.7084 35.5241 30.7082 35.5241H35.4121C35.7366 35.5243 35.9998 35.2613 36 34.9368C36 34.9366 36 34.937 36 34.9368V26.1175C35.9962 22.8721 33.3662 20.2422 30.1209 20.2384ZM34.8242 34.3482H31.2967V28.4691C31.2967 26.8456 29.9807 25.5296 28.3572 25.5296C26.7336 25.5296 25.4176 26.8456 25.4176 28.4691V34.3482H21.8901V21.4142H25.4176V22.8289C25.4176 23.0787 25.5756 23.3012 25.8115 23.3835C26.0468 23.4683 26.3101 23.3929 26.4649 23.1963C28.067 21.1659 31.0117 20.8187 33.0421 22.4209C34.1731 23.3134 34.8304 24.6768 34.8242 26.1175V34.3482ZM15.8558 12.0098C15.7175 12.0001 15.5787 11.9994 15.4403 12.0076C13.6657 11.8864 12.1288 13.2268 12.0076 15.0014C12.0027 15.0728 12.0003 15.1443 12.0001 15.2159C11.9848 16.9754 13.3989 18.4142 15.1584 18.4295C15.2303 18.4301 15.302 18.4283 15.3737 18.424H15.407C17.1783 18.548 18.7146 17.2126 18.8385 15.4413C18.9625 13.67 17.627 12.1337 15.8558 12.0098ZM15.8152 17.2516C15.6794 17.2641 15.5426 17.263 15.407 17.2482H15.3737C14.2495 17.3346 13.2682 16.4934 13.1818 15.3692C13.0954 14.245 13.9366 13.2636 15.0608 13.1772C15.1873 13.1675 15.3143 13.1696 15.4403 13.1834C16.5637 13.0799 17.5583 13.9067 17.6619 15.0301C17.7653 16.1535 16.9386 17.1481 15.8152 17.2516Z" fill="#1D2E2E"/>
<circle cx="24" cy="24" r="23.5" stroke="#1D2E2E"/>
</svg>
