<svg width="48" height="48" viewBox="0 0 48 48" fill="none" xmlns="http://www.w3.org/2000/svg">
<path d="M24.5 35.5268C24.2711 35.2608 23.9474 34.8778 23.5601 34.4006C22.7697 33.4267 21.7166 32.0632 20.6645 30.5038C19.6114 28.943 18.5655 27.1951 17.7844 25.4515C17.0004 23.7015 16.5 21.9926 16.5 20.5C16.5 16.0829 20.0829 12.5 24.5 12.5C28.9171 12.5 32.5 16.0829 32.5 20.5C32.5 21.9926 31.9996 23.7015 31.2156 25.4515C30.4345 27.1951 29.3886 28.943 28.3355 30.5038C27.2834 32.0632 26.2303 33.4267 25.4399 34.4006C25.0526 34.8778 24.7289 35.2608 24.5 35.5268ZM20.9643 20.5C20.9643 22.4519 22.5481 24.0357 24.5 24.0357C26.4519 24.0357 28.0357 22.4519 28.0357 20.5C28.0357 18.5481 26.4519 16.9643 24.5 16.9643C22.5481 16.9643 20.9643 18.5481 20.9643 20.5Z" stroke="#1D2E2E"/>
<circle cx="24" cy="24" r="23.5" stroke="#1D2E2E"/>
</svg>
