<svg width="48" height="48" viewBox="0 0 48 48" fill="none" xmlns="http://www.w3.org/2000/svg">
<circle cx="24" cy="24" r="24" fill="#00CCCC"/>
<g clip-path="url(#clip0_66_627)">
<path d="M24 14C20.135 14 17 17.135 17 21C17 26.25 24 34 24 34C24 34 31 26.25 31 21C31 17.135 27.865 14 24 14ZM24 23.5C22.62 23.5 21.5 22.38 21.5 21C21.5 19.62 22.62 18.5 24 18.5C25.38 18.5 26.5 19.62 26.5 21C26.5 22.38 25.38 23.5 24 23.5Z" fill="white"/>
</g>
<defs>
<clipPath id="clip0_66_627">
<rect width="24" height="24" fill="white" transform="translate(12 12)"/>
</clipPath>
</defs>
</svg>
