<svg width="36" height="23" viewBox="0 0 36 23" fill="none" xmlns="http://www.w3.org/2000/svg">
<g clip-path="url(#clip0_424_1581)">
<path d="M13.0071 3.23828H22.6473V20.5602H13.0071V3.23828Z" fill="#FF5F00"/>
<path d="M13.6187 11.9003C13.6187 8.38089 15.2712 5.2592 17.8113 3.23927C15.9446 1.7703 13.5881 0.882812 11.0174 0.882812C4.92695 0.882812 -0.000244141 5.81001 -0.000244141 11.9003C-0.000244141 17.9905 4.92695 22.9178 11.0173 22.9178C13.588 22.9178 15.9445 22.0303 17.8113 20.5612C15.2712 18.572 13.6187 15.4197 13.6187 11.9003Z" fill="#CB0A0A"/>
<path d="M35.6521 11.9003C35.6521 17.9905 30.7249 22.9178 24.6346 22.9178C22.0639 22.9178 19.7074 22.0303 17.8406 20.5612C20.4113 18.5414 22.0334 15.4197 22.0334 11.9003C22.0334 8.38089 20.3806 5.2592 17.8406 3.23927C19.7073 1.7703 22.0639 0.882812 24.6346 0.882812C30.7249 0.882812 35.6523 5.84068 35.6523 11.9003H35.6521Z" fill="#F3A522"/>
</g>
<defs>
<clipPath id="clip0_424_1581">
<rect width="35.6892" height="22.0269" fill="white" transform="translate(0 0.882812)"/>
</clipPath>
</defs>
</svg>
