<svg width="20" height="20" viewBox="0 0 20 20" fill="none" xmlns="http://www.w3.org/2000/svg">
<path d="M14 16C14 16.5304 14.2107 17.0391 14.5858 17.4142C14.9609 17.7893 15.4696 18 16 18C16.5304 18 17.0391 17.7893 17.4142 17.4142C17.7893 17.0391 18 16.5304 18 16C18 15.4696 17.7893 14.9609 17.4142 14.5858C17.0391 14.2107 16.5304 14 16 14C15.4696 14 14.9609 14.2107 14.5858 14.5858C14.2107 14.9609 14 15.4696 14 16ZM2 16C2 16.5304 2.21071 17.0391 2.58579 17.4142C2.96086 17.7893 3.46957 18 4 18C4.53043 18 5.03914 17.7893 5.41421 17.4142C5.78929 17.0391 6 16.5304 6 16C6 15.4696 5.78929 14.9609 5.41421 14.5858C5.03914 14.2107 4.53043 14 4 14C3.46957 14 2.96086 14.2107 2.58579 14.5858C2.21071 14.9609 2 15.4696 2 16ZM14 4C14 4.53043 14.2107 5.03914 14.5858 5.41421C14.9609 5.78929 15.4696 6 16 6C16.5304 6 17.0391 5.78929 17.4142 5.41421C17.7893 5.03914 18 4.53043 18 4C18 3.46957 17.7893 2.96086 17.4142 2.58579C17.0391 2.21071 16.5304 2 16 2C15.4696 2 14.9609 2.21071 14.5858 2.58579C14.2107 2.96086 14 3.46957 14 4ZM2 4C2 4.53043 2.21071 5.03914 2.58579 5.41421C2.96086 5.78929 3.46957 6 4 6C4.53043 6 5.03914 5.78929 5.41421 5.41421C5.78929 5.03914 6 4.53043 6 4C6 3.46957 5.78929 2.96086 5.41421 2.58579C5.03914 2.21071 4.53043 2 4 2C3.46957 2 2.96086 2.21071 2.58579 2.58579C2.21071 2.96086 2 3.46957 2 4Z" stroke="#1D2E2E" stroke-opacity="0.8" stroke-width="1.5" stroke-linecap="round" stroke-linejoin="round"/>
</svg>
