<svg xmlns="http://www.w3.org/2000/svg" viewBox="0 0 178.8 149.33"><defs><style>.cls-1{fill:#0cc;}</style></defs><g id="Layer_2" data-name="Layer 2"><g id="Layer_1-2" data-name="Layer 1"><path class="cls-1" d="M60.7,85.89,87.05,1,23.61,0,.19,74.18C0,76-1.35,88.42,8,98.58c9.64,10.48,22.7,9.87,24.4,9.76-.56,2-3.81,14.58,3.9,26.35a32.23,32.23,0,0,0,16.58,12.69h33.2a29.43,29.43,0,0,0,16.59-10.74,28,28,0,0,0,4.88-10.73l13.67-38.07Zm-22.45,1a12.77,12.77,0,0,1-10.73-1,12.86,12.86,0,0,1-5.86-9.76L38.25,21.47H57.77Q48,54.17,38.25,86.87ZM86.08,121a14.9,14.9,0,0,1-5.86,3.9l-24.4-1c-.19-.11-4.71-2.64-4.88-7.81a9.67,9.67,0,0,1,3.91-7.81l35.13,1A16.08,16.08,0,0,1,86.08,121Z"/><circle class="cls-1" cx="148.54" cy="119.08" r="30.26"/></g></g></svg>