<svg width="175" height="150" viewBox="0 0 175 150" fill="none" xmlns="http://www.w3.org/2000/svg">
<path d="M99.5 150C140.921 150 174.5 116.421 174.5 75C174.5 33.5786 140.921 0 99.5 0C58.0786 0 24.5 33.5786 24.5 75C24.5 116.421 58.0786 150 99.5 150Z" fill="#EBFFFF"/>
<path d="M109.719 67.7928H11.2811L12.9217 69.4334V62.9881L12.1092 64.4046L21.7475 59.5746L41.6547 49.5987L58.3191 41.2478L61.2175 39.7953H59.5614L69.1947 44.6011L89.1229 54.5428L105.889 62.9069L108.891 64.4045L108.078 62.988V69.4333C108.078 70.3277 108.824 71.0739 109.719 71.0739C110.613 71.0739 111.359 70.3277 111.359 69.4333V62.988C111.359 62.4399 111.054 61.8244 110.547 61.5714L100.913 56.7655L80.9852 46.8238L64.2195 38.4598L61.2281 36.9674C60.4143 36.5615 59.796 36.8445 59.1038 37.1915L57.3588 38.0659L41.4274 46.0496L21.3074 56.1321L10.5105 61.5427L10.4531 61.5715C9.946 61.8256 9.64049 62.4392 9.64049 62.9881V69.4334C9.64049 70.3278 10.3867 71.074 11.2811 71.074H109.719C110.613 71.074 111.359 70.3278 111.359 69.4334C111.359 68.539 110.613 67.7928 109.719 67.7928ZM111.652 139.98H9.34729L10.9879 141.621V131.623L9.34729 133.264H111.652L110.011 131.623V141.621C110.011 142.515 110.758 143.262 111.652 143.262C112.546 143.262 113.293 142.515 113.293 141.621V131.623C113.293 130.729 112.546 129.982 111.652 129.982H9.34717C8.45279 129.982 7.70654 130.729 7.70654 131.623V141.621C7.70654 142.515 8.45279 143.262 9.34717 143.262H111.652C112.546 143.262 113.293 142.515 113.293 141.621C113.293 140.727 112.547 139.98 111.652 139.98ZM28.8592 122.754H16.203L17.8436 124.394L18.1415 112.362L18.6997 89.813C18.8049 85.5589 18.9102 81.3047 19.0156 77.0506L17.375 78.6912H27.6875L26.0469 77.0506L26.3447 89.0829L26.9029 111.632L27.2184 124.375L27.2188 124.394C27.241 125.288 27.9485 126.035 28.8595 126.035C29.7371 126.035 30.5222 125.289 30.5001 124.394L30.2022 112.362L29.644 89.8129C29.5388 85.5587 29.4335 81.3046 29.3281 77.0505C29.306 76.1567 28.5985 75.4098 27.6875 75.4098H17.375C16.464 75.4098 15.7565 76.1567 15.7344 77.0505L15.4365 89.0828L14.8783 111.632L14.5628 124.375C14.5627 124.382 14.5626 124.388 14.5624 124.394C14.5402 125.288 15.3254 126.035 16.203 126.035H28.8592C29.7536 126.035 30.4999 125.288 30.4999 124.394C30.4999 123.5 29.7536 122.754 28.8592 122.754ZM104.797 122.754H92.1405L93.7811 124.394L94.0789 112.362L94.6372 89.813C94.7422 85.5651 94.8474 81.3173 94.9525 77.0693L94.953 77.0506L93.3124 78.6912H103.625L101.984 77.0506L102.282 89.0829L102.84 111.632L103.156 124.375L103.156 124.394C103.178 125.288 103.886 126.035 104.797 126.035C105.674 126.035 106.459 125.289 106.437 124.394L106.14 112.362L105.581 89.8129C105.476 85.565 105.371 81.3171 105.266 77.0692L105.265 77.0505C105.243 76.1567 104.536 75.4098 103.625 75.4098H93.3124C92.4014 75.4098 91.6938 76.1567 91.6717 77.0505L91.374 89.0828L90.8157 111.632L90.5003 124.375L90.4999 124.394C90.4778 125.288 91.263 126.035 92.1405 126.035L104.797 126.035C105.691 126.035 106.437 125.289 106.437 124.394C106.437 123.5 105.691 122.754 104.797 122.754Z" fill="#00B8B8"/>
<path d="M64.3964 55.9407C64.394 56.1029 64.387 56.265 64.3753 56.4268C64.3381 56.9395 64.437 56.1213 64.3425 56.6204C64.2843 56.9271 64.1872 57.225 64.078 57.5168C64.196 57.2013 64.0023 57.6567 63.9881 57.6843C63.9188 57.8207 63.8386 57.9509 63.7583 58.0808C63.7442 58.1036 63.4538 58.5083 63.6604 58.2436C63.5359 58.4033 63.3962 58.5507 63.2551 58.6957C63.1491 58.8046 63.0345 58.9045 62.9202 59.0044C62.5516 59.3258 63.1696 58.8357 62.7677 59.1153C62.5162 59.2902 62.2443 59.4332 61.9681 59.5639C62.2735 59.4194 61.8132 59.6133 61.7846 59.623C61.6367 59.6736 61.485 59.7115 61.3336 59.7493C61.3045 59.7566 60.7971 59.8453 61.1458 59.7997C60.9317 59.8277 60.7156 59.8339 60.5001 59.837C60.3378 59.8393 60.1756 59.8276 60.0139 59.8159C59.5012 59.7787 60.3194 59.8778 59.8204 59.7831C59.5136 59.7248 59.2159 59.6277 58.9241 59.5186C59.2395 59.6366 58.7841 59.4428 58.7566 59.4287C58.6202 59.3594 58.49 59.2791 58.36 59.1989C58.3373 59.1848 57.9325 58.8944 58.1973 59.1011C58.0375 58.9764 57.8901 58.8369 57.7452 58.6957C57.6363 58.5898 57.5363 58.4752 57.4366 58.3608C57.1152 57.9922 57.6052 58.6102 57.3256 58.2083C57.1507 57.9568 57.0078 57.685 56.877 57.4087C57.0215 57.7141 56.8277 57.2537 56.818 57.2251C56.7673 57.0772 56.7295 56.9255 56.6916 56.7741C56.6844 56.7451 56.5957 56.2376 56.6412 56.5863C56.6132 56.3723 56.607 56.1561 56.604 55.9406C56.6016 55.7783 56.6134 55.6161 56.6251 55.4544C56.6622 54.9417 56.5632 55.7599 56.6579 55.2609C56.7161 54.9541 56.8132 54.6564 56.9224 54.3646C56.8044 54.68 56.9982 54.2246 57.0123 54.1971C57.0814 54.0607 57.1619 53.9305 57.2421 53.8005C57.2561 53.7778 57.5465 53.373 57.3399 53.6378C57.4645 53.478 57.6041 53.3306 57.7452 53.1857C57.8511 53.0768 57.9657 52.9768 58.0801 52.8771C58.4486 52.5557 57.8306 53.0457 58.2325 52.7661C58.484 52.5912 58.7559 52.4483 59.0321 52.3175C58.7267 52.462 59.1871 52.2682 59.2157 52.2585C59.3635 52.2078 59.5153 52.17 59.6668 52.1321C59.6957 52.1249 60.2033 52.0362 59.8545 52.0818C60.0686 52.0537 60.2847 52.0475 60.5002 52.0445C60.6625 52.0421 60.8246 52.0539 60.9864 52.0656C61.4991 52.1027 60.6809 52.0037 61.1799 52.0984C61.4866 52.1566 61.7845 52.2537 62.0762 52.3629C61.7608 52.2449 62.2161 52.4387 62.2437 52.4528C62.38 52.5219 62.5102 52.6023 62.6403 52.6826C62.663 52.6966 63.0678 52.987 62.8031 52.7804C62.9628 52.905 63.1102 53.0446 63.2552 53.1857C63.3641 53.2916 63.464 53.4062 63.5639 53.5206C63.8853 53.8891 63.3952 53.2711 63.6747 53.673C63.8497 53.9245 63.9925 54.1964 64.1233 54.4726C63.9788 54.1672 64.1727 54.6277 64.1824 54.6562C64.2331 54.804 64.271 54.9558 64.3087 55.1073C64.3161 55.1362 64.4047 55.6438 64.3591 55.295C64.3871 55.509 64.3933 55.7252 64.3964 55.9407C64.4093 56.8349 65.1329 57.5814 66.037 57.5814C66.9215 57.5814 67.6905 56.8351 67.6776 55.9407C67.6319 52.7831 65.6261 50.1109 62.6568 49.0944C59.6337 48.0595 56.4059 49.4141 54.5792 51.892C52.7028 54.4372 53.0444 58.0329 54.926 60.4441C56.7727 62.8107 60.1435 63.7322 62.9484 62.6828C65.7764 61.6247 67.6339 58.9568 67.6775 55.941C67.6904 55.0466 66.9214 54.3003 66.0369 54.3003C65.1329 54.3001 64.4094 55.0466 64.3964 55.9407ZM70.6788 90.1821C70.6756 90.7516 70.6365 91.3176 70.5678 91.8831C70.6149 91.4942 70.5493 91.9814 70.5414 92.0298C70.5179 92.1771 70.4902 92.3238 70.4627 92.4705C70.3971 92.8187 70.3161 93.1636 70.2297 93.5071C70.0776 94.1108 69.8874 94.7047 69.6774 95.2907C69.4016 96.06 69.3303 96.2062 68.9716 96.9425C68.6923 97.5157 68.3797 98.0721 68.0471 98.6157C67.8819 98.8858 67.7068 99.1499 67.5282 99.4113C67.4395 99.5413 67.3474 99.669 67.2554 99.7966C67.194 99.8812 67.1318 99.9651 67.0687 100.048C67.167 99.9233 67.1568 99.9358 67.0382 100.086C66.6576 100.567 66.2445 101.022 65.8105 101.456C65.5986 101.668 65.377 101.869 65.152 102.067C65.041 102.164 64.9266 102.258 64.8124 102.351C64.6641 102.469 64.6593 102.473 64.7982 102.364C64.7207 102.422 64.6427 102.48 64.5638 102.536C64.1026 102.868 63.611 103.157 63.1018 103.41C63.0547 103.433 62.6301 103.622 62.9868 103.472C62.8598 103.526 62.7303 103.573 62.6008 103.621C62.3008 103.731 61.9925 103.815 61.6818 103.889C61.5492 103.92 61.415 103.945 61.2808 103.969C60.8305 104.05 61.6318 103.934 61.1761 103.982C60.9027 104.011 60.6275 104.016 60.3529 104.014C60.2157 104.012 60.0786 104.003 59.9417 103.994C59.8753 103.99 59.4212 103.931 59.8352 103.991C59.52 103.946 59.2095 103.872 58.9027 103.788C58.6378 103.715 58.3789 103.623 58.1227 103.524C57.6931 103.359 58.4259 103.663 58.0055 103.47C57.8784 103.411 57.7541 103.347 57.6297 103.283C57.3778 103.154 57.1346 103.008 56.8947 102.857C56.773 102.781 56.6545 102.7 56.5359 102.619C56.4862 102.585 56.01 102.23 56.2837 102.443C55.8126 102.076 55.3754 101.667 54.9577 101.241C54.7434 101.022 54.5394 100.794 54.3385 100.563C54.2369 100.446 54.1388 100.327 54.0406 100.207C53.9751 100.127 53.9105 100.046 53.8466 99.9641C53.9442 100.09 53.935 100.076 53.8189 99.9231C53.0262 98.8633 52.3643 97.7081 51.8036 96.5109C51.7361 96.3668 51.672 96.2209 51.6079 96.0752C51.7398 96.3748 51.535 95.8963 51.5289 95.8812C51.4109 95.5885 51.3031 95.2919 51.1991 94.9942C50.9777 94.3611 50.7963 93.7146 50.6436 93.0619C50.575 92.7687 50.5177 92.473 50.4648 92.1765C50.4386 92.0307 50.4166 91.8842 50.3946 91.7378C50.4525 92.1226 50.3855 91.6446 50.3799 91.5943C50.3095 90.9621 50.291 90.3259 50.3125 89.6906C50.3236 89.3671 50.3543 89.0444 50.3916 88.723C50.3512 89.0708 50.4239 88.5527 50.4283 88.5269C50.4552 88.3706 50.4882 88.2153 50.5214 88.0603C50.6629 87.3968 50.8752 86.7499 51.1289 86.1216C51.002 86.4359 51.2034 85.9699 51.2139 85.9475C51.2791 85.8077 51.3498 85.6706 51.4203 85.5335C51.5611 85.2602 51.7177 84.9955 51.8793 84.7341C52.0405 84.4735 52.2165 84.2225 52.3972 83.9754C52.693 83.5707 52.2011 84.2143 52.5171 83.8259C52.6456 83.6679 52.7811 83.5158 52.9175 83.3646C53.3268 82.911 53.7789 82.4978 54.2526 82.1126C53.9935 82.3233 54.3873 82.0133 54.4072 81.9988C54.5314 81.9092 54.6573 81.8221 54.7849 81.7375C55.0821 81.5373 55.3919 81.3567 55.706 81.1846C56.6775 80.6517 57.7988 80.2816 59.1503 80.0687C58.8035 80.1233 59.3265 80.0515 59.3518 80.0489C59.513 80.0324 59.6748 80.0224 59.8366 80.0126C60.1638 79.9925 60.4918 79.9925 60.8193 79.9992C61.1441 80.0059 61.4677 80.0323 61.7906 80.0653C62.3142 80.119 61.4722 80.0121 61.9892 80.0935C62.1984 80.1265 62.4059 80.1693 62.6129 80.2134C63.2258 80.3442 63.8243 80.5362 64.4079 80.7628C64.8816 80.9468 64.1234 80.6324 64.5857 80.8406C64.7265 80.904 64.8648 80.9729 65.0029 81.0417C65.2782 81.1789 65.5452 81.3322 65.8088 81.4905C66.0716 81.6483 66.3248 81.8212 66.5745 81.9988C66.5942 82.0128 66.9912 82.3202 66.729 82.1126C66.8487 82.2074 66.9649 82.3069 67.0808 82.4061C67.5834 82.8368 68.0407 83.3181 68.4645 83.8257C68.7854 84.2102 68.2835 83.5746 68.5844 83.9753C68.6763 84.0976 68.7634 84.2236 68.8505 84.3493C69.0252 84.6016 69.185 84.8639 69.3395 85.1287C69.4945 85.3949 69.6339 85.67 69.7678 85.9473C69.7783 85.9692 69.984 86.4342 69.8528 86.1213C69.9128 86.2646 69.9672 86.4102 70.0215 86.5557C70.2413 87.1447 70.4014 87.7544 70.5242 88.3705C70.5555 88.5267 70.5802 88.6842 70.605 88.8416C70.5502 88.4947 70.6221 89.0177 70.6248 89.0429C70.6634 89.4213 70.6761 89.8019 70.6788 90.1821C70.6849 91.0764 71.4205 91.8227 72.3194 91.8227C73.2092 91.8227 73.9661 91.0765 73.96 90.1821C73.9204 84.3696 70.1728 79.2648 64.6953 77.3848C62.0163 76.4652 58.9672 76.5042 56.2862 77.3848C53.5542 78.2821 51.2793 80.0348 49.5638 82.3191C47.8832 84.5568 47.0402 87.401 47.0213 90.1821C47.0028 92.8969 47.8012 95.568 48.9039 98.0221C50.9799 102.642 55.2828 107.449 60.7661 107.291C64.7996 107.175 68.0533 104.33 70.2714 101.197C72.4992 98.0497 73.938 94.0553 73.96 90.1821C73.9651 89.2877 73.2099 88.5415 72.3194 88.5415C71.4213 88.5415 70.6838 89.2878 70.6788 90.1821ZM82.5696 122.127V131.624L84.2102 129.983H36.79L38.4307 131.624V122.942C38.4307 121.095 38.5296 119.854 39.2379 118.051C39.1146 118.365 39.3076 117.896 39.3178 117.874C39.3816 117.733 39.4509 117.594 39.52 117.456C39.658 117.181 39.8116 116.913 39.97 116.649C40.128 116.386 40.3007 116.132 40.478 115.882C40.4915 115.863 40.7974 115.463 40.591 115.725C40.7171 115.565 40.8502 115.41 40.9841 115.256C41.9197 114.182 42.572 113.676 43.722 113.005C44.1225 112.772 44.5401 112.569 44.9643 112.383C44.6732 112.511 45.2422 112.284 45.2962 112.264C45.5415 112.175 45.7912 112.099 46.0416 112.026C46.4981 111.893 46.9641 111.796 47.4328 111.718C47.6302 111.688 47.6436 111.686 47.473 111.71C47.6333 111.689 47.7942 111.675 47.9551 111.661C48.2261 111.638 48.4984 111.629 48.7704 111.624C49.7705 111.604 50.7726 111.622 51.7729 111.622C51.3862 111.462 50.9995 111.302 50.6129 111.142L59.3761 122.074C59.8924 122.719 61.1809 122.723 61.6962 122.074L70.3875 111.142C70.0007 111.302 69.614 111.462 69.2274 111.622C70.2282 111.622 71.2292 111.617 72.23 111.624C72.448 111.625 72.6658 111.637 72.8833 111.65C72.9912 111.657 73.0989 111.665 73.2066 111.675C73.2304 111.678 73.7571 111.742 73.4095 111.694C73.9332 111.767 74.4496 111.885 74.9588 112.026C75.1601 112.082 75.3588 112.147 75.5569 112.213C75.6554 112.247 75.7534 112.282 75.851 112.318C75.8725 112.326 76.3483 112.516 76.0361 112.384C76.5103 112.584 76.9669 112.824 77.4114 113.083C78.9609 113.986 80.1894 115.248 81.1096 116.781C81.3479 117.178 81.5555 117.593 81.7467 118.015C81.8244 118.192 81.8296 118.204 81.7627 118.051C81.8216 118.196 81.8746 118.342 81.9279 118.488C82.017 118.734 82.0933 118.984 82.1663 119.234C82.3143 119.741 82.4185 120.261 82.4988 120.783C82.4763 120.612 82.4769 120.626 82.5008 120.825C82.5191 120.986 82.5309 121.148 82.5426 121.309C82.5624 121.581 82.5678 121.854 82.5696 122.127C82.5755 123.021 83.3114 123.768 84.2102 123.768C85.1001 123.768 85.8568 123.022 85.8508 122.127C85.8121 116.295 82.1445 111.204 76.7231 109.154C74.6322 108.363 72.4467 108.341 70.2484 108.341C69.5066 108.341 68.5495 108.215 68.0285 108.871L67.3332 109.745L59.3759 119.754H61.6961L56.5872 113.381L53.582 109.632L52.9528 108.847C52.417 108.178 51.2888 108.341 50.5261 108.341C48.287 108.341 46.1033 108.434 43.987 109.266C41.3152 110.316 39.0964 112.117 37.4691 114.477C35.9404 116.694 35.1494 119.451 35.1494 122.135V131.624C35.1494 132.518 35.8957 133.264 36.79 133.264H84.2102C85.1046 133.264 85.8508 132.518 85.8508 131.624V122.127C85.8508 121.233 85.1046 120.487 84.2102 120.487C83.3158 120.487 82.5696 121.233 82.5696 122.127Z" fill="#00B8B8"/>
</svg>
