<svg width="173" height="123" viewBox="0 0 173 123" fill="none" xmlns="http://www.w3.org/2000/svg">
<path d="M139.266 0.925537H37.1386C32.4383 0.925537 28.6279 4.73588 28.6279 9.43618V111.564C28.6279 116.264 32.4383 120.074 37.1386 120.074H139.266C143.967 120.074 147.777 116.264 147.777 111.564V9.43618C147.777 4.73588 143.967 0.925537 139.266 0.925537Z" fill="#EBFFFF"/>
<g filter="url(#filter0_d_1300_2247)">
<path d="M47.351 46.883H162.245C163.373 46.883 164.456 47.3313 165.254 48.1293C166.052 48.9274 166.5 50.0097 166.5 51.1383V72.4149C166.5 73.5435 166.052 74.6258 165.254 75.4239C164.456 76.2219 163.373 76.6702 162.245 76.6702H47.351C46.2224 76.6702 45.1401 76.2219 44.3421 75.4239C43.544 74.6258 43.0957 73.5435 43.0957 72.4149V51.1383C43.0957 50.0097 43.544 48.9274 44.3421 48.1293C45.1401 47.3313 46.2224 46.883 47.351 46.883V46.883Z" fill="white"/>
</g>
<path d="M110.329 53.6915H88.2016C86.7915 53.6915 85.6484 54.8346 85.6484 56.2447C85.6484 57.6548 86.7915 58.7979 88.2016 58.7979H110.329C111.739 58.7979 112.882 57.6548 112.882 56.2447C112.882 54.8346 111.739 53.6915 110.329 53.6915Z" fill="#00CCCC"/>
<path d="M125.648 64.7553H88.2016C86.7915 64.7553 85.6484 65.8984 85.6484 67.3085C85.6484 68.7186 86.7915 69.8617 88.2016 69.8617H125.648C127.059 69.8617 128.202 68.7186 128.202 67.3085C128.202 65.8984 127.059 64.7553 125.648 64.7553Z" fill="#D5FEFF"/>
<circle cx="68.9004" cy="61.1922" r="8" fill="#00CCCC"/>
<path d="M67.7811 63.1922H67.0311L68.3966 59.3134H69.264L70.6315 63.1922H69.8815L68.8455 60.1089H68.8152L67.7811 63.1922ZM67.8057 61.6714H69.8511V62.2358H67.8057V61.6714Z" fill="#EBFFFF"/>
<g filter="url(#filter1_d_1300_2247)">
<path d="M10.7553 83.4787H125.649C126.778 83.4787 127.86 83.9271 128.658 84.7251C129.456 85.5231 129.904 86.6055 129.904 87.734V109.011C129.904 110.139 129.456 111.222 128.658 112.02C127.86 112.818 126.778 113.266 125.649 113.266H10.7553C9.62674 113.266 8.54438 112.818 7.74635 112.02C6.94833 111.222 6.5 110.139 6.5 109.011V87.734C6.5 86.6055 6.94833 85.5231 7.74635 84.7251C8.54438 83.9271 9.62674 83.4787 10.7553 83.4787V83.4787Z" fill="white"/>
</g>
<path d="M73.7346 90.2872H51.6069C50.1968 90.2872 49.0537 91.4303 49.0537 92.8404C49.0537 94.2505 50.1968 95.3936 51.6069 95.3936H73.7346C75.1447 95.3936 76.2878 94.2505 76.2878 92.8404C76.2878 91.4303 75.1447 90.2872 73.7346 90.2872Z" fill="#00CCCC"/>
<path d="M89.0537 101.351H51.6069C50.1968 101.351 49.0537 102.494 49.0537 103.904C49.0537 105.314 50.1968 106.457 51.6069 106.457H89.0537C90.4638 106.457 91.6069 105.314 91.6069 103.904C91.6069 102.494 90.4638 101.351 89.0537 101.351Z" fill="#D5FEFF"/>
<circle cx="20.8994" cy="97.4588" r="8" fill="#00CCCC"/>
<path d="M19.0168 95.58H19.8104L20.7593 97.296H20.7971L21.746 95.58H22.5396L21.1286 98.0119V99.4588H20.4278V98.0119L19.0168 95.58Z" fill="#EBFFFF"/>
<g filter="url(#filter2_d_1300_2247)">
<path d="M125.649 10.2872H10.7553C8.40517 10.2872 6.5 12.1924 6.5 14.5426V35.8191C6.5 38.1693 8.40517 40.0745 10.7553 40.0745H125.649C127.999 40.0745 129.904 38.1693 129.904 35.8191V14.5426C129.904 12.1924 127.999 10.2872 125.649 10.2872Z" fill="white"/>
</g>
<path d="M72.0324 17.0957H49.9048C48.4947 17.0957 47.3516 18.2388 47.3516 19.6489C47.3516 21.059 48.4947 22.2021 49.9048 22.2021H72.0324C73.4425 22.2021 74.5856 21.059 74.5856 19.6489C74.5856 18.2388 73.4425 17.0957 72.0324 17.0957Z" fill="#00CCCC"/>
<path d="M87.3516 28.1596H49.9048C48.4947 28.1596 47.3516 29.3027 47.3516 30.7128C47.3516 32.1229 48.4947 33.266 49.9048 33.266H87.3516C88.7617 33.266 89.9048 32.1229 89.9048 30.7128C89.9048 29.3027 88.7617 28.1596 87.3516 28.1596Z" fill="#D5FEFF"/>
<circle cx="31.5664" cy="24.9255" r="8" fill="#00CCCC"/>
<path d="M29.949 26.9255V23.0467H32.4717V23.6358H30.6516V24.6888H32.341V25.2778H30.6516V26.3365H32.4869V26.9255H29.949Z" fill="#EBFFFF"/>
<defs>
<filter id="filter0_d_1300_2247" x="37.0957" y="43.883" width="135.404" height="41.7872" filterUnits="userSpaceOnUse" color-interpolation-filters="sRGB">
<feFlood flood-opacity="0" result="BackgroundImageFix"/>
<feColorMatrix in="SourceAlpha" type="matrix" values="0 0 0 0 0 0 0 0 0 0 0 0 0 0 0 0 0 0 127 0" result="hardAlpha"/>
<feOffset dy="3"/>
<feGaussianBlur stdDeviation="3"/>
<feColorMatrix type="matrix" values="0 0 0 0 0 0 0 0 0 0 0 0 0 0 0 0 0 0 0.161 0"/>
<feBlend mode="normal" in2="BackgroundImageFix" result="effect1_dropShadow_1300_2247"/>
<feBlend mode="normal" in="SourceGraphic" in2="effect1_dropShadow_1300_2247" result="shape"/>
</filter>
<filter id="filter1_d_1300_2247" x="0.5" y="80.4787" width="135.404" height="41.7872" filterUnits="userSpaceOnUse" color-interpolation-filters="sRGB">
<feFlood flood-opacity="0" result="BackgroundImageFix"/>
<feColorMatrix in="SourceAlpha" type="matrix" values="0 0 0 0 0 0 0 0 0 0 0 0 0 0 0 0 0 0 127 0" result="hardAlpha"/>
<feOffset dy="3"/>
<feGaussianBlur stdDeviation="3"/>
<feColorMatrix type="matrix" values="0 0 0 0 0 0 0 0 0 0 0 0 0 0 0 0 0 0 0.161 0"/>
<feBlend mode="normal" in2="BackgroundImageFix" result="effect1_dropShadow_1300_2247"/>
<feBlend mode="normal" in="SourceGraphic" in2="effect1_dropShadow_1300_2247" result="shape"/>
</filter>
<filter id="filter2_d_1300_2247" x="0.5" y="7.28723" width="135.404" height="41.7872" filterUnits="userSpaceOnUse" color-interpolation-filters="sRGB">
<feFlood flood-opacity="0" result="BackgroundImageFix"/>
<feColorMatrix in="SourceAlpha" type="matrix" values="0 0 0 0 0 0 0 0 0 0 0 0 0 0 0 0 0 0 127 0" result="hardAlpha"/>
<feOffset dy="3"/>
<feGaussianBlur stdDeviation="3"/>
<feColorMatrix type="matrix" values="0 0 0 0 0 0 0 0 0 0 0 0 0 0 0 0 0 0 0.161 0"/>
<feBlend mode="normal" in2="BackgroundImageFix" result="effect1_dropShadow_1300_2247"/>
<feBlend mode="normal" in="SourceGraphic" in2="effect1_dropShadow_1300_2247" result="shape"/>
</filter>
</defs>
</svg>
