<svg width="198" height="94" viewBox="0 0 198 94" fill="none" xmlns="http://www.w3.org/2000/svg">
<rect x="0.692383" y="1.04971" width="160.317" height="18.1491" rx="7.75463" fill="#EBFFFF"/>
<rect x="55.8955" y="37.3479" width="140" height="18.1491" rx="7.75463" fill="#EBFFFF"/>
<rect x="25.6475" y="74.4023" width="110.407" height="18.1491" rx="7.75463" fill="#EBFFFF"/>
<circle cx="188.233" cy="10.1243" r="9.07456" fill="#EBFFFF"/>
<g clip-path="url(#clip0_1992_1055)">
<path d="M165.498 23.1541V23.9502H167.565C168.275 23.9502 168.922 24.2408 169.389 24.7082C169.856 25.1752 170.147 25.8221 170.147 26.5331V47.3835C170.147 48.1198 169.55 48.7167 168.814 48.7167C168.078 48.7167 167.481 48.1194 167.481 47.3835V26.6171H165.499V79.8416C165.499 79.9988 165.471 80.1492 165.421 80.2893L161.99 92.4008C161.792 93.1083 161.057 93.5212 160.349 93.3227C159.882 93.1917 159.544 92.8273 159.424 92.3906L155.971 80.2011C155.937 80.0814 155.922 79.9602 155.921 79.8416L155.919 30.1181L155.919 30.0836L155.919 30.0492V25.318L155.919 25.2835L155.919 25.249L155.919 23.1537C155.919 21.839 156.458 20.6421 157.325 19.7747L157.33 19.7698C158.197 18.9028 159.394 18.3638 160.709 18.3638C162.024 18.3638 163.22 18.9028 164.088 19.7698L164.093 19.7747C164.96 20.6421 165.499 21.8386 165.499 23.1537L165.498 23.1541ZM154.531 90.7085C155.267 90.7085 155.864 91.3058 155.864 92.0417C155.864 92.7781 155.267 93.375 154.531 93.375H102.331C101.595 93.375 100.998 92.7777 100.998 92.0417V18.5608H92.2454C91.509 18.5608 90.9121 17.9634 90.9121 17.2275V6.37617C90.9121 4.62171 91.6295 3.0271 92.7844 1.87224C93.9388 0.717753 95.5338 0.000366211 97.2883 0.000366211H150.623C153.764 0.000366211 156.62 1.28553 158.688 3.35398C160.758 5.42319 162.042 8.2791 162.042 11.4198V15.4261C162.042 16.1624 161.445 16.7593 160.709 16.7593C159.973 16.7593 159.376 16.162 159.376 15.4261V11.4198C159.376 9.01504 158.391 6.82614 156.804 5.23911C155.217 3.65245 153.029 2.66727 150.623 2.66727H102.469C103.221 3.71343 103.665 4.99556 103.665 6.37655V90.7088H154.532L154.531 90.7085ZM100.998 6.37617C100.998 5.35766 100.579 4.42968 99.9071 3.75736L99.8518 3.69828C99.1844 3.06043 98.2795 2.66689 97.2879 2.66689C96.2694 2.66689 95.3414 3.08505 94.6691 3.75736C93.9964 4.43006 93.5783 5.35766 93.5783 6.37617V15.8942H100.998V6.37617ZM111.344 80.6018C110.607 80.6018 110.01 80.0045 110.01 79.2685C110.01 78.5322 110.608 77.9353 111.344 77.9353H141.549C142.286 77.9353 142.882 78.5326 142.882 79.2685C142.882 80.0049 142.285 80.6018 141.549 80.6018H111.344ZM111.344 68.8032C110.607 68.8032 110.01 68.2059 110.01 67.4699C110.01 66.7336 110.608 66.1367 111.344 66.1367H151.696C152.433 66.1367 153.03 66.734 153.03 67.4699C153.03 68.2062 152.432 68.8032 151.696 68.8032H111.344ZM111.344 57.0046C110.607 57.0046 110.01 56.4072 110.01 55.6713C110.01 54.935 110.608 54.338 111.344 54.338H127.626C128.362 54.338 128.959 54.9354 128.959 55.6713C128.959 56.4076 128.362 57.0046 127.626 57.0046H111.344ZM131.52 8.61658C136.526 8.61658 141.061 10.6464 144.342 13.928C147.624 17.2093 149.654 21.7435 149.654 26.7505C149.654 31.757 147.624 36.2916 144.342 39.5729C141.061 42.8542 136.527 44.8844 131.52 44.8844C126.513 44.8844 121.979 42.8545 118.697 39.5729C115.416 36.2916 113.386 31.7574 113.386 26.7505C113.386 21.7439 115.416 17.2093 118.697 13.928C121.979 10.6468 126.513 8.61658 131.52 8.61658ZM142.457 15.8132C139.659 13.0148 135.791 11.2835 131.52 11.2835C127.248 11.2835 123.381 13.0148 120.583 15.8132C117.784 18.6115 116.053 22.4791 116.053 26.7505C116.053 31.0218 117.784 34.8894 120.583 37.6878C123.381 40.4861 127.248 42.2175 131.52 42.2175C135.791 42.2175 139.659 40.4861 142.457 37.6878C145.255 34.8894 146.987 31.0218 146.987 26.7505C146.987 22.4791 145.255 18.6115 142.457 15.8132ZM132.853 37.6529C132.853 38.3893 132.256 38.9862 131.52 38.9862C130.784 38.9862 130.187 38.3889 130.187 37.6529V36.1738H129.054C127.573 36.1738 126.228 35.5686 125.254 34.5948C124.28 33.6209 123.675 32.2752 123.675 30.7953C123.675 30.059 124.272 29.4621 125.008 29.4621C125.745 29.4621 126.342 30.0594 126.342 30.7953C126.342 31.5396 126.647 32.218 127.139 32.7096C127.631 33.2013 128.309 33.5069 129.053 33.5069H133.986C134.731 33.5069 135.409 33.2013 135.901 32.7096C136.392 32.218 136.698 31.5396 136.698 30.7953C136.698 30.0511 136.392 29.3727 135.901 28.881C135.409 28.3894 134.731 28.0837 133.986 28.0837H129.053C127.573 28.0837 126.228 27.4785 125.254 26.5047C124.28 25.5308 123.675 24.1851 123.675 22.7052C123.675 21.225 124.28 19.8796 125.254 18.9058C126.228 17.932 127.573 17.3267 129.053 17.3267H130.187V15.8476C130.187 15.1113 130.784 14.5144 131.52 14.5144C132.256 14.5144 132.853 15.1117 132.853 15.8476V17.3267H133.986C135.467 17.3267 136.812 17.932 137.786 18.9058C138.76 19.8796 139.365 21.2254 139.365 22.7052C139.365 23.4416 138.768 24.0385 138.032 24.0385C137.295 24.0385 136.698 23.4412 136.698 22.7052C136.698 21.961 136.393 21.2826 135.901 20.7909C135.409 20.2993 134.731 19.9936 133.987 19.9936H129.054C128.309 19.9936 127.631 20.2993 127.139 20.7909C126.648 21.2826 126.342 21.961 126.342 22.7052C126.342 23.4495 126.648 24.1279 127.139 24.6195C127.631 25.1112 128.309 25.4168 129.054 25.4168H133.987C135.467 25.4168 136.812 26.0221 137.786 26.9959C138.76 27.9697 139.365 29.3155 139.365 30.7953C139.365 32.2756 138.76 33.6209 137.786 34.5948C136.812 35.5686 135.467 36.1738 133.987 36.1738H132.853V37.6529ZM158.586 23.9502H162.832V23.1541C162.832 22.5693 162.593 22.0378 162.21 21.6534C161.825 21.2697 161.294 21.0315 160.709 21.0315C160.124 21.0315 159.593 21.2701 159.209 21.6534C158.825 22.0382 158.587 22.5696 158.587 23.1541V23.9502H158.586ZM162.832 26.6171H158.586V28.7504H162.832V26.6171ZM162.832 31.4173H158.586V79.6666L160.709 87.1598L162.832 79.6666V31.4173Z" fill="#00A3A3"/>
</g>
<defs>
<clipPath id="clip0_1992_1055">
<rect width="79.236" height="93.375" fill="white" transform="translate(90.9111)"/>
</clipPath>
</defs>
</svg>
