<svg width="32" height="32" viewBox="0 0 32 32" fill="none" xmlns="http://www.w3.org/2000/svg">
<path d="M22.6667 13.333H21.3333C21.3333 11.9185 20.7714 10.562 19.7712 9.56177C18.771 8.56158 17.4145 7.99967 16 7.99967V6.66634C17.7681 6.66634 19.4638 7.36872 20.714 8.61896C21.9643 9.86921 22.6667 11.5649 22.6667 13.333ZM27.3333 24.6663C27.3333 25.1968 27.1226 25.7055 26.7475 26.0806C26.3725 26.4556 25.8638 26.6663 25.3333 26.6663H20.6133C20.4451 27.7694 19.8873 28.7756 19.0409 29.5027C18.1946 30.2297 17.1158 30.6295 16 30.6295C14.8842 30.6295 13.8054 30.2297 12.9591 29.5027C12.1127 28.7756 11.5549 27.7694 11.3867 26.6663H6.66667C6.13624 26.6663 5.62753 26.4556 5.25246 26.0806C4.87739 25.7055 4.66667 25.1968 4.66667 24.6663C4.66667 24.1359 4.87739 23.6272 5.25246 23.2521C5.62753 22.8771 6.13624 22.6663 6.66667 22.6663V13.333C6.66907 10.9747 7.56414 8.70472 9.17194 6.97943C10.7797 5.25414 12.981 4.20146 15.3333 4.03301V1.33301H16.6667V4.03301C19.019 4.20146 21.2203 5.25414 22.8281 6.97943C24.4359 8.70472 25.3309 10.9747 25.3333 13.333V22.6663C25.8638 22.6663 26.3725 22.8771 26.7475 23.2521C27.1226 23.6272 27.3333 24.1359 27.3333 24.6663ZM8 22.6663H24V13.333C24 11.2113 23.1572 9.17645 21.6569 7.67615C20.1566 6.17586 18.1217 5.33301 16 5.33301C13.8783 5.33301 11.8434 6.17586 10.3432 7.67615C8.84286 9.17645 8.00001 11.2113 8 13.333V22.6663ZM19.2667 26.6663H12.7333C12.8863 27.4199 13.2952 28.0973 13.8905 28.5839C14.4858 29.0705 15.2311 29.3363 16 29.3363C16.7689 29.3363 17.5142 29.0705 18.1095 28.5839C18.7049 28.0973 19.1137 27.4199 19.2667 26.6663ZM26 24.6663C26 24.4895 25.9298 24.32 25.8047 24.1949C25.6797 24.0699 25.5101 23.9997 25.3333 23.9997H6.66667C6.48986 23.9997 6.32029 24.0699 6.19527 24.1949C6.07024 24.32 6.00001 24.4895 6.00001 24.6663C6.00001 24.8432 6.07024 25.0127 6.19527 25.1377C6.32029 25.2628 6.48986 25.333 6.66667 25.333H25.3333C25.5101 25.333 25.6797 25.2628 25.8047 25.1377C25.9298 25.0127 26 24.8432 26 24.6663Z" fill="#00CCCC"/>
</svg>
