<svg width="32" height="33" viewBox="0 0 32 33" fill="none" xmlns="http://www.w3.org/2000/svg">
<path d="M16 30.297C16.8287 30.2988 17.6375 30.0432 18.3146 29.5655C18.9917 29.0878 19.5038 28.4116 19.78 27.6304H12.22C12.4962 28.4116 13.0083 29.0878 13.6854 29.5655C14.3625 30.0432 15.1713 30.2988 16 30.297ZM26.2533 24.4704L25.3333 22.1704V15.6304C25.3325 13.4692 24.5817 11.3752 23.2091 9.70589C21.8364 8.03658 19.927 6.89537 17.8067 6.47702C17.9514 6.17217 18.0167 5.83565 17.9964 5.49879C17.9761 5.16193 17.8709 4.83569 17.6905 4.55044C17.5102 4.26519 17.2606 4.03021 16.965 3.86737C16.6694 3.70453 16.3375 3.61914 16 3.61914C15.6625 3.61914 15.3305 3.70453 15.035 3.86737C14.7394 4.03021 14.4898 4.26519 14.3095 4.55044C14.1291 4.83569 14.0239 5.16193 14.0036 5.49879C13.9833 5.83565 14.0486 6.17217 14.1933 6.47702C12.073 6.89537 10.1636 8.03658 8.79092 9.70589C7.41827 11.3752 6.66747 13.4692 6.66666 15.6304V22.1704L5.74666 24.4704C5.66607 24.6727 5.63628 24.8918 5.65991 25.1083C5.68353 25.3249 5.75986 25.5323 5.8822 25.7126C6.00455 25.8928 6.16919 26.0403 6.36173 26.1422C6.55426 26.2441 6.76883 26.2972 6.98666 26.297H24.9867C25.2045 26.2972 25.4191 26.2441 25.6116 26.1422C25.8041 26.0403 25.9688 25.8928 26.0911 25.7126C26.2135 25.5323 26.2898 25.3249 26.3134 25.1083C26.337 24.8918 26.3073 24.6727 26.2267 24.4704H26.2533Z" fill="#42C3CF"/>
</svg>
