<svg width="33" height="33" viewBox="0 0 33 33" fill="none" xmlns="http://www.w3.org/2000/svg">
<g clip-path="url(#clip0_1597_901)">
<path d="M28.75 24.9636C28.75 25.494 28.5393 26.0027 28.1642 26.3778C27.7891 26.7528 27.2804 26.9636 26.75 26.9636H6.25C5.71957 26.9636 5.21086 26.7528 4.83579 26.3778C4.46071 26.0027 4.25 25.494 4.25 24.9636C4.25 24.4331 4.46071 23.9244 4.83579 23.5493C5.21086 23.1743 5.71957 22.9636 6.25 22.9636H7V14.9636C7.00291 12.9713 7.63209 11.0304 8.79854 9.41528C9.96499 7.80019 11.6097 6.59269 13.5 5.96356C15.4467 5.31032 17.5533 5.31032 19.5 5.96356C21.3903 6.59269 23.035 7.80019 24.2015 9.41528C25.3679 11.0304 25.9971 12.9713 26 14.9636V22.9636H26.75C27.2804 22.9636 27.7891 23.1743 28.1642 23.5493C28.5393 23.9244 28.75 24.4331 28.75 24.9636Z" fill="#00CCCC"/>
<path d="M19.5 4.96387V5.96387C17.5533 5.31063 15.4467 5.31063 13.5 5.96387V4.96387C13.5 4.16822 13.8161 3.40516 14.3787 2.84255C14.9413 2.27994 15.7044 1.96387 16.5 1.96387C17.2956 1.96387 18.0587 2.27994 18.6213 2.84255C19.1839 3.40516 19.5 4.16822 19.5 4.96387Z" fill="#FAA951"/>
<path d="M21.5 26.9639C21.5 28.2899 20.9732 29.5617 20.0355 30.4994C19.0979 31.4371 17.8261 31.9639 16.5 31.9639C15.1739 31.9639 13.9021 31.4371 12.9645 30.4994C12.0268 29.5617 11.5 28.2899 11.5 26.9639H21.5Z" fill="#00459A"/>
</g>
<defs>
<clipPath id="clip0_1597_901">
<rect width="32" height="32" fill="white" transform="translate(0.5 0.963867)"/>
</clipPath>
</defs>
</svg>
