<svg width="151" height="142" viewBox="0 0 151 142" fill="none" xmlns="http://www.w3.org/2000/svg">
<circle cx="87.9467" cy="62.9257" r="62.5531" fill="#EBFFFF"/>
<path d="M77.482 39.2376L77.915 39.4876L78.165 39.0546L79.8925 36.0625C82.1145 32.2139 87.0356 30.8953 90.8842 33.1173C94.7328 35.3393 96.0514 40.2604 93.8294 44.109L92.102 47.1011L91.852 47.5341L92.285 47.7841C105.614 55.4794 110.18 72.5227 102.485 85.8513L85.392 115.457C83.2454 119.175 84.5193 123.93 88.2374 126.076C88.694 126.34 88.8505 126.924 88.5868 127.38L83.5861 136.042C83.1719 136.759 82.2545 137.005 81.5371 136.591L2.48242 90.9488C1.76498 90.5345 1.51916 89.6172 1.93338 88.8997L6.8432 80.3957C7.15705 79.8521 7.85216 79.6658 8.39577 79.9797L9.04914 80.3569C12.8412 82.5462 17.6901 81.247 19.8795 77.4549L35.4404 50.5026C43.9391 35.7824 62.7618 30.7389 77.482 39.2376Z" fill="#00CCCC" stroke="#00A3A3"/>
<mask id="path-3-inside-1_1300_1398" fill="white">
<path d="M47.2827 119.911C45.7394 122.584 45.3212 125.761 46.12 128.742C46.9189 131.723 48.8694 134.265 51.5424 135.809C54.2154 137.352 57.392 137.77 60.3734 136.971C63.3547 136.172 65.8966 134.222 67.4399 131.549L57.3613 125.73L47.2827 119.911Z"/>
</mask>
<path d="M47.2827 119.911C45.7394 122.584 45.3212 125.761 46.12 128.742C46.9189 131.723 48.8694 134.265 51.5424 135.809C54.2154 137.352 57.392 137.77 60.3734 136.971C63.3547 136.172 65.8966 134.222 67.4399 131.549L57.3613 125.73L47.2827 119.911Z" fill="#00CCCC" stroke="#00A3A3" stroke-width="2" mask="url(#path-3-inside-1_1300_1398)"/>
<circle cx="44.6693" cy="17.4656" r="4.72785" fill="#00CCCC"/>
<circle cx="121.041" cy="76.3819" r="4.22785" fill="#00CCCC" stroke="#00A3A3"/>
<circle cx="13.3919" cy="64.7442" r="4.22785" stroke="#00CCCC"/>
</svg>
