<svg width="21" height="20" viewBox="0 0 21 20" fill="none" xmlns="http://www.w3.org/2000/svg">
<path d="M10.1492 10.0466C12.3482 10.0466 14.1308 8.26393 14.1308 6.06492C14.1308 3.8659 12.3482 2.08325 10.1492 2.08325C7.95015 2.08325 6.1675 3.8659 6.1675 6.06492C6.1675 8.26393 7.95015 10.0466 10.1492 10.0466Z" stroke="#1D2E2E" stroke-opacity="0.8" stroke-width="1.5" stroke-linecap="round" stroke-linejoin="round"/>
<path fill-rule="evenodd" clip-rule="evenodd" d="M3.83333 15.5844C3.83227 15.3045 3.89487 15.028 4.01641 14.7758C4.39779 14.0131 5.47331 13.6088 6.36576 13.4257C7.00939 13.2884 7.66191 13.1966 8.31847 13.1511C9.53402 13.0444 10.7566 13.0444 11.9722 13.1511C12.6287 13.1971 13.2811 13.2889 13.9249 13.4257C14.8173 13.6088 15.8928 13.9749 16.2742 14.7758C16.5186 15.2898 16.5186 15.8866 16.2742 16.4006C15.8928 17.2015 14.8173 17.5676 13.9249 17.743C13.282 17.8861 12.6292 17.9804 11.9722 18.0253C10.9828 18.1091 9.98881 18.1244 8.99734 18.071C8.7685 18.071 8.5473 18.071 8.31847 18.0253C7.66385 17.981 7.01359 17.8866 6.37339 17.743C5.47331 17.5676 4.40542 17.2015 4.01641 16.4006C3.89549 16.1455 3.83295 15.8667 3.83333 15.5844Z" stroke="#1D2E2E" stroke-opacity="0.8" stroke-width="1.5" stroke-linecap="round" stroke-linejoin="round"/>
</svg>
