<svg width="21" height="20" viewBox="0 0 21 20" fill="none" xmlns="http://www.w3.org/2000/svg">
<path d="M10.1492 10.0467C12.3482 10.0467 14.1308 8.26405 14.1308 6.06504C14.1308 3.86603 12.3482 2.08337 10.1492 2.08337C7.95015 2.08337 6.1675 3.86603 6.1675 6.06504C6.1675 8.26405 7.95015 10.0467 10.1492 10.0467Z" stroke="#00A3A3" stroke-width="1.5" stroke-linecap="round" stroke-linejoin="round"/>
<path fill-rule="evenodd" clip-rule="evenodd" d="M3.83333 15.5845C3.83227 15.3046 3.89487 15.0281 4.01641 14.776C4.39779 14.0132 5.47331 13.6089 6.36576 13.4258C7.00939 13.2885 7.66191 13.1967 8.31847 13.1512C9.53402 13.0445 10.7566 13.0445 11.9722 13.1512C12.6287 13.1973 13.2811 13.289 13.9249 13.4258C14.8173 13.6089 15.8928 13.975 16.2742 14.776C16.5186 15.29 16.5186 15.8867 16.2742 16.4007C15.8928 17.2016 14.8173 17.5677 13.9249 17.7432C13.282 17.8862 12.6292 17.9805 11.9722 18.0254C10.9828 18.1093 9.98881 18.1246 8.99734 18.0712C8.7685 18.0712 8.5473 18.0712 8.31847 18.0254C7.66385 17.9811 7.01359 17.8867 6.37339 17.7432C5.47331 17.5677 4.40542 17.2016 4.01641 16.4007C3.89549 16.1456 3.83295 15.8668 3.83333 15.5845Z" stroke="#00A3A3" stroke-width="1.5" stroke-linecap="round" stroke-linejoin="round"/>
</svg>
