<svg width="150" height="194" viewBox="0 0 150 194" fill="none" xmlns="http://www.w3.org/2000/svg">
<circle cx="75" cy="75" r="75" fill="#EBFFFF"/>
<rect x="45.5306" y="73.4204" width="73.5245" height="102.895" rx="7" transform="rotate(2.5 45.5306 73.4204)" fill="#00CCCC" stroke="#00A3A3" stroke-width="2"/>
<rect x="1.98057" y="67.3644" width="77.5245" height="106.895" rx="9" transform="rotate(-7.5 1.98057 67.3644)" fill="#FAFAFA" stroke="#00A3A3" stroke-width="2"/>
<path d="M4.14675 76.1569C3.57005 71.7764 6.65362 67.7578 11.0341 67.1811L70.0493 59.4116C74.4298 58.8349 78.4484 61.9185 79.0251 66.299L81.1299 82.2869L6.2516 92.1448L4.14675 76.1569Z" fill="#00CCCC"/>
<rect x="94.2646" y="61.5137" width="3.14685" height="10.4895" rx="1.57343" transform="rotate(82.5 94.2646 61.5137)" fill="#00CCCC"/>
<rect x="65.5273" y="44.1372" width="3.14685" height="10.4895" rx="1.57343" transform="rotate(-7.5 65.5273 44.1372)" fill="#00CCCC"/>
<rect x="83.9648" y="46.9998" width="3.14685" height="10.4895" rx="1.57343" transform="rotate(37.5 83.9648 46.9998)" fill="#00CCCC"/>
<rect x="14.0791" y="95.3467" width="60.8392" height="4.1958" rx="2" transform="rotate(-7.5 14.0791 95.3467)" fill="#00CCCC"/>
<rect x="16.8174" y="116.146" width="60.8392" height="4.1958" rx="2" transform="rotate(-7.5 16.8174 116.146)" fill="#00CCCC"/>
<rect x="19.5557" y="136.946" width="60.8392" height="4.1958" rx="2" transform="rotate(-7.5 19.5557 136.946)" fill="#00CCCC"/>
<rect x="15.1748" y="103.666" width="22.028" height="4.1958" rx="2" transform="rotate(-7.5 15.1748 103.666)" fill="#D5FFFF"/>
<rect x="17.9131" y="124.466" width="22.028" height="4.1958" rx="2" transform="rotate(-7.5 17.9131 124.466)" fill="#D5FFFF"/>
<rect x="20.6514" y="145.265" width="22.028" height="4.1958" rx="2" transform="rotate(-7.5 20.6514 145.265)" fill="#D5FFFF"/>
</svg>
