<svg width="18" height="16" viewBox="0 0 18 16" fill="none" xmlns="http://www.w3.org/2000/svg">
<path d="M12.803 7.52044L9.47238 4.18985C9.40903 4.12921 9.33432 4.08167 9.25256 4.04997C9.09038 3.98334 8.90848 3.98334 8.74631 4.04997C8.66454 4.08167 8.58984 4.12921 8.52649 4.18985L5.1959 7.52044C5.13379 7.58255 5.08453 7.65628 5.05091 7.73743C5.0173 7.81858 5 7.90555 5 7.99338C5 8.17077 5.07047 8.3409 5.1959 8.46633C5.32133 8.59176 5.49146 8.66223 5.66884 8.66223C5.84623 8.66223 6.01635 8.59176 6.14179 8.46633L8.33331 6.26814V11.324C8.33331 11.5006 8.40349 11.6701 8.52842 11.795C8.65334 11.9199 8.82277 11.9901 8.99943 11.9901C9.1761 11.9901 9.34553 11.9199 9.47045 11.795C9.59537 11.6701 9.66555 11.5006 9.66555 11.324V6.26814L11.8571 8.46633C11.919 8.52876 11.9927 8.57832 12.0738 8.61214C12.155 8.64595 12.2421 8.66336 12.33 8.66336C12.418 8.66336 12.505 8.64595 12.5862 8.61214C12.6674 8.57832 12.741 8.52876 12.803 8.46633C12.8654 8.4044 12.915 8.33073 12.9488 8.24956C12.9826 8.16839 13 8.08132 13 7.99338C13 7.90545 12.9826 7.81838 12.9488 7.73721C12.915 7.65604 12.8654 7.58237 12.803 7.52044Z" fill="#FBB13C"/>
<rect x="0.9" y="1.6998" width="16.2" height="12.6" rx="1.1" stroke="#FBB13C" stroke-width="1.8"/>
</svg>
