<svg width="24" height="20" viewBox="0 0 24 20" fill="none" xmlns="http://www.w3.org/2000/svg">
<path d="M7.2463 10.5868L11.4095 14.75C11.4887 14.8258 11.5821 14.8852 11.6843 14.9248C11.887 15.0081 12.1144 15.0081 12.3171 14.9248C12.4193 14.8852 12.5127 14.8258 12.5919 14.75L16.7551 10.5868C16.8328 10.5091 16.8943 10.417 16.9364 10.3155C16.9784 10.2141 17 10.1054 17 9.99557C17 9.77384 16.9119 9.56118 16.7551 9.40439C16.5983 9.2476 16.3857 9.15952 16.1639 9.15952C15.9422 9.15952 15.7296 9.2476 15.5728 9.40439L12.8334 12.1521V5.83234C12.8334 5.61151 12.7456 5.39972 12.5895 5.24357C12.4333 5.08742 12.2215 4.99969 12.0007 4.99969C11.7799 4.99969 11.5681 5.08742 11.4119 5.24357C11.2558 5.39972 11.1681 5.61151 11.1681 5.83234V12.1521L8.42865 9.40439C8.35125 9.32635 8.25916 9.26441 8.15769 9.22214C8.05623 9.17986 7.94739 9.1581 7.83747 9.1581C7.72756 9.1581 7.61872 9.17986 7.51726 9.22214C7.41579 9.26441 7.3237 9.32635 7.2463 9.40439C7.16825 9.4818 7.10631 9.57389 7.06404 9.67536C7.02176 9.77682 7 9.88565 7 9.99557C7 10.1055 7.02176 10.2143 7.06404 10.3158C7.10631 10.4173 7.16825 10.5093 7.2463 10.5868Z" fill="#1D2E2E" fill-opacity="0.8"/>
<rect x="0.9" y="1.2999" width="22.2" height="17.4" rx="1.1" stroke="#1D2E2E" stroke-opacity="0.8" stroke-width="1.8"/>
</svg>
