<svg width="151" height="134" viewBox="0 0 151 134" fill="none" xmlns="http://www.w3.org/2000/svg">
<circle cx="82.0816" cy="66.3958" r="62.5787" fill="#EBFFFF"/>
<path d="M91.8048 51.6318L150.5 68.1962L144.379 133.374L74.1602 115.729L91.8048 51.6318Z" fill="#00B8B8"/>
<path d="M150.14 67.8361L88.564 51.9919C85.5633 56.3131 77.8332 67.476 70.9194 77.5587C64.0055 87.6414 51.9543 100.005 46.793 104.926L118.812 126.172C120.132 125.451 125.726 120.194 137.537 104.926C149.348 89.6579 150.861 73.8377 150.14 67.8361Z" fill="#FAFAFA" stroke="#00A3A3" stroke-width="0.818293"/>
<circle cx="93.9657" cy="68.9164" r="2.88076" fill="#00B8B8"/>
<circle cx="85.3222" cy="84.0404" r="2.88076" fill="#00B8B8"/>
<circle cx="76.6806" cy="97.724" r="2.88076" fill="#00B8B8"/>
<circle cx="36.0858" cy="36.2118" r="26.2299" transform="rotate(25.8347 36.0858 36.2118)" fill="#00CCCC" stroke="#00A3A3" stroke-width="0.818293"/>
<rect width="14.4038" height="2.16057" transform="matrix(1 0 0 -1 27.8037 43.7737)" fill="#00B8B8"/>
<circle cx="20.9611" cy="31.8905" r="3.96105" fill="#00B8B8"/>
<circle cx="49.0489" cy="31.8905" r="3.96105" fill="#00B8B8"/>
</svg>
