<svg width="81" height="32" viewBox="0 0 81 32" fill="none" xmlns="http://www.w3.org/2000/svg">
<rect width="81" height="32" rx="8" fill="#00CCCC"/>
<path d="M30.6719 13.4929C30.6188 13.0223 30.4001 12.6577 30.0156 12.3991C29.6312 12.1373 29.1473 12.0064 28.5639 12.0064C28.1463 12.0064 27.785 12.0727 27.4801 12.2053C27.1752 12.3345 26.9382 12.5135 26.7692 12.7422C26.6035 12.9676 26.5206 13.2244 26.5206 13.5128C26.5206 13.7547 26.5769 13.9635 26.6896 14.1392C26.8056 14.3149 26.9564 14.4624 27.142 14.5817C27.331 14.6977 27.5331 14.7955 27.7486 14.875C27.964 14.9512 28.1712 15.0142 28.37 15.0639L29.3643 15.3224C29.6892 15.402 30.0223 15.5097 30.3636 15.6456C30.705 15.7815 31.0215 15.9605 31.3132 16.1825C31.6049 16.4046 31.8402 16.6797 32.0192 17.0078C32.2015 17.3359 32.2926 17.7287 32.2926 18.1861C32.2926 18.7628 32.1435 19.2749 31.8452 19.7223C31.5502 20.1697 31.121 20.5227 30.5575 20.7812C29.9974 21.0398 29.3196 21.169 28.5241 21.169C27.7618 21.169 27.1023 21.0481 26.5455 20.8061C25.9886 20.5642 25.5528 20.2211 25.2379 19.777C24.9231 19.3295 24.7491 18.7992 24.7159 18.1861H26.2571C26.2869 18.554 26.4063 18.8606 26.6151 19.1058C26.8272 19.3478 27.0973 19.5284 27.4254 19.6477C27.7569 19.7637 28.1198 19.8217 28.5142 19.8217C28.9484 19.8217 29.3345 19.7538 29.6726 19.6179C30.014 19.4787 30.2824 19.2865 30.478 19.0412C30.6735 18.7926 30.7713 18.5026 30.7713 18.1712C30.7713 17.8696 30.6851 17.6226 30.5128 17.4304C30.3438 17.2382 30.1134 17.0791 29.8217 16.9531C29.5334 16.8272 29.2069 16.7161 28.8423 16.62L27.6392 16.2919C26.8239 16.0698 26.1776 15.7434 25.7003 15.3125C25.2263 14.8816 24.9893 14.3116 24.9893 13.6023C24.9893 13.0156 25.1484 12.5036 25.4666 12.0661C25.7848 11.6286 26.2157 11.2888 26.7592 11.0469C27.3028 10.8016 27.916 10.679 28.5987 10.679C29.2881 10.679 29.8963 10.8 30.4233 11.0419C30.9536 11.2839 31.3712 11.617 31.6761 12.0412C31.9811 12.4621 32.1402 12.946 32.1534 13.4929H30.6719ZM36.2314 21.169C35.7475 21.169 35.31 21.0795 34.9189 20.9006C34.5278 20.7183 34.2179 20.4548 33.9892 20.1101C33.7638 19.7654 33.6511 19.3428 33.6511 18.8423C33.6511 18.4115 33.734 18.0568 33.8997 17.7784C34.0654 17.5 34.2891 17.2796 34.5708 17.1172C34.8526 16.9548 35.1674 16.8321 35.5154 16.7493C35.8635 16.6664 36.2181 16.6035 36.5794 16.5604C37.0368 16.5073 37.408 16.4643 37.693 16.4311C37.978 16.3946 38.1852 16.3366 38.3145 16.2571C38.4437 16.1776 38.5083 16.0483 38.5083 15.8693V15.8345C38.5083 15.4003 38.3857 15.0639 38.1404 14.8253C37.8985 14.5866 37.5372 14.4673 37.0566 14.4673C36.5562 14.4673 36.1618 14.5784 35.8734 14.8004C35.5884 15.0192 35.3912 15.2628 35.2818 15.5312L33.8848 15.2131C34.0505 14.7491 34.2924 14.3745 34.6106 14.0895C34.9321 13.8011 35.3017 13.5923 35.7193 13.4631C36.1369 13.3305 36.5761 13.2642 37.0368 13.2642C37.3417 13.2642 37.6648 13.3007 38.0062 13.3736C38.3509 13.4432 38.6724 13.5724 38.9707 13.7614C39.2723 13.9503 39.5192 14.2204 39.7115 14.5717C39.9037 14.9197 39.9998 15.3722 39.9998 15.929V21H38.5481V19.956H38.4885C38.3923 20.1482 38.2482 20.3371 38.0559 20.5227C37.8637 20.7083 37.6168 20.8625 37.3152 20.9851C37.0136 21.1077 36.6523 21.169 36.2314 21.169ZM36.5545 19.9759C36.9655 19.9759 37.3168 19.8946 37.6085 19.7322C37.9035 19.5698 38.1272 19.3577 38.2797 19.0959C38.4354 18.8307 38.5133 18.5473 38.5133 18.2457V17.2614C38.4603 17.3144 38.3575 17.3641 38.2051 17.4105C38.0559 17.4536 37.8852 17.4917 37.693 17.5249C37.5008 17.5547 37.3135 17.5829 37.1312 17.6094C36.9489 17.6326 36.7965 17.6525 36.6738 17.669C36.3855 17.7055 36.122 17.7668 35.8833 17.853C35.648 17.9392 35.4591 18.0634 35.3166 18.2259C35.1774 18.3849 35.1078 18.5971 35.1078 18.8622C35.1078 19.2301 35.2437 19.5085 35.5154 19.6974C35.7872 19.883 36.1336 19.9759 36.5545 19.9759ZM48.239 13.3636L45.4698 21H43.8789L41.1048 13.3636H42.7006L44.6346 19.2401H44.7141L46.6431 13.3636H48.239ZM52.6674 21.1541C51.9151 21.1541 51.2671 20.9934 50.7235 20.6719C50.1833 20.3471 49.7657 19.8913 49.4707 19.3047C49.179 18.7147 49.0332 18.0237 49.0332 17.2315C49.0332 16.4493 49.179 15.7599 49.4707 15.1634C49.7657 14.5668 50.1767 14.1011 50.7037 13.7663C51.234 13.4316 51.8538 13.2642 52.563 13.2642C52.9939 13.2642 53.4115 13.3355 53.8159 13.478C54.2202 13.6205 54.5832 13.8442 54.9047 14.1491C55.2261 14.4541 55.4797 14.8501 55.6653 15.3374C55.8509 15.8213 55.9437 16.4096 55.9437 17.1023V17.6293H49.8734V16.5156H54.487C54.487 16.1245 54.4075 15.7782 54.2484 15.4766C54.0893 15.1716 53.8656 14.9313 53.5772 14.7557C53.2922 14.58 52.9574 14.4922 52.573 14.4922C52.1554 14.4922 51.7908 14.5949 51.4792 14.8004C51.171 15.0026 50.9324 15.2678 50.7633 15.5959C50.5976 15.9207 50.5147 16.2737 50.5147 16.6548V17.5249C50.5147 18.0353 50.6042 18.4695 50.7832 18.8274C50.9655 19.1854 51.219 19.4588 51.5439 19.6477C51.8687 19.8333 52.2482 19.9261 52.6824 19.9261C52.9641 19.9261 53.2209 19.8864 53.4529 19.8068C53.685 19.724 53.8855 19.6013 54.0545 19.4389C54.2235 19.2765 54.3528 19.076 54.4423 18.8374L55.8493 19.0909C55.7366 19.5052 55.5344 19.8681 55.2427 20.1797C54.9544 20.4879 54.5914 20.7282 54.1539 20.9006C53.7198 21.0696 53.2243 21.1541 52.6674 21.1541Z" fill="white"/>
</svg>
