<svg width="18" height="16" viewBox="0 0 18 16" fill="none" xmlns="http://www.w3.org/2000/svg">
<path d="M5.19704 8.46979L8.52762 11.8004C8.59098 11.861 8.66568 11.9086 8.74744 11.9403C8.90962 12.0069 9.09152 12.0069 9.25369 11.9403C9.33546 11.9086 9.41016 11.861 9.47351 11.8004L12.8041 8.46979C12.8662 8.40769 12.9155 8.33395 12.9491 8.25281C12.9827 8.17166 13 8.08468 13 7.99685C13 7.81946 12.9295 7.64934 12.8041 7.52391C12.6787 7.39847 12.5085 7.32801 12.3312 7.32801C12.1538 7.32801 11.9836 7.39847 11.8582 7.52391L9.66669 9.72209V4.66626C9.66669 4.4896 9.59651 4.32017 9.47158 4.19524C9.34666 4.07032 9.17723 4.00014 9.00057 4.00014C8.8239 4.00014 8.65447 4.07032 8.52955 4.19524C8.40463 4.32017 8.33445 4.4896 8.33445 4.66626V9.72209L6.14292 7.52391C6.081 7.46147 6.00733 7.41192 5.92615 7.3781C5.84498 7.34428 5.75792 7.32687 5.66998 7.32687C5.58205 7.32687 5.49498 7.34428 5.41381 7.3781C5.33263 7.41192 5.25896 7.46147 5.19704 7.52391C5.1346 7.58583 5.08505 7.6595 5.05123 7.74068C5.01741 7.82185 5 7.90891 5 7.99685C5 8.08479 5.01741 8.17185 5.05123 8.25302C5.08505 8.3342 5.1346 8.40787 5.19704 8.46979Z" fill="#0468DB"/>
<rect x="0.9" y="1.6998" width="16.2" height="12.6" rx="1.1" stroke="#0468DB" stroke-width="1.8"/>
</svg>
