<svg width="24" height="20" viewBox="0 0 24 20" fill="none" xmlns="http://www.w3.org/2000/svg">
<path d="M16.7537 9.40055L12.5905 5.23732C12.5113 5.16151 12.4179 5.10209 12.3157 5.06246C12.113 4.97918 11.8856 4.97918 11.6829 5.06246C11.5807 5.10209 11.4873 5.16151 11.4081 5.23732L7.24487 9.40055C7.16724 9.47819 7.10566 9.57035 7.06364 9.67179C7.02163 9.77322 7 9.88194 7 9.99173C7 10.2135 7.08808 10.4261 7.24487 10.5829C7.40167 10.7397 7.61432 10.8278 7.83605 10.8278C8.05779 10.8278 8.27044 10.7397 8.42723 10.5829L11.1666 7.83517V14.155C11.1666 14.3758 11.2544 14.5876 11.4105 14.7437C11.5667 14.8999 11.7785 14.9876 11.9993 14.9876C12.2201 14.9876 12.4319 14.8999 12.5881 14.7437C12.7442 14.5876 12.8319 14.3758 12.8319 14.155V7.83517L15.5713 10.5829C15.6488 10.661 15.7408 10.7229 15.8423 10.7652C15.9438 10.8074 16.0526 10.8292 16.1625 10.8292C16.2724 10.8292 16.3813 10.8074 16.4827 10.7652C16.5842 10.7229 16.6763 10.661 16.7537 10.5829C16.8317 10.5055 16.8937 10.4134 16.936 10.3119C16.9782 10.2105 17 10.1016 17 9.99173C17 9.88181 16.9782 9.77298 16.936 9.67151C16.8937 9.57005 16.8317 9.47796 16.7537 9.40055Z" fill="#1D2E2E" fill-opacity="0.8"/>
<rect x="0.9" y="1.2999" width="22.2" height="17.4" rx="1.1" stroke="#1D2E2E" stroke-opacity="0.8" stroke-width="1.8"/>
</svg>
