<svg width="20" height="20" viewBox="0 0 20 20" fill="none" xmlns="http://www.w3.org/2000/svg">
<path d="M16.8056 5.83331H9.30556C8.00361 5.83331 6.94445 4.77414 6.94445 3.4722C6.94445 2.17025 8.00361 1.11108 9.30556 1.11108H16.8056C18.1075 1.11108 19.1667 2.17025 19.1667 3.4722C19.1667 4.77414 18.1075 5.83331 16.8056 5.83331ZM9.30556 2.2222C8.61639 2.2222 8.05556 2.78303 8.05556 3.4722C8.05556 4.16136 8.61639 4.7222 9.30556 4.7222H16.8056C17.4947 4.7222 18.0556 4.16136 18.0556 3.4722C18.0556 2.78303 17.4947 2.2222 16.8056 2.2222H9.30556ZM16.8056 18.8889H9.30556C8.00361 18.8889 6.94445 17.8297 6.94445 16.5278C6.94445 15.2258 8.00361 14.1666 9.30556 14.1666H16.8056C18.1075 14.1666 19.1667 15.2258 19.1667 16.5278C19.1667 17.8297 18.1075 18.8889 16.8056 18.8889ZM9.30556 15.2778C8.61639 15.2778 8.05556 15.8386 8.05556 16.5278C8.05556 17.2169 8.61639 17.7778 9.30556 17.7778H16.8056C17.4947 17.7778 18.0556 17.2169 18.0556 16.5278C18.0556 15.8386 17.4947 15.2778 16.8056 15.2778H9.30556ZM16.8056 12.5H9.30556C8.00361 12.5 6.94445 11.4408 6.94445 10.1389C6.94445 8.83692 8.00361 7.77775 9.30556 7.77775H16.8056C18.1075 7.77775 19.1667 8.83692 19.1667 10.1389C19.1667 11.4408 18.1075 12.5 16.8056 12.5ZM9.30556 8.88886C8.61639 8.88886 8.05556 9.4497 8.05556 10.1389C8.05556 10.828 8.61639 11.3889 9.30556 11.3889H16.8056C17.4947 11.3889 18.0556 10.828 18.0556 10.1389C18.0556 9.4497 17.4947 8.88886 16.8056 8.88886H9.30556ZM3.47222 5.83331H3.19445C1.8925 5.83331 0.833336 4.77414 0.833336 3.4722C0.833336 2.17025 1.8925 1.11108 3.19445 1.11108H3.47222C4.77417 1.11108 5.83334 2.17025 5.83334 3.4722C5.83334 4.77414 4.77417 5.83331 3.47222 5.83331ZM3.19445 2.2222C2.50528 2.2222 1.94445 2.78303 1.94445 3.4722C1.94445 4.16136 2.50528 4.7222 3.19445 4.7222H3.47222C4.16139 4.7222 4.72222 4.16136 4.72222 3.4722C4.72222 2.78303 4.16139 2.2222 3.47222 2.2222H3.19445ZM3.47222 18.8889H3.19445C1.8925 18.8889 0.833336 17.8297 0.833336 16.5278C0.833336 15.2258 1.8925 14.1666 3.19445 14.1666H3.47222C4.77417 14.1666 5.83334 15.2258 5.83334 16.5278C5.83334 17.8297 4.77417 18.8889 3.47222 18.8889ZM3.19445 15.2778C2.50528 15.2778 1.94445 15.8386 1.94445 16.5278C1.94445 17.2169 2.50528 17.7778 3.19445 17.7778H3.47222C4.16139 17.7778 4.72222 17.2169 4.72222 16.5278C4.72222 15.8386 4.16139 15.2778 3.47222 15.2778H3.19445ZM3.47222 12.5H3.19445C1.8925 12.5 0.833336 11.4408 0.833336 10.1389C0.833336 8.83692 1.8925 7.77775 3.19445 7.77775H3.47222C4.77417 7.77775 5.83334 8.83692 5.83334 10.1389C5.83334 11.4408 4.77417 12.5 3.47222 12.5ZM3.19445 8.88886C2.50528 8.88886 1.94445 9.4497 1.94445 10.1389C1.94445 10.828 2.50528 11.3889 3.19445 11.3889H3.47222C4.16139 11.3889 4.72222 10.828 4.72222 10.1389C4.72222 9.4497 4.16139 8.88886 3.47222 8.88886H3.19445Z" fill="#1D2E2E" fill-opacity="0.8"/>
</svg>
