<svg width="20" height="20" viewBox="0 0 20 20" fill="none" xmlns="http://www.w3.org/2000/svg">
<path d="M8 14C9.66667 14 11.0833 13.4167 12.25 12.25C13.4167 11.0833 14 9.66667 14 8C14 6.33333 13.4167 4.91667 12.25 3.75C11.0833 2.58333 9.66667 2 8 2C6.33333 2 4.91667 2.58333 3.75 3.75C2.58333 4.91667 2 6.33333 2 8C2 9.66667 2.58333 11.0833 3.75 12.25C4.91667 13.4167 6.33333 14 8 14ZM8 11C7.71667 11 7.47933 10.904 7.288 10.712C7.09667 10.52 7.00067 10.2827 7 10V5C7 4.71667 7.096 4.47933 7.288 4.288C7.48 4.09667 7.71733 4.00067 8 4C8.28267 3.99933 8.52033 4.09533 8.713 4.288C8.90567 4.48067 9.00133 4.718 9 5V10C9 10.2833 8.904 10.521 8.712 10.713C8.52 10.905 8.28267 11.0007 8 11ZM4.5 11C4.21667 11 3.97933 10.904 3.788 10.712C3.59667 10.52 3.50067 10.2827 3.5 10V7C3.5 6.71667 3.596 6.47933 3.788 6.288C3.98 6.09667 4.21733 6.00067 4.5 6C4.78267 5.99933 5.02033 6.09533 5.213 6.288C5.40567 6.48067 5.50133 6.718 5.5 7V10C5.5 10.2833 5.404 10.521 5.212 10.713C5.02 10.905 4.78267 11.0007 4.5 11ZM11.5 11C11.2167 11 10.9793 10.904 10.788 10.712C10.5967 10.52 10.5007 10.2827 10.5 10V8C10.5 7.71667 10.596 7.47933 10.788 7.288C10.98 7.09667 11.2173 7.00067 11.5 7C11.7827 6.99933 12.0203 7.09533 12.213 7.288C12.4057 7.48067 12.5013 7.718 12.5 8V10C12.5 10.2833 12.404 10.521 12.212 10.713C12.02 10.905 11.7827 11.0007 11.5 11ZM8 16C5.76667 16 3.875 15.225 2.325 13.675C0.775 12.125 0 10.2333 0 8C0 5.76667 0.775 3.875 2.325 2.325C3.875 0.775 5.76667 0 8 0C10.2333 0 12.125 0.775 13.675 2.325C15.225 3.875 16 5.76667 16 8C16 8.93333 15.8543 9.81667 15.563 10.65C15.2717 11.4833 14.859 12.2417 14.325 12.925L19.3 17.9C19.4833 18.0833 19.575 18.3167 19.575 18.6C19.575 18.8833 19.4833 19.1167 19.3 19.3C19.1167 19.4833 18.8833 19.575 18.6 19.575C18.3167 19.575 18.0833 19.4833 17.9 19.3L12.925 14.325C12.2417 14.8583 11.4833 15.271 10.65 15.563C9.81667 15.855 8.93333 16.0007 8 16Z" fill="#1D2E2E" fill-opacity="0.8"/>
</svg>
