<svg width="32" height="32" viewBox="0 0 32 32" fill="none" xmlns="http://www.w3.org/2000/svg">
<path d="M27 16.7604V15.2304L28.92 13.5504C29.2739 13.2385 29.5062 12.8114 29.5757 12.3448C29.6452 11.8782 29.5476 11.402 29.3 11.0004L26.94 7.00041C26.7646 6.69667 26.5125 6.44439 26.2088 6.26887C25.9052 6.09335 25.5607 6.00077 25.21 6.00041C24.9926 5.99874 24.7765 6.03252 24.57 6.10041L22.14 6.92041C21.7205 6.64161 21.2828 6.39106 20.83 6.17041L20.32 3.65041C20.2285 3.19001 19.9781 2.77645 19.6124 2.48211C19.2468 2.18777 18.7893 2.03141 18.32 2.04041H13.64C13.1707 2.03141 12.7132 2.18777 12.3475 2.48211C11.9819 2.77645 11.7314 3.19001 11.64 3.65041L11.13 6.17041C10.6739 6.39101 10.233 6.64156 9.80999 6.92041L7.42999 6.06041C7.22129 6.00603 7.00517 5.98577 6.78999 6.00041C6.43927 6.00077 6.0948 6.09335 5.79116 6.26887C5.48751 6.44439 5.23536 6.69667 5.05999 7.00041L2.69999 11.0004C2.46658 11.4014 2.37984 11.8711 2.45464 12.329C2.52944 12.7869 2.76112 13.2045 3.10999 13.5104L4.99999 15.2404V16.7704L3.10999 18.4504C2.75126 18.7584 2.51325 19.1835 2.43819 19.6504C2.36313 20.1172 2.45589 20.5955 2.69999 21.0004L5.05999 25.0004C5.23536 25.3041 5.48751 25.5564 5.79116 25.7319C6.0948 25.9075 6.43927 26 6.78999 26.0004C7.00734 26.0021 7.22351 25.9683 7.42999 25.9004L9.85999 25.0804C10.2795 25.3592 10.7172 25.6098 11.17 25.8304L11.68 28.3504C11.7714 28.8108 12.0219 29.2244 12.3875 29.5187C12.7532 29.813 13.2107 29.9694 13.68 29.9604H18.4C18.8693 29.9694 19.3268 29.813 19.6924 29.5187C20.0581 29.2244 20.3085 28.8108 20.4 28.3504L20.91 25.8304C21.3661 25.6098 21.807 25.3593 22.23 25.0804L24.65 25.9004C24.8565 25.9683 25.0726 26.0021 25.29 26.0004C25.6407 26 25.9852 25.9075 26.2888 25.7319C26.5925 25.5564 26.8446 25.3041 27.02 25.0004L29.3 21.0004C29.5334 20.5994 29.6201 20.1298 29.5453 19.6718C29.4705 19.2139 29.2389 18.7963 28.89 18.4904L27 16.7604ZM25.21 24.0004L21.78 22.8404C20.9771 23.5205 20.0594 24.0522 19.07 24.4104L18.36 28.0004H13.64L12.93 24.4504C11.9484 24.082 11.0357 23.5513 10.23 22.8804L6.78999 24.0004L4.42999 20.0004L7.14999 17.6004C6.96509 16.5653 6.96509 15.5055 7.14999 14.4704L4.42999 12.0004L6.78999 8.00041L10.22 9.16041C11.0229 8.4803 11.9406 7.94866 12.93 7.59041L13.64 4.00041H18.36L19.07 7.55041C20.0516 7.91883 20.9643 8.44955 21.77 9.12041L25.21 8.00041L27.57 12.0004L24.85 14.4004C25.0349 15.4355 25.0349 16.4953 24.85 17.5304L27.57 20.0004L25.21 24.0004Z" fill="#1D2E2E"/>
<path d="M16 22C14.8133 22 13.6533 21.6481 12.6666 20.9888C11.6799 20.3295 10.9109 19.3925 10.4567 18.2961C10.0026 17.1997 9.88378 15.9933 10.1153 14.8295C10.3468 13.6656 10.9182 12.5965 11.7574 11.7574C12.5965 10.9182 13.6656 10.3468 14.8295 10.1153C15.9933 9.88378 17.1997 10.0026 18.2961 10.4567C19.3925 10.9109 20.3295 11.6799 20.9888 12.6666C21.6481 13.6533 22 14.8133 22 16C22.008 16.7902 21.8583 17.574 21.5596 18.3056C21.2609 19.0371 20.8193 19.7018 20.2605 20.2605C19.7018 20.8193 19.0371 21.2609 18.3056 21.5596C17.574 21.8583 16.7902 22.008 16 22ZM16 12C15.4713 11.9877 14.9457 12.0827 14.4548 12.2794C13.9639 12.4761 13.5181 12.7702 13.1442 13.1442C12.7702 13.5181 12.4761 13.9639 12.2794 14.4548C12.0827 14.9457 11.9877 15.4713 12 16C11.9877 16.5287 12.0827 17.0543 12.2794 17.5452C12.4761 18.0361 12.7702 18.4819 13.1442 18.8559C13.5181 19.2298 13.9639 19.524 14.4548 19.7206C14.9457 19.9173 15.4713 20.0123 16 20C16.5287 20.0123 17.0543 19.9173 17.5452 19.7206C18.0361 19.524 18.4819 19.2298 18.8559 18.8559C19.2298 18.4819 19.524 18.0361 19.7206 17.5452C19.9173 17.0543 20.0123 16.5287 20 16C20.0123 15.4713 19.9173 14.9457 19.7206 14.4548C19.524 13.9639 19.2298 13.5181 18.8559 13.1442C18.4819 12.7702 18.0361 12.4761 17.5452 12.2794C17.0543 12.0827 16.5287 11.9877 16 12Z" fill="#1D2E2E"/>
</svg>
