<svg width="32" height="33" viewBox="0 0 32 33" fill="none" xmlns="http://www.w3.org/2000/svg">
<path d="M10 14.8099C9.96209 14.8099 9.92456 14.8173 9.88955 14.8318C9.85454 14.8464 9.82275 14.8677 9.79599 14.8946C9.76924 14.9214 9.74805 14.9533 9.73363 14.9883C9.71922 15.0234 9.71186 15.0609 9.712 15.0988V16.7149C9.03847 16.8711 8.39499 17.1361 7.807 17.4998L6.667 16.3599C6.64024 16.3331 6.60845 16.3117 6.57344 16.2972C6.53843 16.2826 6.5009 16.2752 6.463 16.2752C6.42509 16.2752 6.38756 16.2826 6.35255 16.2972C6.31754 16.3117 6.28575 16.3331 6.259 16.3599L4.626 17.9919C4.59915 18.0186 4.57784 18.0504 4.56331 18.0854C4.54877 18.1204 4.54129 18.158 4.54129 18.1959C4.54129 18.2338 4.54877 18.2713 4.56331 18.3063C4.57784 18.3413 4.59915 18.3731 4.626 18.3998L5.769 19.5429C5.4042 20.1297 5.1377 20.7722 4.98 21.4449H3.365C3.28861 21.4449 3.21536 21.4752 3.16135 21.5292C3.10734 21.5832 3.077 21.6565 3.077 21.7328V24.0408C3.077 24.2008 3.206 24.3299 3.365 24.3299H4.981C5.13756 25.0031 5.40305 25.6462 5.767 26.2338L4.627 27.3738C4.60015 27.4006 4.57884 27.4325 4.56431 27.4675C4.54977 27.5025 4.54229 27.5399 4.54229 27.5778C4.54229 27.6157 4.54977 27.6533 4.56431 27.6883C4.57884 27.7233 4.60015 27.7552 4.627 27.7819L6.259 29.4149C6.28575 29.4417 6.31754 29.4631 6.35255 29.4776C6.38756 29.4921 6.42509 29.4996 6.463 29.4996C6.5009 29.4996 6.53843 29.4921 6.57344 29.4776C6.60845 29.4631 6.64024 29.4417 6.667 29.4149L7.81 28.2719C8.39675 28.6371 9.03921 28.9038 9.712 29.0618V30.6758C9.712 30.8358 9.84 30.9639 10 30.9639H12.308C12.468 30.9639 12.596 30.8358 12.596 30.6758V29.0599C13.2695 28.9037 13.913 28.6385 14.501 28.2748L15.641 29.4149C15.6678 29.4417 15.6995 29.4631 15.7346 29.4776C15.7696 29.4921 15.8071 29.4996 15.845 29.4996C15.8829 29.4996 15.9204 29.4921 15.9554 29.4776C15.9904 29.4631 16.0222 29.4417 16.049 29.4149L17.681 27.7819C17.7078 27.7552 17.7291 27.7233 17.7437 27.6883C17.7582 27.6533 17.7657 27.6157 17.7657 27.5778C17.7657 27.5399 17.7582 27.5025 17.7437 27.4675C17.7291 27.4325 17.7078 27.4006 17.681 27.3738L16.539 26.2319C16.9038 25.6451 17.1703 25.0026 17.328 24.3299H18.942C19.102 24.3299 19.231 24.1998 19.231 24.0408V21.7338C19.2311 21.6958 19.2237 21.6582 19.2093 21.6231C19.1948 21.588 19.1735 21.5561 19.1466 21.5292C19.1198 21.5024 19.0879 21.4811 19.0527 21.4666C19.0176 21.4521 18.98 21.4448 18.942 21.4449H17.327C17.1704 20.7716 16.9049 20.1285 16.541 19.5408L17.681 18.4008C17.708 18.374 17.7294 18.3423 17.7441 18.3072C17.7587 18.2721 17.7662 18.2344 17.7662 18.1964C17.7662 18.1583 17.7587 18.1207 17.7441 18.0856C17.7294 18.0505 17.708 18.0187 17.681 17.9919L16.049 16.3599C16.0222 16.3331 15.9904 16.3117 15.9554 16.2972C15.9204 16.2826 15.8829 16.2752 15.845 16.2752C15.8071 16.2752 15.7696 16.2826 15.7346 16.2972C15.6995 16.3117 15.6678 16.3331 15.641 16.3599L14.498 17.5019C13.9112 17.1371 13.2687 16.8705 12.596 16.7128V15.0988C12.5961 15.0609 12.5888 15.0234 12.5744 14.9883C12.5599 14.9533 12.5388 14.9214 12.512 14.8946C12.4852 14.8677 12.4534 14.8464 12.4184 14.8318C12.3834 14.8173 12.3459 14.8099 12.308 14.8099H10ZM11.154 18.8488C12.2249 18.8488 13.252 19.2743 14.0093 20.0316C14.7666 20.7888 15.192 21.816 15.192 22.8869C15.1921 23.4173 15.0878 23.9424 14.8849 24.4324C14.682 24.9225 14.3846 25.3678 14.0096 25.7429C13.6347 26.1179 13.1895 26.4154 12.6995 26.6183C12.2095 26.8213 11.6844 26.9258 11.154 26.9258C10.6235 26.926 10.0983 26.8216 9.60818 26.6187C9.11809 26.4158 8.67278 26.1183 8.2977 25.7432C7.92262 25.3681 7.62511 24.9228 7.42218 24.4327C7.21925 23.9426 7.11486 23.4173 7.115 22.8869C7.115 22.3565 7.21947 21.8313 7.42247 21.3414C7.62546 20.8514 7.92298 20.4062 8.29805 20.0312C8.67312 19.6562 9.11838 19.3588 9.60841 19.1559C10.0984 18.9531 10.6236 18.8487 11.154 18.8488ZM21.757 13.2889C21.7337 13.2949 21.7118 13.3056 21.6926 13.3201C21.6734 13.3347 21.6573 13.3529 21.6452 13.3737C21.6331 13.3946 21.6253 13.4176 21.6221 13.4415C21.619 13.4654 21.6207 13.4896 21.627 13.5129L21.892 14.5009C21.5058 14.7071 21.1558 14.9749 20.856 15.2939L19.972 14.7839C19.9513 14.7714 19.9284 14.7633 19.9045 14.7598C19.8807 14.7564 19.8563 14.7578 19.833 14.764C19.8097 14.7701 19.7879 14.7808 19.7688 14.7956C19.7497 14.8104 19.7338 14.8289 19.722 14.8499L18.991 16.1169C18.9788 16.1377 18.9709 16.1607 18.9677 16.1845C18.9645 16.2084 18.9661 16.2325 18.9723 16.2558C18.9785 16.279 18.9893 16.3008 19.004 16.3199C19.0187 16.3389 19.0371 16.355 19.058 16.3669L19.944 16.8779C19.8173 17.2967 19.7599 17.7335 19.774 18.1708L18.786 18.4359C18.7628 18.4419 18.741 18.4525 18.7219 18.467C18.7028 18.4815 18.6867 18.4996 18.6746 18.5203C18.6625 18.541 18.6547 18.5639 18.6515 18.5877C18.6483 18.6115 18.6498 18.6357 18.656 18.6589L19.035 20.0709C19.041 20.0941 19.0516 20.1158 19.0661 20.1349C19.0806 20.1541 19.0987 20.1701 19.1195 20.1822C19.1402 20.1943 19.1631 20.2022 19.1869 20.2054C19.2106 20.2086 19.2348 20.207 19.258 20.2009L20.247 19.9349C20.4531 20.3214 20.7209 20.6717 21.04 20.9719L20.529 21.8559C20.5168 21.8767 20.5089 21.8997 20.5057 21.9235C20.5025 21.9474 20.5041 21.9716 20.5103 21.9948C20.5165 22.0181 20.5273 22.0398 20.542 22.0589C20.5567 22.078 20.5751 22.094 20.596 22.1059L21.862 22.8359C21.95 22.8879 22.061 22.8558 22.112 22.7698L22.623 21.8839C23.0419 22.0105 23.4786 22.068 23.916 22.0539L24.181 23.0418C24.187 23.0651 24.1976 23.0871 24.2122 23.1063C24.2268 23.1255 24.245 23.1415 24.2658 23.1536C24.2867 23.1657 24.3097 23.1736 24.3336 23.1767C24.3575 23.1798 24.3817 23.1781 24.405 23.1718L25.816 22.7929C25.8393 22.7869 25.8612 22.7762 25.8804 22.7617C25.8996 22.7471 25.9157 22.7289 25.9278 22.7081C25.9399 22.6872 25.9477 22.6642 25.9509 22.6403C25.954 22.6164 25.9523 22.5922 25.946 22.5689L25.681 21.5809C26.0672 21.3747 26.4171 21.1069 26.717 20.7879L27.602 21.2979C27.6227 21.3101 27.6456 21.3181 27.6695 21.3214C27.6933 21.3246 27.7175 21.3231 27.7408 21.317C27.764 21.3108 27.7858 21.3002 27.8049 21.2856C27.824 21.271 27.84 21.2527 27.852 21.2319L28.582 19.9649C28.5941 19.9441 28.6021 19.9211 28.6053 19.8973C28.6085 19.8734 28.6069 19.8491 28.6007 19.8259C28.5945 19.8026 28.5837 19.7808 28.569 19.7618C28.5543 19.7427 28.5359 19.7268 28.515 19.7149L27.629 19.2049C27.7558 18.7857 27.8132 18.3485 27.799 17.9108L28.788 17.6469C28.8112 17.6408 28.833 17.63 28.8521 17.6154C28.8712 17.6008 28.8872 17.5825 28.8992 17.5617C28.9112 17.5409 28.9189 17.5179 28.922 17.4941C28.925 17.4702 28.9233 17.4461 28.917 17.4229L28.539 16.0109C28.533 15.9876 28.5224 15.9657 28.5078 15.9465C28.4932 15.9273 28.475 15.9112 28.4542 15.8991C28.4333 15.887 28.4103 15.8792 28.3864 15.876C28.3625 15.8729 28.3382 15.8746 28.315 15.8809L27.326 16.1469C27.1201 15.7608 26.8526 15.4108 26.534 15.1109L27.044 14.2259C27.0562 14.2052 27.0642 14.1822 27.0674 14.1584C27.0707 14.1346 27.0692 14.1103 27.0631 14.0871C27.057 14.0639 27.0463 14.0421 27.0317 14.023C27.0171 14.0039 26.9988 13.9879 26.978 13.9759L25.711 13.2459C25.6903 13.2334 25.6674 13.2252 25.6435 13.2217C25.6197 13.2183 25.5953 13.2197 25.572 13.2259C25.5487 13.232 25.5269 13.2429 25.5078 13.2576C25.4887 13.2724 25.4728 13.2908 25.461 13.3118L24.95 14.1989C24.5312 14.0719 24.0944 14.0141 23.657 14.0279L23.392 13.0399C23.386 13.0166 23.3754 12.9949 23.3609 12.9758C23.3464 12.9567 23.3283 12.9406 23.3075 12.9285C23.2868 12.9164 23.2639 12.9085 23.2401 12.9053C23.2163 12.9021 23.1922 12.9037 23.169 12.9099L21.757 13.2889ZM23.125 15.5709C23.7801 15.3955 24.478 15.4874 25.0653 15.8265C25.6526 16.1655 26.0812 16.7239 26.257 17.3788C26.4326 18.0341 26.3408 18.7322 26.0018 19.3198C25.6627 19.9073 25.1042 20.3361 24.449 20.5119C24.1245 20.5989 23.7861 20.6211 23.453 20.5772C23.1199 20.5334 22.7987 20.4243 22.5078 20.2563C22.2169 20.0883 21.9619 19.8646 21.7574 19.5981C21.5529 19.3315 21.4029 19.0273 21.316 18.7028C21.1407 18.0476 21.2328 17.3496 21.572 16.7623C21.9112 16.1749 22.4698 15.7464 23.125 15.5709ZM15.692 2.96387C15.6359 2.96413 15.5823 2.98658 15.5427 3.02631C15.5032 3.06604 15.481 3.11979 15.481 3.17584V4.36084C14.9871 4.47546 14.5152 4.67001 14.084 4.93683L13.248 4.09985C13.2285 4.08005 13.2052 4.06432 13.1795 4.05359C13.1539 4.04286 13.1263 4.03735 13.0985 4.03735C13.0707 4.03735 13.0431 4.04286 13.0175 4.05359C12.9918 4.06432 12.9685 4.08005 12.949 4.09985L11.752 5.29791C11.7322 5.31745 11.7165 5.34073 11.7057 5.36639C11.695 5.39206 11.6895 5.41951 11.6895 5.44733C11.6895 5.47514 11.695 5.50272 11.7057 5.52838C11.7165 5.55405 11.7322 5.57733 11.752 5.59686L12.59 6.43488C12.3224 6.86494 12.1269 7.33584 12.011 7.82892H10.827C10.7991 7.82865 10.7714 7.83386 10.7456 7.84442C10.7197 7.85498 10.6962 7.87058 10.6765 7.89032C10.6568 7.91006 10.6411 7.93357 10.6306 7.95941C10.62 7.98525 10.6147 8.01292 10.615 8.04083V9.73285C10.615 9.85085 10.71 9.94489 10.827 9.94489H12.012C12.1267 10.4385 12.3213 10.91 12.588 11.3409L11.752 12.1779C11.7323 12.1975 11.7167 12.2207 11.706 12.2464C11.6954 12.2721 11.6899 12.2996 11.6899 12.3273C11.6899 12.3551 11.6954 12.3826 11.706 12.4083C11.7167 12.4339 11.7323 12.4573 11.752 12.4769L12.949 13.6739C12.9685 13.6938 12.9919 13.7097 13.0176 13.7205C13.0434 13.7313 13.0711 13.7369 13.099 13.7369C13.1269 13.7369 13.1546 13.7313 13.1803 13.7205C13.2061 13.7097 13.2294 13.6938 13.249 13.6739L14.086 12.8359C14.5164 13.1035 14.9876 13.2991 15.481 13.4149V14.5988C15.481 14.7158 15.575 14.8099 15.692 14.8099H17.385C17.4409 14.8096 17.4944 14.7873 17.5339 14.7477C17.5734 14.7082 17.5957 14.6547 17.596 14.5988V13.4139C18.0899 13.2993 18.5618 13.1047 18.993 12.8378L19.829 13.6739C19.8485 13.6938 19.8719 13.7097 19.8976 13.7205C19.9234 13.7313 19.9511 13.7369 19.979 13.7369C20.0069 13.7369 20.0346 13.7313 20.0603 13.7205C20.0861 13.7097 20.1094 13.6938 20.129 13.6739L21.325 12.4769C21.3448 12.4572 21.3606 12.4339 21.3713 12.4081C21.3821 12.3824 21.3876 12.3547 21.3876 12.3268C21.3876 12.2989 21.3821 12.2713 21.3713 12.2455C21.3606 12.2198 21.3448 12.1964 21.325 12.1768L20.488 11.3399C20.7553 10.9095 20.9506 10.4382 21.066 9.94489H22.25C22.3062 9.94489 22.3601 9.92251 22.3999 9.88275C22.4397 9.84299 22.462 9.78907 22.462 9.73285V8.04083C22.4621 8.01296 22.4567 7.98531 22.4461 7.95953C22.4355 7.93375 22.4199 7.9104 22.4002 7.89069C22.3805 7.87097 22.3571 7.85539 22.3313 7.84479C22.3055 7.83418 22.2779 7.82879 22.25 7.82892H21.065C20.9503 7.33533 20.7557 6.86379 20.489 6.43292L21.325 5.59686C21.345 5.57731 21.3608 5.55402 21.3716 5.52826C21.3825 5.5025 21.388 5.47478 21.388 5.44684C21.388 5.4189 21.3825 5.3913 21.3716 5.36554C21.3608 5.33978 21.345 5.31637 21.325 5.29681L20.128 4.09985C20.1085 4.08005 20.0852 4.06432 20.0595 4.05359C20.0339 4.04286 20.0063 4.03735 19.9785 4.03735C19.9507 4.03735 19.9231 4.04286 19.8975 4.05359C19.8718 4.06432 19.8485 4.08005 19.829 4.09985L18.991 4.93793C18.5606 4.67061 18.0894 4.47531 17.596 4.35986V3.17584C17.5961 3.14805 17.5908 3.1205 17.5802 3.09479C17.5697 3.06907 17.5542 3.0457 17.5345 3.026C17.5149 3.0063 17.4916 2.99071 17.466 2.98004C17.4403 2.96938 17.4128 2.96387 17.385 2.96387H15.692ZM16.539 5.92584C17.3242 5.92611 18.0772 6.23816 18.6324 6.7934C19.1877 7.34863 19.4997 8.10168 19.5 8.8869C19.5 9.6723 19.1881 10.4256 18.6328 10.981C18.0775 11.5365 17.3244 11.8486 16.539 11.8488C15.7534 11.8488 15 11.5367 14.4445 10.9813C13.8891 10.4258 13.577 9.67247 13.577 8.8869C13.5773 8.1015 13.8894 7.3483 14.4449 6.79303C15.0004 6.23776 15.7536 5.92584 16.539 5.92584Z" fill="#00CCCC"/>
</svg>
