<svg width="32" height="32" viewBox="0 0 32 32" fill="none" xmlns="http://www.w3.org/2000/svg">
<path d="M10 13.846C9.96209 13.846 9.92456 13.8534 9.88955 13.868C9.85454 13.8825 9.82275 13.9039 9.79599 13.9307C9.76924 13.9576 9.74805 13.9894 9.73363 14.0245C9.71922 14.0595 9.71186 14.097 9.712 14.1349V15.751C9.03847 15.9072 8.39499 16.1723 7.807 16.5359L6.667 15.3961C6.64024 15.3692 6.60845 15.3478 6.57344 15.3333C6.53843 15.3188 6.5009 15.3113 6.463 15.3113C6.42509 15.3113 6.38756 15.3188 6.35255 15.3333C6.31754 15.3478 6.28575 15.3692 6.259 15.3961L4.626 17.028C4.59915 17.0548 4.57784 17.0865 4.56331 17.1215C4.54877 17.1565 4.54129 17.1941 4.54129 17.232C4.54129 17.2699 4.54877 17.3075 4.56331 17.3425C4.57784 17.3775 4.59915 17.4092 4.626 17.436L5.769 18.579C5.4042 19.1659 5.1377 19.8083 4.98 20.481H3.365C3.28861 20.481 3.21536 20.5114 3.16135 20.5654C3.10734 20.6194 3.077 20.6926 3.077 20.769V23.077C3.077 23.237 3.206 23.366 3.365 23.366H4.981C5.13756 24.0393 5.40305 24.6823 5.767 25.27L4.627 26.41C4.60015 26.4367 4.57884 26.4686 4.56431 26.5036C4.54977 26.5386 4.54229 26.576 4.54229 26.614C4.54229 26.6519 4.54977 26.6894 4.56431 26.7244C4.57884 26.7594 4.60015 26.7913 4.627 26.8181L6.259 28.451C6.28575 28.4778 6.31754 28.4992 6.35255 28.5137C6.38756 28.5283 6.42509 28.5357 6.463 28.5357C6.5009 28.5357 6.53843 28.5283 6.57344 28.5137C6.60845 28.4992 6.64024 28.4778 6.667 28.451L7.81 27.308C8.39675 27.6732 9.03921 27.94 9.712 28.098V29.712C9.712 29.872 9.84 30.0001 10 30.0001H12.308C12.468 30.0001 12.596 29.872 12.596 29.712V28.096C13.2695 27.9399 13.913 27.6747 14.501 27.311L15.641 28.451C15.6678 28.4778 15.6995 28.4992 15.7346 28.5137C15.7696 28.5283 15.8071 28.5357 15.845 28.5357C15.8829 28.5357 15.9204 28.5283 15.9554 28.5137C15.9904 28.4992 16.0222 28.4778 16.049 28.451L17.681 26.8181C17.7078 26.7913 17.7291 26.7594 17.7437 26.7244C17.7582 26.6894 17.7657 26.6519 17.7657 26.614C17.7657 26.576 17.7582 26.5386 17.7437 26.5036C17.7291 26.4686 17.7078 26.4367 17.681 26.41L16.539 25.268C16.9038 24.6812 17.1703 24.0388 17.328 23.366H18.942C19.102 23.366 19.231 23.236 19.231 23.077V20.77C19.2311 20.732 19.2237 20.6944 19.2093 20.6592C19.1948 20.6241 19.1735 20.5922 19.1466 20.5654C19.1198 20.5385 19.0879 20.5172 19.0527 20.5027C19.0176 20.4883 18.98 20.4809 18.942 20.481H17.327C17.1704 19.8078 16.9049 19.1646 16.541 18.577L17.681 17.437C17.708 17.4102 17.7294 17.3784 17.7441 17.3433C17.7587 17.3082 17.7662 17.2705 17.7662 17.2325C17.7662 17.1945 17.7587 17.1569 17.7441 17.1218C17.7294 17.0867 17.708 17.0548 17.681 17.028L16.049 15.3961C16.0222 15.3692 15.9904 15.3478 15.9554 15.3333C15.9204 15.3188 15.8829 15.3113 15.845 15.3113C15.8071 15.3113 15.7696 15.3188 15.7346 15.3333C15.6995 15.3478 15.6678 15.3692 15.641 15.3961L14.498 16.538C13.9112 16.1732 13.2687 15.9067 12.596 15.749V14.1349C12.5961 14.097 12.5888 14.0595 12.5744 14.0245C12.5599 13.9894 12.5388 13.9576 12.512 13.9307C12.4852 13.9039 12.4534 13.8825 12.4184 13.868C12.3834 13.8534 12.3459 13.846 12.308 13.846H10ZM11.154 17.8849C12.2249 17.8849 13.252 18.3104 14.0093 19.0677C14.7666 19.825 15.192 20.8521 15.192 21.923C15.1921 22.4534 15.0878 22.9785 14.8849 23.4686C14.682 23.9586 14.3846 24.4039 14.0096 24.779C13.6347 25.1541 13.1895 25.4515 12.6995 25.6545C12.2095 25.8575 11.6844 25.962 11.154 25.962C10.6235 25.9621 10.0983 25.8578 9.60818 25.6548C9.11809 25.4519 8.67278 25.1544 8.2977 24.7794C7.92262 24.4043 7.62511 23.9589 7.42218 23.4688C7.21925 22.9787 7.11486 22.4535 7.115 21.923C7.115 21.3927 7.21947 20.8675 7.42247 20.3775C7.62546 19.8875 7.92298 19.4423 8.29805 19.0673C8.67312 18.6923 9.11838 18.3949 9.60841 18.1921C10.0984 17.9892 10.6236 17.8848 11.154 17.8849ZM21.757 12.325C21.7337 12.331 21.7118 12.3417 21.6926 12.3563C21.6734 12.3708 21.6573 12.389 21.6452 12.4099C21.6331 12.4307 21.6253 12.4537 21.6221 12.4776C21.619 12.5015 21.6207 12.5258 21.627 12.549L21.892 13.537C21.5058 13.7432 21.1558 14.011 20.856 14.33L19.972 13.82C19.9513 13.8075 19.9284 13.7994 19.9045 13.796C19.8807 13.7925 19.8563 13.794 19.833 13.8001C19.8097 13.8063 19.7879 13.817 19.7688 13.8317C19.7497 13.8465 19.7338 13.865 19.722 13.886L18.991 15.153C18.9788 15.1738 18.9709 15.1968 18.9677 15.2206C18.9645 15.2445 18.9661 15.2687 18.9723 15.2919C18.9785 15.3152 18.9893 15.337 19.004 15.356C19.0187 15.3751 19.0371 15.3911 19.058 15.403L19.944 15.914C19.8173 16.3329 19.7599 16.7696 19.774 17.207L18.786 17.472C18.7628 17.478 18.741 17.4886 18.7219 17.5031C18.7028 17.5176 18.6867 17.5357 18.6746 17.5565C18.6625 17.5772 18.6547 17.6001 18.6515 17.6238C18.6483 17.6476 18.6498 17.6718 18.656 17.695L19.035 19.107C19.041 19.1302 19.0516 19.152 19.0661 19.1711C19.0806 19.1902 19.0987 19.2062 19.1195 19.2183C19.1402 19.2304 19.1631 19.2383 19.1869 19.2415C19.2106 19.2447 19.2348 19.2432 19.258 19.237L20.247 18.971C20.4531 19.3576 20.7209 19.7078 21.04 20.008L20.529 20.892C20.5168 20.9128 20.5089 20.9358 20.5057 20.9597C20.5025 20.9835 20.5041 21.0077 20.5103 21.0309C20.5165 21.0542 20.5273 21.076 20.542 21.095C20.5567 21.1141 20.5751 21.1301 20.596 21.142L21.862 21.872C21.95 21.924 22.061 21.892 22.112 21.806L22.623 20.92C23.0419 21.0466 23.4786 21.1041 23.916 21.09L24.181 22.0779C24.187 22.1013 24.1976 22.1232 24.2122 22.1424C24.2268 22.1616 24.245 22.1777 24.2658 22.1898C24.2867 22.2019 24.3097 22.2097 24.3336 22.2128C24.3575 22.216 24.3817 22.2143 24.405 22.2079L25.816 21.829C25.8393 21.823 25.8612 21.8124 25.8804 21.7978C25.8996 21.7832 25.9157 21.765 25.9278 21.7442C25.9399 21.7234 25.9477 21.7003 25.9509 21.6765C25.954 21.6526 25.9523 21.6283 25.946 21.605L25.681 20.617C26.0672 20.4108 26.4171 20.143 26.717 19.824L27.602 20.334C27.6227 20.3462 27.6456 20.3542 27.6695 20.3575C27.6933 20.3608 27.7175 20.3592 27.7408 20.3531C27.764 20.347 27.7858 20.3363 27.8049 20.3217C27.824 20.3071 27.84 20.2888 27.852 20.268L28.582 19.001C28.5941 18.9803 28.6021 18.9573 28.6053 18.9334C28.6085 18.9096 28.6069 18.8853 28.6007 18.862C28.5945 18.8387 28.5837 18.817 28.569 18.7979C28.5543 18.7789 28.5359 18.763 28.515 18.751L27.629 18.241C27.7558 17.8218 27.8132 17.3847 27.799 16.947L28.788 16.683C28.8112 16.6769 28.833 16.6662 28.8521 16.6516C28.8712 16.6369 28.8872 16.6187 28.8992 16.5978C28.9112 16.577 28.9189 16.554 28.922 16.5302C28.925 16.5064 28.9233 16.4822 28.917 16.459L28.539 15.0471C28.533 15.0237 28.5224 15.0018 28.5078 14.9826C28.4932 14.9634 28.475 14.9473 28.4542 14.9352C28.4333 14.9231 28.4103 14.9153 28.3864 14.9122C28.3625 14.909 28.3382 14.9107 28.315 14.9171L27.326 15.183C27.1201 14.7969 26.8526 14.447 26.534 14.147L27.044 13.262C27.0562 13.2413 27.0642 13.2183 27.0674 13.1945C27.0707 13.1707 27.0692 13.1465 27.0631 13.1232C27.057 13.1 27.0463 13.0782 27.0317 13.0591C27.0171 13.04 26.9988 13.024 26.978 13.012L25.711 12.282C25.6903 12.2696 25.6674 12.2613 25.6435 12.2579C25.6197 12.2544 25.5953 12.2559 25.572 12.262C25.5487 12.2682 25.5269 12.279 25.5078 12.2938C25.4887 12.3085 25.4728 12.3269 25.461 12.348L24.95 13.235C24.5312 13.108 24.0944 13.0503 23.657 13.064L23.392 12.076C23.386 12.0528 23.3754 12.031 23.3609 12.0119C23.3464 11.9928 23.3283 11.9767 23.3075 11.9647C23.2868 11.9526 23.2639 11.9447 23.2401 11.9415C23.2163 11.9383 23.1922 11.9398 23.169 11.946L21.757 12.325ZM23.125 14.607C23.7801 14.4317 24.478 14.5236 25.0653 14.8626C25.6526 15.2016 26.0812 15.76 26.257 16.415C26.4326 17.0702 26.3408 17.7684 26.0018 18.3559C25.6627 18.9434 25.1042 19.3723 24.449 19.548C24.1245 19.635 23.7861 19.6572 23.453 19.6133C23.1199 19.5695 22.7987 19.4604 22.5078 19.2924C22.2169 19.1244 21.9619 18.9008 21.7574 18.6342C21.5529 18.3677 21.4029 18.0635 21.316 17.739C21.1407 17.0837 21.2328 16.3857 21.572 15.7984C21.9112 15.2111 22.4698 14.7825 23.125 14.607ZM15.692 2C15.6359 2.00026 15.5823 2.02271 15.5427 2.06244C15.5032 2.10217 15.481 2.15592 15.481 2.21198V3.39697C14.9871 3.51159 14.5152 3.70614 14.084 3.97296L13.248 3.13599C13.2285 3.11618 13.2052 3.10045 13.1795 3.08972C13.1539 3.07899 13.1263 3.07349 13.0985 3.07349C13.0707 3.07349 13.0431 3.07899 13.0175 3.08972C12.9918 3.10045 12.9685 3.11618 12.949 3.13599L11.752 4.33405C11.7322 4.35358 11.7165 4.37686 11.7057 4.40253C11.695 4.42819 11.6895 4.45564 11.6895 4.48346C11.6895 4.51128 11.695 4.53885 11.7057 4.56451C11.7165 4.59018 11.7322 4.61346 11.752 4.633L12.59 5.47101C12.3224 5.90107 12.1269 6.37197 12.011 6.86505H10.827C10.7991 6.86478 10.7714 6.86999 10.7456 6.88055C10.7197 6.89111 10.6962 6.90671 10.6765 6.92645C10.6568 6.94619 10.6411 6.9697 10.6306 6.99554C10.62 7.02139 10.6147 7.04905 10.615 7.07697V8.76898C10.615 8.88698 10.71 8.98102 10.827 8.98102H12.012C12.1267 9.47461 12.3213 9.94614 12.588 10.377L11.752 11.2141C11.7323 11.2337 11.7167 11.2569 11.706 11.2825C11.6954 11.3082 11.6899 11.3357 11.6899 11.3635C11.6899 11.3912 11.6954 11.4187 11.706 11.4444C11.7167 11.4701 11.7323 11.4934 11.752 11.513L12.949 12.71C12.9685 12.73 12.9919 12.7458 13.0176 12.7567C13.0434 12.7675 13.0711 12.773 13.099 12.773C13.1269 12.773 13.1546 12.7675 13.1803 12.7567C13.2061 12.7458 13.2294 12.73 13.249 12.71L14.086 11.872C14.5164 12.1397 14.9876 12.3352 15.481 12.451V13.6349C15.481 13.7519 15.575 13.846 15.692 13.846H17.385C17.4409 13.8457 17.4944 13.8234 17.5339 13.7839C17.5734 13.7444 17.5957 13.6908 17.596 13.6349V12.45C18.0899 12.3354 18.5618 12.1408 18.993 11.874L19.829 12.71C19.8485 12.73 19.8719 12.7458 19.8976 12.7567C19.9234 12.7675 19.9511 12.773 19.979 12.773C20.0069 12.773 20.0346 12.7675 20.0603 12.7567C20.0861 12.7458 20.1094 12.73 20.129 12.71L21.325 11.513C21.3448 11.4934 21.3606 11.47 21.3713 11.4443C21.3821 11.4185 21.3876 11.3909 21.3876 11.363C21.3876 11.3351 21.3821 11.3074 21.3713 11.2817C21.3606 11.2559 21.3448 11.2326 21.325 11.213L20.488 10.376C20.7553 9.9456 20.9506 9.47438 21.066 8.98102H22.25C22.3062 8.98102 22.3601 8.95864 22.3999 8.91888C22.4397 8.87913 22.462 8.82521 22.462 8.76898V7.07697C22.4621 7.04909 22.4567 7.02145 22.4461 6.99567C22.4355 6.96989 22.4199 6.94653 22.4002 6.92682C22.3805 6.90711 22.3571 6.89153 22.3313 6.88092C22.3055 6.87031 22.2779 6.86492 22.25 6.86505H21.065C20.9503 6.37146 20.7557 5.89993 20.489 5.46906L21.325 4.633C21.345 4.61344 21.3608 4.59015 21.3716 4.56439C21.3825 4.53864 21.388 4.51091 21.388 4.48297C21.388 4.45503 21.3825 4.42743 21.3716 4.40167C21.3608 4.37592 21.345 4.3525 21.325 4.33295L20.128 3.13599C20.1085 3.11618 20.0852 3.10045 20.0595 3.08972C20.0339 3.07899 20.0063 3.07349 19.9785 3.07349C19.9507 3.07349 19.9231 3.07899 19.8975 3.08972C19.8718 3.10045 19.8485 3.11618 19.829 3.13599L18.991 3.97406C18.5606 3.70674 18.0894 3.51144 17.596 3.396V2.21198C17.5961 2.18418 17.5908 2.15664 17.5802 2.13092C17.5697 2.10521 17.5542 2.08183 17.5345 2.06213C17.5149 2.04243 17.4916 2.02684 17.466 2.01617C17.4403 2.00551 17.4128 2 17.385 2H15.692ZM16.539 4.96198C17.3242 4.96224 18.0772 5.27429 18.6324 5.82953C19.1877 6.38477 19.4997 7.13781 19.5 7.92303C19.5 8.70843 19.1881 9.4617 18.6328 10.0172C18.0775 10.5726 17.3244 10.8847 16.539 10.8849C15.7534 10.8849 15 10.5729 14.4445 10.0174C13.8891 9.46191 13.577 8.70861 13.577 7.92303C13.5773 7.13764 13.8894 6.38443 14.4449 5.82916C15.0004 5.2739 15.7536 4.96198 16.539 4.96198Z" fill="#00CCCC"/>
</svg>
