<svg width="48" height="48" viewBox="0 0 48 48" fill="none" xmlns="http://www.w3.org/2000/svg">
<path d="M34.4834 29.8303C35.4779 28.0481 36 26.041 36 24C36 21.959 35.4779 19.9519 34.4834 18.1697C34.4782 18.1117 34.4605 18.0556 34.4315 18.0051C34.4025 17.9547 34.3629 17.9111 34.3154 17.8775C32.9742 15.616 30.9274 13.8578 28.4898 12.8732C26.0523 11.8885 23.3588 11.7319 20.8236 12.4275C18.2884 13.123 16.0518 14.6322 14.4576 16.723C12.8635 18.8139 12 21.3705 12 24C12 26.6295 12.8635 29.1861 14.4576 31.277C16.0518 33.3678 18.2884 34.877 20.8236 35.5725C23.3588 36.2681 26.0523 36.1115 28.4898 35.1268C30.9274 34.1422 32.9742 32.384 34.3154 30.1225C34.3629 30.0889 34.4025 30.0453 34.4315 29.9949C34.4605 29.9444 34.4782 29.8883 34.4834 29.8303ZM17.1272 30.2069H19.0215C19.4181 31.7684 20.1432 33.2274 21.1483 34.4863C19.3805 33.5324 17.9695 32.0308 17.1272 30.2069ZM12.8433 24.4138H14.9093C14.9471 26.1114 15.2721 27.7903 15.8708 29.3793H14.216C13.3752 27.8548 12.9049 26.1538 12.8433 24.4138ZM14.2168 18.6207H15.8716C15.273 20.2097 14.9479 21.8886 14.9102 23.5862H12.8433C12.9052 21.8462 13.3757 20.1451 14.2168 18.6207ZM30.8784 17.7931H28.9841C28.5875 16.2316 27.8624 14.7726 26.8573 13.5137C28.6251 14.4676 30.036 15.9692 30.8784 17.7931ZM35.1623 23.5862H33.0963C33.0585 21.8886 32.7335 20.2097 32.1348 18.6207H33.7896C34.6304 20.1452 35.1007 21.8462 35.1623 23.5862ZM32.2689 23.5862H29.7896C29.7717 21.9146 29.5738 20.2498 29.1992 18.6207H31.2516C31.8862 20.2013 32.2308 21.8833 32.2689 23.5862ZM23.5891 18.6207V23.5862H19.0434C19.0655 21.9125 19.2773 20.2467 19.6747 18.6207H23.5891ZM19.9031 17.7931C20.7305 15.0679 22.0758 13.1681 23.5891 12.8715V17.7931H19.9031ZM23.5891 24.4138V29.3793H19.6747C19.2773 27.7533 19.0655 26.0875 19.0434 24.4138H23.5891ZM23.5891 30.2069V35.1285C22.0758 34.8319 20.7309 32.9321 19.9031 30.2069H23.5891ZM24.4165 29.3793V24.4138H28.9622C28.94 26.0875 28.7283 27.7533 28.3309 29.3793H24.4165ZM28.1025 30.2069C27.2751 32.9321 25.9294 34.8319 24.4165 35.1285V30.2069H28.1025ZM24.4165 23.5862V18.6207H28.3309C28.7283 20.2467 28.94 21.9125 28.9622 23.5862H24.4165ZM24.4165 17.7931V12.8715C25.9294 13.1681 27.2743 15.0679 28.1025 17.7931H24.4165ZM21.1483 13.5137C20.1432 14.7726 19.4181 16.2316 19.0215 17.7931H17.1272C17.9695 15.9692 19.3805 14.4676 21.1483 13.5137ZM18.8059 18.6207C18.4315 20.2499 18.2338 21.9146 18.216 23.5862H15.7367C15.7747 21.8834 16.1191 20.2013 16.7536 18.6207H18.8059ZM15.7367 24.4138H18.216C18.2338 26.0854 18.4315 27.7501 18.8059 29.3793H16.7536C16.1191 27.7987 15.7747 26.1166 15.7367 24.4138ZM26.8573 34.4863C27.8624 33.2274 28.5875 31.7684 28.9841 30.2069H30.8784C30.036 32.0308 28.6251 33.5324 26.8573 34.4863ZM29.1992 29.3793C29.5738 27.7502 29.7717 26.0854 29.7896 24.4138H32.2689C32.2308 26.1167 31.8862 27.7987 31.2516 29.3793H29.1992ZM33.0963 24.4138H35.1623C35.1004 26.1538 34.6299 27.8549 33.7888 29.3793H32.134C32.7329 27.7904 33.0583 26.1115 33.0963 24.4138ZM33.2849 17.7931H31.7894C31.1567 16.3797 30.2416 15.1106 29.1004 14.064C30.7875 14.9339 32.227 16.2168 33.2849 17.7931ZM18.9048 14.064C17.7638 15.1107 16.8489 16.3798 16.2162 17.7931H14.7207C15.7784 16.2168 17.2178 14.934 18.9048 14.064ZM14.7207 30.2069H16.2162C16.849 31.6203 17.7641 32.8893 18.9052 33.936C17.2181 33.0661 15.7785 31.7832 14.7207 30.2069ZM29.1004 33.936C30.2416 32.8894 31.1567 31.6203 31.7894 30.2069H33.2849C32.227 31.7832 30.7875 33.0661 29.1004 33.936Z" fill="#1D2E2E"/>
<circle cx="24" cy="24" r="23.5" stroke="#1D2E2E"/>
</svg>
