<svg width="48" height="48" viewBox="0 0 48 48" fill="none" xmlns="http://www.w3.org/2000/svg">
<circle cx="24" cy="24" r="24" fill="#00CCCC"/>
<path d="M29.232 26.4C29.328 25.608 29.4 24.816 29.4 24C29.4 23.184 29.328 22.392 29.232 21.6H33.288C33.48 22.368 33.6 23.172 33.6 24C33.6 24.828 33.48 25.632 33.288 26.4M27.108 33.072C27.828 31.74 28.38 30.3 28.764 28.8H32.304C31.1414 30.8019 29.2969 32.3184 27.108 33.072ZM26.808 26.4H21.192C21.072 25.608 21 24.816 21 24C21 23.184 21.072 22.38 21.192 21.6H26.808C26.916 22.38 27 23.184 27 24C27 24.816 26.916 25.608 26.808 26.4ZM24 33.552C23.004 32.112 22.2 30.516 21.708 28.8H26.292C25.8 30.516 24.996 32.112 24 33.552ZM19.2 19.2H15.696C16.8466 17.1927 18.6898 15.6738 20.88 14.928C20.16 16.26 19.62 17.7 19.2 19.2ZM15.696 28.8H19.2C19.62 30.3 20.16 31.74 20.88 33.072C18.6943 32.318 16.8538 30.8013 15.696 28.8ZM14.712 26.4C14.52 25.632 14.4 24.828 14.4 24C14.4 23.172 14.52 22.368 14.712 21.6H18.768C18.672 22.392 18.6 23.184 18.6 24C18.6 24.816 18.672 25.608 18.768 26.4M24 14.436C24.996 15.876 25.8 17.484 26.292 19.2H21.708C22.2 17.484 23.004 15.876 24 14.436ZM32.304 19.2H28.764C28.3884 17.7137 27.8323 16.2791 27.108 14.928C29.316 15.684 31.152 17.208 32.304 19.2ZM24 12C17.364 12 12 17.4 12 24C12 27.1826 13.2643 30.2348 15.5147 32.4853C16.629 33.5996 17.9519 34.4835 19.4078 35.0866C20.8637 35.6896 22.4241 36 24 36C27.1826 36 30.2348 34.7357 32.4853 32.4853C34.7357 30.2348 36 27.1826 36 24C36 22.4241 35.6896 20.8637 35.0866 19.4078C34.4835 17.9519 33.5996 16.629 32.4853 15.5147C31.371 14.4004 30.0481 13.5165 28.5922 12.9134C27.1363 12.3104 25.5759 12 24 12Z" fill="white"/>
</svg>
