<svg width="33" height="33" viewBox="0 0 33 33" fill="none" xmlns="http://www.w3.org/2000/svg">
<path d="M28.6232 26.1009L3.57106 22.9641C2.84319 22.873 2.32706 22.2091 2.41819 21.4811L4.18881 7.33915C4.27994 6.61127 4.94387 6.09508 5.67181 6.18621L30.724 9.32296C31.4519 9.41408 31.968 10.0781 31.8769 10.806L30.1062 24.948C30.0151 25.6758 29.3511 26.192 28.6232 26.1009Z" fill="#002736"/>
<path d="M27.6974 27.7517H2.44969C1.71612 27.7517 1.12144 27.157 1.12144 26.4235V12.171C1.12144 11.4374 1.71612 10.8428 2.44969 10.8428H27.6974C28.431 10.8428 29.0257 11.4375 29.0257 12.171V26.4235C29.0257 27.157 28.431 27.7517 27.6974 27.7517Z" fill="url(#paint0_linear_1597_863)"/>
<path d="M11.2752 23.4951C12.0795 23.4951 12.0809 22.2451 11.2752 22.2451H3.78556C2.98125 22.2451 2.97994 23.4951 3.78556 23.4951H11.2752ZM13.4419 23.4951H14.9789C15.7832 23.4951 15.7846 22.2451 14.9789 22.2451H13.4419C12.6376 22.2451 12.6362 23.4951 13.4419 23.4951Z" fill="white"/>
<path d="M20.8304 25.4271C22.1198 25.4271 23.165 24.3818 23.165 23.0924C23.165 21.8031 22.1198 20.7578 20.8304 20.7578C19.541 20.7578 18.4958 21.8031 18.4958 23.0924C18.4958 24.3818 19.541 25.4271 20.8304 25.4271Z" fill="url(#paint1_linear_1597_863)"/>
<path d="M24.6012 25.4271C25.8906 25.4271 26.9358 24.3818 26.9358 23.0924C26.9358 21.8031 25.8906 20.7578 24.6012 20.7578C23.3118 20.7578 22.2666 21.8031 22.2666 23.0924C22.2666 24.3818 23.3118 25.4271 24.6012 25.4271Z" fill="#3F5EAB"/>
<path d="M1.12144 16.5397C2.04919 16.5397 28.8892 16.5785 28.9788 16.5397C28.9898 16.5349 29.0129 16.5397 29.0257 16.5397C29.0372 16.5397 29.0376 14.9772 29.0257 14.9772C28.098 14.9772 1.25794 14.9384 1.16844 14.9772C1.15731 14.982 1.13425 14.9772 1.12144 14.9772C1.11 14.9772 1.10956 16.5397 1.12144 16.5397Z" fill="white"/>
<defs>
<linearGradient id="paint0_linear_1597_863" x1="4.25931" y1="30.1115" x2="25.8879" y2="8.48296" gradientUnits="userSpaceOnUse">
<stop stop-color="#00CCCC"/>
<stop offset="1" stop-color="#FF7BAC"/>
</linearGradient>
<linearGradient id="paint1_linear_1597_863" x1="18.4958" y1="23.0924" x2="23.165" y2="23.0924" gradientUnits="userSpaceOnUse">
<stop stop-color="#B3B3B3"/>
<stop offset="0.016" stop-color="#B7B7B7"/>
<stop offset="0.152" stop-color="#D1D1D1"/>
<stop offset="0.302" stop-color="#E5E5E5"/>
<stop offset="0.47" stop-color="#F4F4F4"/>
<stop offset="0.672" stop-color="#FCFCFC"/>
<stop offset="1" stop-color="white"/>
</linearGradient>
</defs>
</svg>
