<svg width="32" height="32" viewBox="0 0 32 32" fill="none" xmlns="http://www.w3.org/2000/svg">
<path d="M22.6667 14.4072C22.6667 13.9458 22.6667 13.7152 22.736 13.5098C22.9373 12.9125 23.4693 12.6818 24.0027 12.4392C24.6 12.1658 24.8987 12.0298 25.196 12.0058C25.532 11.9792 25.8693 12.0512 26.1573 12.2125C26.5387 12.4258 26.8053 12.8338 27.0773 13.1645C28.3347 14.6925 28.964 15.4565 29.1933 16.2978C29.38 16.9778 29.38 17.6898 29.1933 18.3685C28.8587 19.5978 27.7987 20.6272 27.0133 21.5818C26.612 22.0685 26.4107 22.3125 26.1573 22.4552C25.8644 22.6176 25.5298 22.6895 25.196 22.6618C24.8987 22.6378 24.6 22.5018 24.0013 22.2285C23.468 21.9858 22.9373 21.7552 22.736 21.1578C22.6667 20.9525 22.6667 20.7218 22.6667 20.2605V14.4072ZM9.33333 14.4072C9.33333 13.8258 9.31733 13.3045 8.848 12.8965C8.67733 12.7485 8.45067 12.6458 7.99867 12.4392C7.4 12.1672 7.10133 12.0298 6.804 12.0058C5.91467 11.9338 5.436 12.5418 4.924 13.1658C3.66533 14.6925 3.036 15.4565 2.80533 16.2992C2.61974 16.9769 2.61974 17.6921 2.80533 18.3698C3.14133 19.5978 4.20267 20.6285 4.98667 21.5818C5.48133 22.1818 5.95467 22.7298 6.804 22.6618C7.10133 22.6378 7.4 22.5018 7.99867 22.2285C8.452 22.0232 8.67733 21.9192 8.848 21.7712C9.31733 21.3632 9.33333 20.8418 9.33333 20.2618V14.4072Z" stroke="#1D2E2E" stroke-width="1.7" stroke-linecap="round" stroke-linejoin="round"/>
<path d="M6.66667 12C6.66667 7.58133 10.8453 4 16 4C21.1547 4 25.3333 7.58133 25.3333 12M25.3333 22.6667V23.7333C25.3333 26.0893 22.9467 28 20 28H17.3333" stroke="#1D2E2E" stroke-width="1.7" stroke-linecap="round" stroke-linejoin="round"/>
</svg>
