<svg width="32" height="32" viewBox="0 0 32 32" fill="none" xmlns="http://www.w3.org/2000/svg">
<path d="M22.4133 6.33605C22.4133 6.03692 23.003 5.88736 23.3472 6.09953L30.7966 11.328C30.8471 11.3584 30.8874 11.3951 30.9149 11.4359C30.9424 11.4767 30.9566 11.5207 30.9566 11.5652C30.9566 11.6097 30.9424 11.6537 30.9149 11.6945C30.8874 11.7353 30.8471 11.772 30.7966 11.8024L23.3472 17.0316C23.003 17.243 22.4133 17.0928 22.4133 16.7944V14.1252C22.4099 14.034 22.3503 13.9473 22.2476 13.8843C22.145 13.8213 22.0076 13.7871 21.8657 13.7892L12.0259 13.7892C11.7229 13.7892 11.4783 13.6389 11.4783 13.4539V9.67583C11.48 9.6307 11.4955 9.58622 11.5239 9.54494C11.5524 9.50366 11.5932 9.46639 11.644 9.43525C11.6949 9.40411 11.7548 9.37972 11.8203 9.36347C11.8858 9.34721 11.9557 9.33942 12.0259 9.34053L21.8657 9.34053C22.0076 9.34258 22.145 9.30835 22.2476 9.24536C22.3503 9.18236 22.4099 9.09575 22.4133 9.00453V6.33605Z" stroke="#1D2E2E" stroke-width="1.2" stroke-linecap="round" stroke-linejoin="round"/>
<path d="M9.54336 26.1425C9.54336 26.4416 8.9536 26.5912 8.60948 26.379L1.16008 21.1505C1.10955 21.1201 1.06928 21.0834 1.04174 21.0426C1.01421 21.0018 1 20.9578 1 20.9133C1 20.8688 1.01421 20.8248 1.04174 20.784C1.06928 20.7432 1.10955 20.7065 1.16008 20.6761L8.60948 15.4469C8.9536 15.2355 9.54336 15.3857 9.54336 15.6842V18.3533C9.54677 18.4446 9.60634 18.5312 9.70901 18.5942C9.81167 18.6572 9.94903 18.6914 10.0909 18.6893H19.9308C20.2338 18.6893 20.4783 18.8396 20.4783 19.0246V22.8027C20.4766 22.8478 20.4611 22.8923 20.4327 22.9336C20.4043 22.9749 20.3635 23.0121 20.3126 23.0433C20.2618 23.0744 20.2019 23.0988 20.1363 23.115C20.0708 23.1313 20.001 23.1391 19.9308 23.138H10.0909C9.94903 23.1359 9.81167 23.1702 9.70901 23.2332C9.60634 23.2962 9.54677 23.3828 9.54336 23.474V26.1425Z" stroke="#1D2E2E" stroke-width="1.2" stroke-linecap="round" stroke-linejoin="round"/>
</svg>
