<svg width="32" height="32" viewBox="0 0 32 32" fill="none" xmlns="http://www.w3.org/2000/svg">
<path d="M30.71 11.29L24.71 5.28996C24.5701 5.14893 24.3914 5.05275 24.1967 5.01368C24.0019 4.97461 23.8 4.99442 23.6165 5.07059C23.4331 5.14675 23.2765 5.27582 23.1667 5.44134C23.0569 5.60686 22.9988 5.80133 23 5.99996V8.99996H14C13.7348 8.99996 13.4804 9.10531 13.2929 9.29285C13.1054 9.48039 13 9.73474 13 9.99996V14C13 14.2652 13.1054 14.5195 13.2929 14.7071C13.4804 14.8946 13.7348 15 14 15H23V18C22.999 18.1991 23.0575 18.394 23.1679 18.5597C23.2784 18.7254 23.4358 18.8543 23.62 18.93C23.7409 18.9778 23.87 19.0015 24 19C24.1316 19.0007 24.2621 18.9755 24.3839 18.9257C24.5057 18.876 24.6166 18.8026 24.71 18.71L30.71 12.71C30.8027 12.6165 30.876 12.5057 30.9258 12.3839C30.9755 12.262 31.0008 12.1316 31 12C31.0008 11.8684 30.9755 11.7379 30.9258 11.6161C30.876 11.4942 30.8027 11.3834 30.71 11.29ZM25 15.56V14C25 13.7347 24.8946 13.4804 24.7071 13.2928C24.5196 13.1053 24.2652 13 24 13H15V11H24C24.2652 11 24.5196 10.8946 24.7071 10.7071C24.8946 10.5195 25 10.2652 25 9.99996V8.38996L28.59 12L25 15.56ZM18 17H9V14C8.99902 13.8025 8.93961 13.6098 8.82928 13.4461C8.71895 13.2824 8.56262 13.155 8.38 13.08C8.19789 13.0034 7.99718 12.9825 7.80319 13.0198C7.6092 13.0572 7.43063 13.1512 7.29 13.29L1.29 19.29C1.19732 19.3834 1.12399 19.4942 1.07423 19.616C1.02447 19.7379 0.999241 19.8683 1 20C0.999241 20.1316 1.02447 20.262 1.07423 20.3839C1.12399 20.5057 1.19732 20.6165 1.29 20.71L7.29 26.71C7.38344 26.8026 7.49426 26.876 7.6161 26.9257C7.73793 26.9755 7.86839 27.0007 8 27C8.13118 27.0033 8.26132 26.9759 8.38 26.92C8.56262 26.8449 8.71895 26.7175 8.82928 26.5538C8.93961 26.3901 8.99902 26.1974 9 26V23H18C18.2652 23 18.5196 22.8946 18.7071 22.7071C18.8946 22.5195 19 22.2652 19 22V18C19 17.7347 18.8946 17.4804 18.7071 17.2928C18.5196 17.1053 18.2652 17 18 17ZM17 21H8C7.73479 21 7.48043 21.1053 7.29289 21.2928C7.10536 21.4804 7 21.7347 7 22V23.57L3.41 20L7 16.4V18C7 18.2652 7.10536 18.5195 7.29289 18.7071C7.48043 18.8946 7.73479 19 8 19H17V21Z" fill="url(#paint0_linear_2613_1585)"/>
<defs>
<linearGradient id="paint0_linear_2613_1585" x1="6.28" y1="25.7" x2="25.72" y2="6.25995" gradientUnits="userSpaceOnUse">
<stop stop-color="#00A3A3"/>
<stop offset="0.42" stop-color="#00B8B8"/>
<stop offset="1" stop-color="#00CCCC"/>
</linearGradient>
</defs>
</svg>
