<svg width="32" height="33" viewBox="0 0 32 33" fill="none" xmlns="http://www.w3.org/2000/svg">
<path d="M30.71 12.2538L24.71 6.25382C24.5701 6.11279 24.3914 6.01661 24.1967 5.97754C24.0019 5.93847 23.8 5.95829 23.6165 6.03445C23.4331 6.11062 23.2765 6.23969 23.1667 6.40521C23.0569 6.57073 22.9988 6.7652 23 6.96382V9.96382H14C13.7348 9.96382 13.4804 10.0692 13.2929 10.2567C13.1054 10.4443 13 10.6986 13 10.9638V14.9638C13 15.229 13.1054 15.4834 13.2929 15.6709C13.4804 15.8585 13.7348 15.9638 14 15.9638H23V18.9638C22.999 19.163 23.0575 19.3578 23.1679 19.5235C23.2784 19.6892 23.4358 19.8182 23.62 19.8938C23.7409 19.9416 23.87 19.9654 24 19.9638C24.1316 19.9646 24.2621 19.9394 24.3839 19.8896C24.5057 19.8398 24.6166 19.7665 24.71 19.6738L30.71 13.6738C30.8027 13.5804 30.876 13.4696 30.9258 13.3477C30.9755 13.2259 31.0008 13.0954 31 12.9638C31.0008 12.8322 30.9755 12.7018 30.9258 12.5799C30.876 12.4581 30.8027 12.3473 30.71 12.2538ZM25 16.5238V14.9638C25 14.6986 24.8946 14.4443 24.7071 14.2567C24.5196 14.0692 24.2652 13.9638 24 13.9638H15V11.9638H24C24.2652 11.9638 24.5196 11.8585 24.7071 11.6709C24.8946 11.4834 25 11.229 25 10.9638V9.35382L28.59 12.9638L25 16.5238ZM18 17.9638H9V14.9638C8.99902 14.7664 8.93961 14.5737 8.82928 14.41C8.71895 14.2462 8.56262 14.1188 8.38 14.0438C8.19789 13.9672 7.99718 13.9463 7.80319 13.9837C7.6092 14.0211 7.43063 14.1151 7.29 14.2538L1.29 20.2538C1.19732 20.3473 1.12399 20.4581 1.07423 20.5799C1.02447 20.7018 0.999241 20.8322 1 20.9638C0.999241 21.0954 1.02447 21.2259 1.07423 21.3477C1.12399 21.4696 1.19732 21.5804 1.29 21.6738L7.29 27.6738C7.38344 27.7665 7.49426 27.8398 7.6161 27.8896C7.73793 27.9394 7.86839 27.9646 8 27.9638C8.13118 27.9672 8.26132 27.9398 8.38 27.8838C8.56262 27.8088 8.71895 27.6814 8.82928 27.5177C8.93961 27.354 8.99902 27.1612 9 26.9638V23.9638H18C18.2652 23.9638 18.5196 23.8585 18.7071 23.6709C18.8946 23.4834 19 23.229 19 22.9638V18.9638C19 18.6986 18.8946 18.4443 18.7071 18.2567C18.5196 18.0692 18.2652 17.9638 18 17.9638ZM17 21.9638H8C7.73479 21.9638 7.48043 22.0692 7.29289 22.2567C7.10536 22.4443 7 22.6986 7 22.9638V24.5338L3.41 20.9638L7 17.3638V18.9638C7 19.229 7.10536 19.4834 7.29289 19.6709C7.48043 19.8585 7.73479 19.9638 8 19.9638H17V21.9638Z" fill="url(#paint0_linear_2613_1669)"/>
<defs>
<linearGradient id="paint0_linear_2613_1669" x1="6.28" y1="26.6638" x2="25.72" y2="7.22382" gradientUnits="userSpaceOnUse">
<stop stop-color="#00A3A3"/>
<stop offset="0.42" stop-color="#00B8B8"/>
<stop offset="1" stop-color="#00CCCC"/>
</linearGradient>
</defs>
</svg>
