<svg width="48" height="48" viewBox="0 0 48 48" fill="none" xmlns="http://www.w3.org/2000/svg">
<path d="M14.43 16C15.6482 17.4935 17.1695 18.7115 18.8933 19.5734C20.6171 20.4353 22.5043 20.9216 24.43 21C24.17 19.94 24.15 17.06 26.17 15.86C26.9912 15.3202 27.9476 15.0222 28.93 15C29.5711 15.0015 30.205 15.1355 30.7918 15.3936C31.3786 15.6517 31.9057 16.0284 32.34 16.5C33.3925 16.276 34.4043 15.8915 35.34 15.36C35.0115 16.4332 34.2996 17.348 33.34 17.93C34.2558 17.8508 35.1534 17.628 36 17.27C35.3628 18.2194 34.556 19.0432 33.62 19.7C34.33 26.07 28.62 33.99 20.5 33.99C17.8663 34.0044 15.2768 33.3139 13 31.99C14.2413 32.1445 15.5011 32.0471 16.7038 31.7034C17.9066 31.3598 19.0277 30.777 20 29.99C18.9243 29.9267 17.8872 29.5659 17.0044 28.948C16.1216 28.33 15.4277 27.4791 15 26.49C16 26.81 16.95 26.97 17.5 26.49C16.3765 26.2041 15.3745 25.5649 14.6417 24.6665C13.909 23.7681 13.4842 22.6581 13.43 21.5C13.7604 21.823 14.1513 22.0777 14.5803 22.2493C15.0093 22.4209 15.468 22.5061 15.93 22.5C14.9238 21.7911 14.2143 20.736 13.9376 19.5367C13.6608 18.3374 13.8361 17.0781 14.43 16Z" stroke="#1D2E2E" stroke-linecap="round" stroke-linejoin="round"/>
<circle cx="24" cy="24" r="23.5" stroke="#1D2E2E"/>
</svg>
