<svg width="51" height="17" viewBox="0 0 51 17" fill="none" xmlns="http://www.w3.org/2000/svg">
<g clip-path="url(#clip0_424_1600)">
<path d="M26.2289 5.36623C26.2 7.64764 28.2621 8.92068 29.8154 9.67765C31.4114 10.4542 31.9475 10.9523 31.9411 11.6468C31.9292 12.7097 30.6681 13.1788 29.488 13.197C27.429 13.2289 26.2318 12.6411 25.2801 12.1966L24.5384 15.6672C25.4933 16.1072 27.2614 16.491 29.0949 16.5078C33.3988 16.5078 36.2145 14.3833 36.2298 11.0894C36.2466 6.9089 30.4474 6.67751 30.487 4.80895C30.5007 4.24236 31.0413 3.63774 32.226 3.48401C32.8124 3.40635 34.4311 3.34692 36.2664 4.19205L36.9867 0.834119C35.9998 0.474751 34.7313 0.130638 33.152 0.130638C29.101 0.130638 26.2519 2.28407 26.2289 5.36623ZM43.9082 0.419874C43.1223 0.419874 42.46 0.878296 42.1645 1.58178L36.0166 16.2612H40.3173L41.1731 13.896H46.4285L46.925 16.2612H50.7156L47.4078 0.419874H43.9082ZM44.5099 4.6992L45.751 10.6478H42.3519L44.5099 4.6992ZM21.0145 0.420073L17.6245 16.261H21.7227L25.1112 0.419676H21.0145M14.9518 0.419676L10.6861 11.2021L8.96061 2.03426C8.75815 1.01083 7.95858 0.419874 7.07067 0.419874H0.0976671L0 0.879881C1.43153 1.19051 3.05799 1.69153 4.04338 2.22761C4.64642 2.55508 4.81838 2.84135 5.01649 3.61951L8.28467 16.2612H12.6155L19.2553 0.419874H14.9518" fill="url(#paint0_linear_424_1600)"/>
</g>
<defs>
<linearGradient id="paint0_linear_424_1600" x1="23.316" y1="16.8363" x2="23.79" y2="0.0167406" gradientUnits="userSpaceOnUse">
<stop stop-color="#222357"/>
<stop offset="1" stop-color="#254AA5"/>
</linearGradient>
<clipPath id="clip0_424_1600">
<rect width="50.7162" height="16.4429" fill="white" transform="translate(0 0.130859)"/>
</clipPath>
</defs>
</svg>
