<svg width="36" height="34" viewBox="0 0 36 34" fill="none" xmlns="http://www.w3.org/2000/svg">
<path d="M34.3331 13.5003H33.1665V6.50033C33.1665 6.19091 33.0435 5.89416 32.8248 5.67537C32.606 5.45658 32.3092 5.33366 31.9998 5.33366H3.99979C3.72354 5.33816 3.45465 5.24448 3.24101 5.06929C3.02736 4.8941 2.88282 4.64878 2.83313 4.37699V3.95699C2.88282 3.68521 3.02736 3.43988 3.24101 3.26469C3.45465 3.0895 3.72354 2.99582 3.99979 3.00033H31.5098C31.8192 3.00033 32.116 2.87741 32.3348 2.65862C32.5535 2.43982 32.6765 2.14308 32.6765 1.83366C32.6765 1.52424 32.5535 1.22749 32.3348 1.0087C32.116 0.789909 31.8192 0.666992 31.5098 0.666992H3.99979C3.07154 0.666992 2.1813 1.03574 1.52492 1.69212C0.868543 2.3485 0.499794 3.23873 0.499794 4.16699C0.491605 4.30687 0.491605 4.44711 0.499794 4.58699V28.5853C0.504373 29.2135 0.632638 29.8346 0.877263 30.4132C1.12189 30.9918 1.47808 31.5165 1.92551 31.9574C2.37294 32.3984 2.90283 32.7468 3.48494 32.983C4.06705 33.2191 4.68997 33.3383 5.31813 33.3337H31.9998C32.3092 33.3337 32.606 33.2107 32.8248 32.992C33.0435 32.7732 33.1665 32.4764 33.1665 32.167V25.167H34.3331C34.6425 25.167 34.9393 25.0441 35.1581 24.8253C35.3769 24.6065 35.4998 24.3097 35.4998 24.0003V14.667C35.4998 14.3576 35.3769 14.0608 35.1581 13.842C34.9393 13.6232 34.6425 13.5003 34.3331 13.5003ZM30.8331 31.0003H5.31813C4.66923 31.0066 4.0441 30.7564 3.57873 30.3041C3.11336 29.8519 2.8454 29.2341 2.83313 28.5853V7.52699C3.21183 7.63674 3.60588 7.68402 3.99979 7.66699H30.8331V13.5003H22.6665C21.1194 13.5003 19.6356 14.1149 18.5417 15.2089C17.4477 16.3028 16.8331 17.7866 16.8331 19.3337C16.8331 20.8808 17.4477 22.3645 18.5417 23.4584C19.6356 24.5524 21.1194 25.167 22.6665 25.167H30.8331V31.0003ZM33.1665 22.8337H22.6665C21.7382 22.8337 20.848 22.4649 20.1916 21.8085C19.5352 21.1522 19.1665 20.2619 19.1665 19.3337C19.1665 18.4054 19.5352 17.5152 20.1916 16.8588C20.848 16.2024 21.7382 15.8337 22.6665 15.8337H33.1665V22.8337Z" fill="white"/>
</svg>
