<svg width="57" height="20" viewBox="0 0 57 20" fill="none" xmlns="http://www.w3.org/2000/svg">
<rect x="0.5" y="0.5" width="56" height="19" rx="3.5" fill="#E6F2FF"/>
<path d="M9.89631 6.72727V14H8.79901V6.72727H9.89631ZM17.3643 6.72727V14H16.3558L12.6591 8.66619H12.5916V14H11.4943V6.72727H12.5099L16.2102 12.0682H16.2777V6.72727H17.3643ZM19.6007 6.72727L21.6248 12.6506H21.7065L23.7306 6.72727H24.9167L22.2995 14H21.0318L18.4146 6.72727H19.6007ZM31.9231 10.3636C31.9231 11.1402 31.7811 11.8078 31.497 12.3665C31.2129 12.9228 30.8234 13.3513 30.3287 13.652C29.8362 13.9503 29.2763 14.0994 28.649 14.0994C28.0192 14.0994 27.457 13.9503 26.9622 13.652C26.4698 13.3513 26.0815 12.9216 25.7974 12.3629C25.5133 11.8042 25.3713 11.1378 25.3713 10.3636C25.3713 9.58712 25.5133 8.92069 25.7974 8.36435C26.0815 7.80563 26.4698 7.37713 26.9622 7.07884C27.457 6.77817 28.0192 6.62784 28.649 6.62784C29.2763 6.62784 29.8362 6.77817 30.3287 7.07884C30.8234 7.37713 31.2129 7.80563 31.497 8.36435C31.7811 8.92069 31.9231 9.58712 31.9231 10.3636ZM30.8365 10.3636C30.8365 9.77178 30.7406 9.27344 30.5488 8.86861C30.3594 8.46141 30.099 8.15365 29.7676 7.94531C29.4385 7.73461 29.0656 7.62926 28.649 7.62926C28.2299 7.62926 27.8559 7.73461 27.5268 7.94531C27.1977 8.15365 26.9373 8.46141 26.7456 8.86861C26.5562 9.27344 26.4615 9.77178 26.4615 10.3636C26.4615 10.9555 26.5562 11.455 26.7456 11.8622C26.9373 12.267 27.1977 12.5748 27.5268 12.7855C27.8559 12.9938 28.2299 13.098 28.649 13.098C29.0656 13.098 29.4385 12.9938 29.7676 12.7855C30.099 12.5748 30.3594 12.267 30.5488 11.8622C30.7406 11.455 30.8365 10.9555 30.8365 10.3636ZM34.3885 6.72727V14H33.2912V6.72727H34.3885ZM42.027 9.09233H40.919C40.8764 8.85559 40.7971 8.64725 40.6811 8.46733C40.5651 8.28741 40.4231 8.13471 40.255 8.00923C40.0869 7.88376 39.8987 7.78906 39.6903 7.72514C39.4844 7.66122 39.2654 7.62926 39.0334 7.62926C38.6143 7.62926 38.2391 7.73461 37.9077 7.94531C37.5786 8.15601 37.3182 8.46496 37.1264 8.87216C36.937 9.27936 36.8423 9.77652 36.8423 10.3636C36.8423 10.9555 36.937 11.455 37.1264 11.8622C37.3182 12.2694 37.5798 12.5772 37.9112 12.7855C38.2427 12.9938 38.6155 13.098 39.0298 13.098C39.2595 13.098 39.4773 13.0672 39.6832 13.0057C39.8916 12.9418 40.0798 12.8482 40.2479 12.7251C40.416 12.602 40.558 12.4517 40.674 12.2741C40.7924 12.0942 40.8741 11.8883 40.919 11.6562L42.027 11.6598C41.9678 12.0173 41.853 12.3464 41.6825 12.647C41.5144 12.9453 41.2978 13.2034 41.0327 13.4212C40.7699 13.6366 40.4692 13.8035 40.1307 13.9219C39.7921 14.0402 39.4228 14.0994 39.0227 14.0994C38.393 14.0994 37.8319 13.9503 37.3395 13.652C36.8471 13.3513 36.4588 12.9216 36.1747 12.3629C35.893 11.8042 35.7521 11.1378 35.7521 10.3636C35.7521 9.58712 35.8942 8.92069 36.1783 8.36435C36.4624 7.80563 36.8506 7.37713 37.343 7.07884C37.8355 6.77817 38.3954 6.62784 39.0227 6.62784C39.4086 6.62784 39.7685 6.68348 40.1023 6.79474C40.4384 6.90365 40.7403 7.06463 41.0078 7.2777C41.2753 7.4884 41.4967 7.74645 41.6719 8.05185C41.8471 8.35488 41.9654 8.7017 42.027 9.09233ZM43.34 14V6.72727H47.8997V7.67188H44.4373V9.88778H47.6618V10.8288H44.4373V13.0554H47.9423V14H43.34Z" fill="#0468DB"/>
<rect x="0.5" y="0.5" width="56" height="19" rx="3.5" stroke="#0468DB"/>
</svg>
