<svg width="39" height="20" viewBox="0 0 39 20" fill="none" xmlns="http://www.w3.org/2000/svg">
<rect x="0.5" y="0.5" width="38" height="19" rx="3.5" fill="#EFFAF2"/>
<path d="M8.79901 14V6.72727H11.3913C11.9571 6.72727 12.4259 6.83026 12.7976 7.03622C13.1693 7.24219 13.4474 7.52391 13.6321 7.88139C13.8168 8.23651 13.9091 8.6366 13.9091 9.08168C13.9091 9.52912 13.8156 9.93158 13.6286 10.2891C13.4439 10.6442 13.1645 10.9259 12.7905 11.1342C12.4188 11.3402 11.9512 11.4432 11.3878 11.4432H9.60511V10.5128H11.2884C11.6458 10.5128 11.9358 10.4512 12.1584 10.3281C12.3809 10.2027 12.5443 10.0322 12.6484 9.81676C12.7526 9.60133 12.8047 9.3563 12.8047 9.08168C12.8047 8.80705 12.7526 8.56321 12.6484 8.35014C12.5443 8.13707 12.3797 7.97017 12.1548 7.84943C11.9323 7.72869 11.6387 7.66832 11.2741 7.66832H9.89631V14H8.79901ZM15.0384 14H13.8736L16.4908 6.72727H17.7585L20.3757 14H19.2109L17.1548 8.0483H17.098L15.0384 14ZM15.2337 11.152H19.0121V12.0753H15.2337V11.152ZM22.5233 6.72727V14H21.426V6.72727H22.5233ZM26.4757 14H24.1213V6.72727H26.5502C27.2628 6.72727 27.8748 6.87287 28.3862 7.16406C28.8975 7.45289 29.2894 7.86837 29.5616 8.41051C29.8362 8.95028 29.9735 9.59777 29.9735 10.353C29.9735 11.1106 29.835 11.7616 29.5581 12.3061C29.2834 12.8506 28.8857 13.2696 28.3649 13.5632C27.844 13.8544 27.2143 14 26.4757 14ZM25.2186 13.0412H26.4153C26.9693 13.0412 27.4297 12.937 27.7967 12.7287C28.1636 12.518 28.4383 12.2138 28.6206 11.8161C28.8029 11.416 28.894 10.9283 28.894 10.353C28.894 9.78243 28.8029 9.2983 28.6206 8.90057C28.4406 8.50284 28.1719 8.20099 27.8145 7.99503C27.457 7.78906 27.0131 7.68608 26.4828 7.68608H25.2186V13.0412Z" fill="#44C566"/>
<rect x="0.5" y="0.5" width="38" height="19" rx="3.5" stroke="#44C566"/>
</svg>
