<svg width="61" height="20" viewBox="0 0 61 20" fill="none" xmlns="http://www.w3.org/2000/svg">
<rect x="0.5" y="0.5" width="60" height="19" rx="3.5" fill="#FEF7EB"/>
<path d="M8.79901 14V6.72727H11.3913C11.9571 6.72727 12.4259 6.83026 12.7976 7.03622C13.1693 7.24219 13.4474 7.52391 13.6321 7.88139C13.8168 8.23651 13.9091 8.6366 13.9091 9.08168C13.9091 9.52912 13.8156 9.93158 13.6286 10.2891C13.4439 10.6442 13.1645 10.9259 12.7905 11.1342C12.4188 11.3402 11.9512 11.4432 11.3878 11.4432H9.60511V10.5128H11.2884C11.6458 10.5128 11.9358 10.4512 12.1584 10.3281C12.3809 10.2027 12.5443 10.0322 12.6484 9.81676C12.7526 9.60133 12.8047 9.3563 12.8047 9.08168C12.8047 8.80705 12.7526 8.56321 12.6484 8.35014C12.5443 8.13707 12.3797 7.97017 12.1548 7.84943C11.9323 7.72869 11.6387 7.66832 11.2741 7.66832H9.89631V14H8.79901ZM15.1955 14V6.72727H19.7551V7.67188H16.2928V9.88778H19.5172V10.8288H16.2928V13.0554H19.7978V14H15.1955ZM27.0909 6.72727V14H26.0824L22.3857 8.66619H22.3182V14H21.2209V6.72727H22.2365L25.9368 12.0682H26.0043V6.72727H27.0909ZM31.046 14H28.6916V6.72727H31.1206C31.8332 6.72727 32.4451 6.87287 32.9565 7.16406C33.4679 7.45289 33.8597 7.86837 34.1319 8.41051C34.4065 8.95028 34.5439 9.59777 34.5439 10.353C34.5439 11.1106 34.4054 11.7616 34.1284 12.3061C33.8538 12.8506 33.456 13.2696 32.9352 13.5632C32.4144 13.8544 31.7846 14 31.046 14ZM29.7889 13.0412H30.9856C31.5396 13.0412 32.0001 12.937 32.367 12.7287C32.734 12.518 33.0086 12.2138 33.1909 11.8161C33.3732 11.416 33.4643 10.9283 33.4643 10.353C33.4643 9.78243 33.3732 9.2983 33.1909 8.90057C33.0109 8.50284 32.7422 8.20099 32.3848 7.99503C32.0273 7.78906 31.5834 7.68608 31.0531 7.68608H29.7889V13.0412ZM37.0057 6.72727V14H35.9084V6.72727H37.0057ZM44.4737 6.72727V14H43.4652L39.7685 8.66619H39.701V14H38.6037V6.72727H39.6193L43.3196 12.0682H43.3871V6.72727H44.4737ZM50.9963 9.02486C50.9276 8.80942 50.8353 8.61648 50.7193 8.44602C50.6056 8.2732 50.4695 8.12642 50.3109 8.00568C50.1523 7.88258 49.9712 7.78906 49.7676 7.72514C49.5663 7.66122 49.345 7.62926 49.1035 7.62926C48.694 7.62926 48.3246 7.73461 47.9956 7.94531C47.6665 8.15601 47.4061 8.46496 47.2143 8.87216C47.0249 9.27699 46.9302 9.77296 46.9302 10.3601C46.9302 10.9496 47.0261 11.4479 47.2179 11.8551C47.4096 12.2623 47.6724 12.5713 48.0062 12.782C48.34 12.9927 48.72 13.098 49.1461 13.098C49.5415 13.098 49.8859 13.0175 50.1795 12.8565C50.4754 12.6955 50.7039 12.4683 50.8649 12.1747C51.0282 11.8788 51.1099 11.5308 51.1099 11.1307L51.394 11.1839H49.313V10.2784H52.1717V11.1058C52.1717 11.7166 52.0415 12.2469 51.7811 12.6967C51.523 13.1442 51.1655 13.4898 50.7086 13.7337C50.2541 13.9775 49.7333 14.0994 49.1461 14.0994C48.488 14.0994 47.9103 13.9479 47.4132 13.6449C46.9184 13.3419 46.5325 12.9122 46.2555 12.3558C45.9785 11.7971 45.84 11.1342 45.84 10.3672C45.84 9.78717 45.9205 9.26634 46.0815 8.80469C46.2425 8.34304 46.4686 7.95123 46.7598 7.62926C47.0533 7.30492 47.3978 7.05753 47.7931 6.88707C48.1909 6.71425 48.6253 6.62784 49.0964 6.62784C49.4894 6.62784 49.8552 6.68584 50.1937 6.80185C50.5346 6.91785 50.8377 7.08239 51.1028 7.29545C51.3703 7.50852 51.5917 7.76184 51.7669 8.0554C51.9421 8.34659 52.0604 8.66974 52.122 9.02486H50.9963Z" fill="#FBB13C"/>
<rect x="0.5" y="0.5" width="60" height="19" rx="3.5" stroke="#FBB13C"/>
</svg>
