<svg width="51" height="20" viewBox="0 0 51 20" fill="none" xmlns="http://www.w3.org/2000/svg">
<rect x="0.5" y="0.5" width="50" height="19" rx="3.5" fill="#E6F2FF"/>
<path d="M11.473 11.642H12.5526L13.3125 12.6328L13.6712 13.0732L14.8821 14.6534H13.7599L12.9503 13.5987L12.6733 13.2152L11.473 11.642ZM15.1165 10.3636C15.1165 11.1402 14.9744 11.8078 14.6903 12.3665C14.4063 12.9228 14.0168 13.3513 13.522 13.652C13.0296 13.9503 12.4697 14.0994 11.8423 14.0994C11.2126 14.0994 10.6503 13.9503 10.1555 13.652C9.66312 13.3513 9.27486 12.9216 8.99077 12.3629C8.70668 11.8042 8.56463 11.1378 8.56463 10.3636C8.56463 9.58712 8.70668 8.92069 8.99077 8.36435C9.27486 7.80563 9.66312 7.37713 10.1555 7.07884C10.6503 6.77817 11.2126 6.62784 11.8423 6.62784C12.4697 6.62784 13.0296 6.77817 13.522 7.07884C14.0168 7.37713 14.4063 7.80563 14.6903 8.36435C14.9744 8.92069 15.1165 9.58712 15.1165 10.3636ZM14.0298 10.3636C14.0298 9.77178 13.9339 9.27344 13.7422 8.86861C13.5528 8.46141 13.2924 8.15365 12.9609 7.94531C12.6319 7.73461 12.259 7.62926 11.8423 7.62926C11.4233 7.62926 11.0492 7.73461 10.7202 7.94531C10.3911 8.15365 10.1307 8.46141 9.93892 8.86861C9.74953 9.27344 9.65483 9.77178 9.65483 10.3636C9.65483 10.9555 9.74953 11.455 9.93892 11.8622C10.1307 12.267 10.3911 12.5748 10.7202 12.7855C11.0492 12.9938 11.4233 13.098 11.8423 13.098C12.259 13.098 12.6319 12.9938 12.9609 12.7855C13.2924 12.5748 13.5528 12.267 13.7422 11.8622C13.9339 11.455 14.0298 10.9555 14.0298 10.3636ZM21.1614 6.72727H22.2623V11.5107C22.2623 12.0196 22.1427 12.4706 21.9036 12.8636C21.6645 13.2543 21.3283 13.562 20.8951 13.7869C20.4618 14.0095 19.954 14.1207 19.3716 14.1207C18.7916 14.1207 18.285 14.0095 17.8517 13.7869C17.4185 13.562 17.0823 13.2543 16.8432 12.8636C16.6041 12.4706 16.4846 12.0196 16.4846 11.5107V6.72727H17.5819V11.4219C17.5819 11.7509 17.6541 12.0433 17.7985 12.299C17.9453 12.5547 18.1524 12.7559 18.4199 12.9027C18.6874 13.0471 19.0047 13.1193 19.3716 13.1193C19.7409 13.1193 20.0594 13.0471 20.3269 12.9027C20.5968 12.7559 20.8027 12.5547 20.9448 12.299C21.0892 12.0433 21.1614 11.7509 21.1614 11.4219V6.72727ZM30.1751 10.3636C30.1751 11.1402 30.033 11.8078 29.7489 12.3665C29.4648 12.9228 29.0754 13.3513 28.5806 13.652C28.0882 13.9503 27.5283 14.0994 26.9009 14.0994C26.2712 14.0994 25.7089 13.9503 25.2141 13.652C24.7217 13.3513 24.3335 12.9216 24.0494 12.3629C23.7653 11.8042 23.6232 11.1378 23.6232 10.3636C23.6232 9.58712 23.7653 8.92069 24.0494 8.36435C24.3335 7.80563 24.7217 7.37713 25.2141 7.07884C25.7089 6.77817 26.2712 6.62784 26.9009 6.62784C27.5283 6.62784 28.0882 6.77817 28.5806 7.07884C29.0754 7.37713 29.4648 7.80563 29.7489 8.36435C30.033 8.92069 30.1751 9.58712 30.1751 10.3636ZM29.0884 10.3636C29.0884 9.77178 28.9925 9.27344 28.8008 8.86861C28.6114 8.46141 28.351 8.15365 28.0195 7.94531C27.6905 7.73461 27.3176 7.62926 26.9009 7.62926C26.4819 7.62926 26.1078 7.73461 25.7788 7.94531C25.4497 8.15365 25.1893 8.46141 24.9975 8.86861C24.8081 9.27344 24.7134 9.77178 24.7134 10.3636C24.7134 10.9555 24.8081 11.455 24.9975 11.8622C25.1893 12.267 25.4497 12.5748 25.7788 12.7855C26.1078 12.9938 26.4819 13.098 26.9009 13.098C27.3176 13.098 27.6905 12.9938 28.0195 12.7855C28.351 12.5748 28.6114 12.267 28.8008 11.8622C28.9925 11.455 29.0884 10.9555 29.0884 10.3636ZM30.872 7.67188V6.72727H36.5005V7.67188H34.2314V14H33.1376V7.67188H30.872ZM37.7443 14V6.72727H42.304V7.67188H38.8416V9.88778H42.0661V10.8288H38.8416V13.0554H42.3466V14H37.7443Z" fill="#0468DB"/>
<rect x="0.5" y="0.5" width="50" height="19" rx="3.5" stroke="#0468DB"/>
</svg>
