<svg width="58" height="20" viewBox="0 0 58 20" fill="none" xmlns="http://www.w3.org/2000/svg">
<rect x="0.5" y="0.5" width="57" height="19" rx="3.5" fill="#E6F2FF"/>
<path d="M8.79901 14V6.72727H11.3913C11.9548 6.72727 12.4223 6.82434 12.794 7.01847C13.1681 7.21259 13.4474 7.4813 13.6321 7.82457C13.8168 8.16548 13.9091 8.55966 13.9091 9.0071C13.9091 9.45218 13.8156 9.84399 13.6286 10.1825C13.4439 10.5187 13.1645 10.7803 12.7905 10.9673C12.4188 11.1544 11.9512 11.2479 11.3878 11.2479H9.42401V10.3033H11.2884C11.6435 10.3033 11.9323 10.2524 12.1548 10.1506C12.3797 10.0488 12.5443 9.9008 12.6484 9.70668C12.7526 9.51255 12.8047 9.27936 12.8047 9.0071C12.8047 8.73248 12.7514 8.49455 12.6449 8.29332C12.5407 8.09209 12.3762 7.93821 12.1513 7.83168C11.9287 7.72277 11.6364 7.66832 11.2741 7.66832H9.89631V14H8.79901ZM12.3892 10.7188L14.1861 14H12.9361L11.1747 10.7188H12.3892ZM15.2443 14V6.72727H19.804V7.67188H16.3416V9.88778H19.5661V10.8288H16.3416V13.0554H19.8466V14H15.2443ZM27.3102 9.09233H26.2022C26.1596 8.85559 26.0803 8.64725 25.9643 8.46733C25.8483 8.28741 25.7063 8.13471 25.5382 8.00923C25.3701 7.88376 25.1819 7.78906 24.9735 7.72514C24.7676 7.66122 24.5486 7.62926 24.3166 7.62926C23.8975 7.62926 23.5223 7.73461 23.1909 7.94531C22.8618 8.15601 22.6014 8.46496 22.4096 8.87216C22.2202 9.27936 22.1255 9.77652 22.1255 10.3636C22.1255 10.9555 22.2202 11.455 22.4096 11.8622C22.6014 12.2694 22.863 12.5772 23.1944 12.7855C23.5259 12.9938 23.8987 13.098 24.313 13.098C24.5427 13.098 24.7605 13.0672 24.9664 13.0057C25.1748 12.9418 25.363 12.8482 25.5311 12.7251C25.6992 12.602 25.8412 12.4517 25.9572 12.2741C26.0756 12.0942 26.1573 11.8883 26.2022 11.6562L27.3102 11.6598C27.251 12.0173 27.1362 12.3464 26.9657 12.647C26.7976 12.9453 26.581 13.2034 26.3159 13.4212C26.0531 13.6366 25.7524 13.8035 25.4139 13.9219C25.0753 14.0402 24.706 14.0994 24.3059 14.0994C23.6762 14.0994 23.1151 13.9503 22.6227 13.652C22.1303 13.3513 21.742 12.9216 21.4579 12.3629C21.1762 11.8042 21.0353 11.1378 21.0353 10.3636C21.0353 9.58712 21.1774 8.92069 21.4615 8.36435C21.7456 7.80563 22.1338 7.37713 22.6262 7.07884C23.1187 6.77817 23.6786 6.62784 24.3059 6.62784C24.6918 6.62784 25.0517 6.68348 25.3855 6.79474C25.7217 6.90365 26.0235 7.06463 26.291 7.2777C26.5585 7.4884 26.7799 7.74645 26.9551 8.05185C27.1303 8.35488 27.2486 8.7017 27.3102 9.09233ZM28.6232 14V6.72727H33.1829V7.67188H29.7205V9.88778H32.945V10.8288H29.7205V13.0554H33.2255V14H28.6232ZM35.7459 6.72727V14H34.6486V6.72727H35.7459ZM37.3439 14V6.72727H39.9363C40.5021 6.72727 40.9708 6.83026 41.3425 7.03622C41.7142 7.24219 41.9924 7.52391 42.177 7.88139C42.3617 8.23651 42.454 8.6366 42.454 9.08168C42.454 9.52912 42.3605 9.93158 42.1735 10.2891C41.9888 10.6442 41.7095 10.9259 41.3354 11.1342C40.9637 11.3402 40.4962 11.4432 39.9327 11.4432H38.15V10.5128H39.8333C40.1908 10.5128 40.4808 10.4512 40.7033 10.3281C40.9258 10.2027 41.0892 10.0322 41.1934 9.81676C41.2975 9.60133 41.3496 9.3563 41.3496 9.08168C41.3496 8.80705 41.2975 8.56321 41.1934 8.35014C41.0892 8.13707 40.9247 7.97017 40.6998 7.84943C40.4772 7.72869 40.1837 7.66832 39.8191 7.66832H38.4412V14H37.3439ZM43.3817 7.67188V6.72727H49.0103V7.67188H46.7411V14H45.6474V7.67188H43.3817Z" fill="#0468DB"/>
<rect x="0.5" y="0.5" width="57" height="19" rx="3.5" stroke="#0468DB"/>
</svg>
