<svg width="54" height="20" viewBox="0 0 54 20" fill="none" xmlns="http://www.w3.org/2000/svg">
<rect x="0.5" y="0.5" width="53" height="19" rx="3.5" fill="#FCEEEE"/>
<path d="M13.4759 6.72727H14.5767V11.5107C14.5767 12.0196 14.4571 12.4706 14.218 12.8636C13.9789 13.2543 13.6428 13.562 13.2095 13.7869C12.7763 14.0095 12.2685 14.1207 11.6861 14.1207C11.1061 14.1207 10.5994 14.0095 10.1662 13.7869C9.73295 13.562 9.39678 13.2543 9.15767 12.8636C8.91856 12.4706 8.79901 12.0196 8.79901 11.5107V6.72727H9.89631V11.4219C9.89631 11.7509 9.96851 12.0433 10.1129 12.299C10.2597 12.5547 10.4669 12.7559 10.7344 12.9027C11.0019 13.0471 11.3191 13.1193 11.6861 13.1193C12.0554 13.1193 12.3738 13.0471 12.6413 12.9027C12.9112 12.7559 13.1172 12.5547 13.2592 12.299C13.4036 12.0433 13.4759 11.7509 13.4759 11.4219V6.72727ZM22.0421 6.72727V14H21.0336L17.3368 8.66619H17.2694V14H16.1721V6.72727H17.1877L20.888 12.0682H20.9554V6.72727H22.0421ZM23.6428 14V6.72727H26.2351C26.8009 6.72727 27.2696 6.83026 27.6413 7.03622C28.013 7.24219 28.2912 7.52391 28.4759 7.88139C28.6605 8.23651 28.7528 8.6366 28.7528 9.08168C28.7528 9.52912 28.6593 9.93158 28.4723 10.2891C28.2876 10.6442 28.0083 10.9259 27.6342 11.1342C27.2625 11.3402 26.795 11.4432 26.2315 11.4432H24.4489V10.5128H26.1321C26.4896 10.5128 26.7796 10.4512 27.0021 10.3281C27.2247 10.2027 27.388 10.0322 27.4922 9.81676C27.5964 9.60133 27.6484 9.3563 27.6484 9.08168C27.6484 8.80705 27.5964 8.56321 27.4922 8.35014C27.388 8.13707 27.2235 7.97017 26.9986 7.84943C26.776 7.72869 26.4825 7.66832 26.1179 7.66832H24.7401V14H23.6428ZM29.8821 14H28.7173L31.3345 6.72727H32.6023L35.2195 14H34.0547L31.9986 8.0483H31.9418L29.8821 14ZM30.0774 11.152H33.8558V12.0753H30.0774V11.152ZM37.367 6.72727V14H36.2697V6.72727H37.367ZM41.3194 14H38.965V6.72727H41.394C42.1066 6.72727 42.7186 6.87287 43.2299 7.16406C43.7413 7.45289 44.1331 7.86837 44.4054 8.41051C44.68 8.95028 44.8173 9.59777 44.8173 10.353C44.8173 11.1106 44.6788 11.7616 44.4018 12.3061C44.1272 12.8506 43.7295 13.2696 43.2086 13.5632C42.6878 13.8544 42.0581 14 41.3194 14ZM40.0623 13.0412H41.2591C41.813 13.0412 42.2735 12.937 42.6404 12.7287C43.0074 12.518 43.282 12.2138 43.4643 11.8161C43.6466 11.416 43.7377 10.9283 43.7377 10.353C43.7377 9.78243 43.6466 9.2983 43.4643 8.90057C43.2844 8.50284 43.0157 8.20099 42.6582 7.99503C42.3007 7.78906 41.8568 7.68608 41.3265 7.68608H40.0623V13.0412Z" fill="#D12727"/>
<rect x="0.5" y="0.5" width="53" height="19" rx="3.5" stroke="#D12727"/>
</svg>
